New_Shree-SemiBold.ufo
<glyph name="BASE" format="1">
  <advance width="680"/>
  <outline>
    <contour>
      <point x="303" y="508"/>
      <point x="320" y="525"/>
      <point x="340" y="525" type="curve" smooth="yes"/>
      <point x="361" y="525"/>
      <point x="378" y="508"/>
      <point x="378" y="487" type="curve" smooth="yes"/>
      <point x="378" y="466"/>
      <point x="361" y="449"/>
      <point x="340" y="449" type="curve" smooth="yes"/>
      <point x="320" y="449"/>
      <point x="303" y="466"/>
      <point x="303" y="487" type="curve" smooth="yes"/>
    </contour>
    <contour>
      <point x="303" y="44"/>
      <point x="320" y="61"/>
      <point x="340" y="61" type="curve" smooth="yes"/>
      <point x="361" y="61"/>
      <point x="378" y="44"/>
      <point x="378" y="23" type="curve" smooth="yes"/>
      <point x="378" y="2"/>
      <point x="361" y="-15"/>
      <point x="340" y="-15" type="curve" smooth="yes"/>
      <point x="320" y="-15"/>
      <point x="303" y="2"/>
      <point x="303" y="23" type="curve" smooth="yes"/>
    </contour>
    <contour>
      <point x="70" y="276"/>
      <point x="87" y="293"/>
      <point x="108" y="293" type="curve" smooth="yes"/>
      <point x="129" y="293"/>
      <point x="146" y="276"/>
      <point x="146" y="255" type="curve" smooth="yes"/>
      <point x="146" y="234"/>
      <point x="129" y="217"/>
      <point x="108" y="217" type="curve" smooth="yes"/>
      <point x="87" y="217"/>
      <point x="70" y="234"/>
      <point x="70" y="255" type="curve" smooth="yes"/>
    </contour>
    <contour>
      <point x="535" y="276"/>
      <point x="552" y="293"/>
      <point x="572" y="293" type="curve" smooth="yes"/>
      <point x="593" y="293"/>
      <point x="610" y="276"/>
      <point x="610" y="255" type="curve" smooth="yes"/>
      <point x="610" y="234"/>
      <point x="593" y="217"/>
      <point x="572" y="217" type="curve" smooth="yes"/>
      <point x="552" y="217"/>
      <point x="535" y="234"/>
      <point x="535" y="255" type="curve" smooth="yes"/>
    </contour>
    <contour>
      <point x="102" y="160"/>
      <point x="119" y="177"/>
      <point x="140" y="177" type="curve" smooth="yes"/>
      <point x="161" y="177"/>
      <point x="178" y="160"/>
      <point x="178" y="139" type="curve" smooth="yes"/>
      <point x="178" y="118"/>
      <point x="161" y="101"/>
      <point x="140" y="101" type="curve" smooth="yes"/>
      <point x="119" y="101"/>
      <point x="102" y="118"/>
      <point x="102" y="139" type="curve" smooth="yes"/>
    </contour>
    <contour>
      <point x="504" y="392"/>
      <point x="521" y="409"/>
      <point x="542" y="409" type="curve" smooth="yes"/>
      <point x="562" y="409"/>
      <point x="579" y="392"/>
      <point x="579" y="371" type="curve" smooth="yes"/>
      <point x="579" y="350"/>
      <point x="562" y="333"/>
      <point x="542" y="333" type="curve" smooth="yes"/>
      <point x="521" y="333"/>
      <point x="504" y="350"/>
      <point x="504" y="371" type="curve" smooth="yes"/>
    </contour>
    <contour>
      <point x="419" y="477"/>
      <point x="436" y="494"/>
      <point x="456" y="494" type="curve" smooth="yes"/>
      <point x="477" y="494"/>
      <point x="494" y="477"/>
      <point x="494" y="456" type="curve" smooth="yes"/>
      <point x="494" y="436"/>
      <point x="477" y="419"/>
      <point x="456" y="419" type="curve" smooth="yes"/>
      <point x="436" y="419"/>
      <point x="419" y="436"/>
      <point x="419" y="456" type="curve" smooth="yes"/>
    </contour>
    <contour>
      <point x="186" y="75"/>
      <point x="203" y="92"/>
      <point x="224" y="92" type="curve" smooth="yes"/>
      <point x="245" y="92"/>
      <point x="262" y="75"/>
      <point x="262" y="55" type="curve" smooth="yes"/>
      <point x="262" y="34"/>
      <point x="245" y="16"/>
      <point x="224" y="16" type="curve" smooth="yes"/>
      <point x="203" y="16"/>
      <point x="186" y="34"/>
      <point x="186" y="55" type="curve" smooth="yes"/>
    </contour>
    <contour>
      <point x="102" y="392"/>
      <point x="119" y="409"/>
      <point x="140" y="409" type="curve" smooth="yes"/>
      <point x="161" y="409"/>
      <point x="178" y="392"/>
      <point x="178" y="371" type="curve" smooth="yes"/>
      <point x="178" y="350"/>
      <point x="161" y="333"/>
      <point x="140" y="333" type="curve" smooth="yes"/>
      <point x="119" y="333"/>
      <point x="102" y="350"/>
      <point x="102" y="371" type="curve" smooth="yes"/>
    </contour>
    <contour>
      <point x="504" y="160"/>
      <point x="521" y="177"/>
      <point x="542" y="177" type="curve" smooth="yes"/>
      <point x="562" y="177"/>
      <point x="579" y="160"/>
      <point x="579" y="139" type="curve" smooth="yes"/>
      <point x="579" y="118"/>
      <point x="562" y="101"/>
      <point x="542" y="101" type="curve" smooth="yes"/>
      <point x="521" y="101"/>
      <point x="504" y="118"/>
      <point x="504" y="139" type="curve" smooth="yes"/>
    </contour>
    <contour>
      <point x="186" y="477"/>
      <point x="203" y="494"/>
      <point x="224" y="494" type="curve" smooth="yes"/>
      <point x="245" y="494"/>
      <point x="262" y="477"/>
      <point x="262" y="456" type="curve" smooth="yes"/>
      <point x="262" y="436"/>
      <point x="245" y="419"/>
      <point x="224" y="419" type="curve" smooth="yes"/>
      <point x="203" y="419"/>
      <point x="186" y="436"/>
      <point x="186" y="456" type="curve" smooth="yes"/>
    </contour>
    <contour>
      <point x="419" y="75"/>
      <point x="436" y="92"/>
      <point x="456" y="92" type="curve" smooth="yes"/>
      <point x="477" y="92"/>
      <point x="494" y="75"/>
      <point x="494" y="55" type="curve" smooth="yes"/>
      <point x="494" y="34"/>
      <point x="477" y="16"/>
      <point x="456" y="16" type="curve" smooth="yes"/>
      <point x="436" y="16"/>
      <point x="419" y="34"/>
      <point x="419" y="55" type="curve" smooth="yes"/>
    </contour>
  </outline>
</glyph>
<glyph name="DoubleDanda" format="1">
  <advance width="370"/>
  <outline>
    <contour>
      <point x="205" y="514" type="line"/>
      <point x="205" y="-20" type="line"/>
      <point x="135" y="-20" type="line"/>
      <point x="135" y="514" type="line"/>
    </contour>
    <contour>
      <point x="334" y="514" type="line"/>
      <point x="334" y="-20" type="line"/>
      <point x="264" y="-20" type="line"/>
      <point x="264" y="514" type="line"/>
    </contour>
  </outline>
</glyph>
<glyph name="bAa" format="1">
  <advance width="772"/>
  <outline>
    <contour>
      <point x="359" y="67"/>
      <point x="418" y="140"/>
      <point x="418" y="233" type="curve"/>
      <point x="418" y="342"/>
      <point x="339" y="426"/>
      <point x="247" y="426" type="curve" smooth="yes"/>
      <point x="187" y="426"/>
      <point x="147" y="390"/>
      <point x="147" y="341" type="curve" smooth="yes"/>
      <point x="147" y="296"/>
      <point x="181" y="260"/>
      <point x="225" y="260" type="curve" smooth="yes"/>
      <point x="265" y="260"/>
      <point x="297" y="288"/>
      <point x="297" y="333" type="curve" smooth="yes"/>
      <point x="297" y="355"/>
      <point x="289" y="376"/>
      <point x="275" y="391" type="curve"/>
      <point x="262" y="347" type="line"/>
      <point x="270" y="349"/>
      <point x="279" y="350"/>
      <point x="286" y="350" type="curve" smooth="yes"/>
      <point x="327" y="350"/>
      <point x="357" y="315"/>
      <point x="357" y="271" type="curve" smooth="yes"/>
      <point x="357" y="214"/>
      <point x="309" y="172"/>
      <point x="242" y="172" type="curve" smooth="yes"/>
      <point x="175" y="172"/>
      <point x="111" y="216"/>
      <point x="37" y="417" type="curve"/>
      <point x="-8" y="399" type="line"/>
      <point x="63" y="175"/>
      <point x="154" y="67"/>
      <point x="267" y="67" type="curve" smooth="yes"/>
    </contour>
    <contour>
      <point x="536" y="0" type="line"/>
      <point x="536" y="466" type="line"/>
      <point x="466" y="466" type="line"/>
      <point x="466" y="107" type="line"/>
      <point x="505" y="73" type="line"/>
      <point x="479" y="151"/>
      <point x="431" y="222"/>
      <point x="389" y="259" type="curve"/>
      <point x="370" y="170" type="line"/>
      <point x="428" y="148"/>
      <point x="477" y="83"/>
      <point x="485" y="0" type="curve"/>
    </contour>
    <contour>
      <point x="581" y="456" type="line"/>
      <point x="581" y="514" type="line"/>
      <point x="-25" y="514" type="line"/>
      <point x="-25" y="456" type="line"/>
    </contour>
    <contour>
      <point x="718" y="0" type="line"/>
      <point x="718" y="456" type="line"/>
      <point x="798" y="456" type="line"/>
      <point x="798" y="514" type="line"/>
      <point x="670" y="514" type="line"/>
      <point x="648" y="374" type="line"/>
      <point x="678" y="392" type="line"/>
      <point x="668" y="468"/>
      <point x="649" y="514"/>
      <point x="609" y="514" type="curve" smooth="yes"/>
      <point x="558" y="514" type="line"/>
      <point x="558" y="456" type="line"/>
      <point x="597" y="456" type="line" smooth="yes"/>
      <point x="639" y="456"/>
      <point x="648" y="408"/>
      <point x="648" y="351" type="curve" smooth="yes"/>
      <point x="648" y="0" type="line"/>
    </contour>
  </outline>
</glyph>
<glyph name="bAnusvara" format="1">
  <advance width="328"/>
  <outline>
    <contour>
      <point x="309" y="25" type="line"/>
      <point x="241" y="144"/>
      <point x="161" y="227"/>
      <point x="67" y="272" type="curve"/>
      <point x="32" y="172" type="line"/>
      <point x="133" y="137"/>
      <point x="213" y="67"/>
      <point x="269" y="-10" type="curve"/>
    </contour>
    <contour>
      <point x="241" y="285"/>
      <point x="288" y="336"/>
      <point x="288" y="396" type="curve" smooth="yes"/>
      <point x="288" y="461"/>
      <point x="235" y="523"/>
      <point x="162" y="523" type="curve" smooth="yes"/>
      <point x="98" y="523"/>
      <point x="48" y="475"/>
      <point x="48" y="412" type="curve" smooth="yes"/>
      <point x="48" y="346"/>
      <point x="102" y="285"/>
      <point x="175" y="285" type="curve" smooth="yes"/>
    </contour>
    <contour>
      <point x="123" y="351"/>
      <point x="111" y="365"/>
      <point x="111" y="384" type="curve" smooth="yes"/>
      <point x="111" y="418"/>
      <point x="154" y="456"/>
      <point x="189" y="456" type="curve" smooth="yes"/>
      <point x="212" y="456"/>
      <point x="224" y="440"/>
      <point x="224" y="422" type="curve" smooth="yes"/>
      <point x="224" y="389"/>
      <point x="181" y="351"/>
      <point x="145" y="351" type="curve" smooth="yes"/>
    </contour>
  </outline>
</glyph>
<glyph name="bAu" format="1">
  <advance width="595"/>
  <outline>
    <contour>
      <point x="470" y="21"/>
      <point x="531" y="88"/>
      <point x="531" y="170" type="curve" smooth="yes"/>
      <point x="531" y="233"/>
      <point x="494" y="278"/>
      <point x="460" y="300" type="curve"/>
      <point x="444" y="248" type="line"/>
      <point x="483" y="267"/>
      <point x="511" y="320"/>
      <point x="511" y="371" type="curve" smooth="yes"/>
      <point x="511" y="449"/>
      <point x="442" y="523"/>
      <point x="345" y="523" type="curve" smooth="yes"/>
      <point x="245" y="523"/>
      <point x="150" y="446"/>
      <point x="150" y="359" type="curve" smooth="yes"/>
      <point x="150" y="306"/>
      <point x="185" y="267"/>
      <point x="227" y="267" type="curve" smooth="yes"/>
      <point x="263" y="267"/>
      <point x="292" y="294"/>
      <point x="292" y="331" type="curve" smooth="yes"/>
      <point x="292" y="374"/>
      <point x="252" y="409"/>
      <point x="204" y="398" type="curve"/>
      <point x="241" y="338" type="line"/>
      <point x="267" y="415"/>
      <point x="331" y="453"/>
      <point x="383" y="453" type="curve" smooth="yes"/>
      <point x="423" y="453"/>
      <point x="444" y="431"/>
      <point x="444" y="402" type="curve" smooth="yes"/>
      <point x="444" y="375"/>
      <point x="426" y="346"/>
      <point x="399" y="328" type="curve"/>
      <point x="460" y="296" type="line"/>
      <point x="444" y="327"/>
      <point x="418" y="352"/>
      <point x="382" y="352" type="curve" smooth="yes"/>
      <point x="342" y="352"/>
      <point x="314" y="321"/>
      <point x="314" y="285" type="curve" smooth="yes"/>
      <point x="314" y="247"/>
      <point x="344" y="217"/>
      <point x="384" y="217" type="curve" smooth="yes"/>
      <point x="420" y="217"/>
      <point x="450" y="242"/>
      <point x="466" y="267" type="curve"/>
      <point x="418" y="263" type="line"/>
      <point x="449" y="251"/>
      <point x="460" y="234"/>
      <point x="460" y="209" type="curve" smooth="yes"/>
      <point x="460" y="158"/>
      <point x="416" y="123"/>
      <point x="348" y="123" type="curve" smooth="yes"/>
      <point x="246" y="123"/>
      <point x="138" y="203"/>
      <point x="53" y="431" type="curve"/>
      <point x="6" y="410" type="line"/>
      <point x="98" y="150"/>
      <point x="232" y="21"/>
      <point x="370" y="21" type="curve" smooth="yes"/>
    </contour>
    <contour>
      <point x="546" y="288"/>
      <point x="583" y="356"/>
      <point x="583" y="429" type="curve" smooth="yes"/>
      <point x="583" y="531"/>
      <point x="511" y="622"/>
      <point x="371" y="655" type="curve" smooth="yes"/>
      <point x="279" y="678"/>
      <point x="188" y="685"/>
      <point x="188" y="722" type="curve" smooth="yes"/>
      <point x="188" y="733"/>
      <point x="197" y="747"/>
      <point x="211" y="762" type="curve"/>
      <point x="180" y="785" type="line"/>
      <point x="156" y="764"/>
      <point x="140" y="738"/>
      <point x="140" y="707" type="curve" smooth="yes"/>
      <point x="140" y="624"/>
      <point x="257" y="595"/>
      <point x="337" y="577" type="curve" smooth="yes"/>
      <point x="425" y="558"/>
      <point x="537" y="531"/>
      <point x="537" y="437" type="curve" smooth="yes"/>
      <point x="537" y="386"/>
      <point x="504" y="347"/>
      <point x="451" y="329" type="curve"/>
      <point x="452" y="246" type="line"/>
    </contour>
  </outline>
</glyph>
<glyph name="bAuMark" format="1">
  <advance width="191"/>
  <outline>
    <contour>
      <point x="124" y="593"/>
      <point x="74" y="657"/>
      <point x="-30" y="657" type="curve" smooth="yes"/>
      <point x="-81" y="657"/>
      <point x="-185" y="642"/>
      <point x="-237" y="642" type="curve" smooth="yes"/>
      <point x="-288" y="642"/>
      <point x="-310" y="657"/>
      <point x="-310" y="681" type="curve" smooth="yes"/>
      <point x="-310" y="695"/>
      <point x="-302" y="712"/>
      <point x="-290" y="728" type="curve"/>
      <point x="-328" y="751" type="line"/>
      <point x="-346" y="730"/>
      <point x="-361" y="704"/>
      <point x="-361" y="672" type="curve" smooth="yes"/>
      <point x="-361" y="607"/>
      <point x="-300" y="562"/>
      <point x="-210" y="562" type="curve" smooth="yes"/>
      <point x="-159" y="562"/>
      <point x="-22" y="577"/>
      <point x="21" y="577" type="curve" smooth="yes"/>
      <point x="60" y="577"/>
      <point x="73" y="565"/>
      <point x="73" y="539" type="curve" smooth="yes"/>
      <point x="73" y="529"/>
      <point x="71" y="518"/>
      <point x="66" y="509" type="curve"/>
      <point x="133" y="508" type="line"/>
    </contour>
    <contour>
      <point x="66" y="0" type="line"/>
      <point x="136" y="0" type="line"/>
      <point x="136" y="467" type="line"/>
      <point x="66" y="467" type="line"/>
    </contour>
    <contour>
      <point x="216" y="456" type="line"/>
      <point x="216" y="514" type="line"/>
      <point x="-25" y="514" type="line"/>
      <point x="-25" y="456" type="line"/>
    </contour>
  </outline>
</glyph>
<glyph name="bAuMarkReph" format="1">
  <advance width="191"/>
  <outline>
    <contour>
      <point x="124" y="593"/>
      <point x="74" y="657"/>
      <point x="-30" y="657" type="curve" smooth="yes"/>
      <point x="-81" y="657"/>
      <point x="-185" y="642"/>
      <point x="-237" y="642" type="curve" smooth="yes"/>
      <point x="-288" y="642"/>
      <point x="-310" y="657"/>
      <point x="-310" y="681" type="curve" smooth="yes"/>
      <point x="-310" y="695"/>
      <point x="-302" y="712"/>
      <point x="-290" y="728" type="curve"/>
      <point x="-328" y="751" type="line"/>
      <point x="-346" y="730"/>
      <point x="-361" y="704"/>
      <point x="-361" y="672" type="curve" smooth="yes"/>
      <point x="-361" y="608"/>
      <point x="-301" y="565"/>
      <point x="-209" y="565" type="curve" smooth="yes"/>
      <point x="-161" y="565"/>
      <point x="-20" y="577"/>
      <point x="21" y="577" type="curve" smooth="yes"/>
      <point x="61" y="577"/>
      <point x="73" y="565"/>
      <point x="73" y="539" type="curve" smooth="yes"/>
      <point x="73" y="529"/>
      <point x="71" y="518"/>
      <point x="66" y="509" type="curve"/>
      <point x="133" y="508" type="line"/>
    </contour>
    <contour>
      <point x="66" y="0" type="line"/>
      <point x="136" y="0" type="line"/>
      <point x="136" y="467" type="line"/>
      <point x="66" y="467" type="line"/>
    </contour>
    <contour>
      <point x="216" y="456" type="line"/>
      <point x="216" y="514" type="line"/>
      <point x="-25" y="514" type="line"/>
      <point x="-25" y="456" type="line"/>
    </contour>
    <contour>
      <point x="-160" y="533" type="line"/>
      <point x="-55" y="533" type="line"/>
      <point x="122" y="762" type="line"/>
      <point x="89" y="786" type="line"/>
    </contour>
  </outline>
</glyph>
<glyph name="bBBa" format="1">
  <advance width="726"/>
  <outline>
    <contour>
      <point x="671" y="0" type="line"/>
      <point x="671" y="466" type="line"/>
      <point x="601" y="466" type="line"/>
      <point x="601" y="72" type="line"/>
      <point x="642" y="49" type="line"/>
      <point x="598" y="161"/>
      <point x="498" y="250"/>
      <point x="388" y="279" type="curve"/>
      <point x="399" y="225" type="line"/>
      <point x="471" y="279"/>
      <point x="563" y="323"/>
      <point x="655" y="350" type="curve"/>
      <point x="627" y="442" type="line"/>
      <point x="536" y="421"/>
      <point x="410" y="358"/>
      <point x="317" y="291" type="curve"/>
      <point x="398" y="178" type="line"/>
      <point x="504" y="163"/>
      <point x="591" y="109"/>
      <point x="620" y="0" type="curve"/>
    </contour>
    <contour>
      <point x="369" y="24" type="line"/>
      <point x="369" y="466" type="line"/>
      <point x="299" y="466" type="line"/>
      <point x="299" y="88" type="line"/>
      <point x="331" y="65" type="line"/>
      <point x="299" y="179"/>
      <point x="194" y="254"/>
      <point x="81" y="277" type="curve"/>
      <point x="87" y="224" type="line"/>
      <point x="162" y="279"/>
      <point x="257" y="324"/>
      <point x="353" y="350" type="curve"/>
      <point x="325" y="442" type="line"/>
      <point x="230" y="422"/>
      <point x="98" y="362"/>
      <point x="2" y="291" type="curve"/>
      <point x="74" y="183" type="line"/>
      <point x="211" y="169"/>
      <point x="291" y="115"/>
      <point x="318" y="24" type="curve"/>
    </contour>
    <contour>
      <point x="450" y="456" type="line"/>
      <point x="450" y="514" type="line"/>
      <point x="-25" y="514" type="line"/>
      <point x="-25" y="456" type="line"/>
    </contour>
    <contour>
      <point x="751" y="456" type="line"/>
      <point x="751" y="514" type="line"/>
      <point x="301" y="514" type="line"/>
      <point x="301" y="456" type="line"/>
    </contour>
  </outline>
</glyph>
<glyph name="bBBha" format="1">
  <advance width="520"/>
  <outline>
    <contour>
      <point x="441" y="-73"/>
      <point x="514" y="2"/>
      <point x="514" y="104" type="curve" smooth="yes"/>
      <point x="514" y="176"/>
      <point x="479" y="238"/>
      <point x="444" y="269" type="curve"/>
      <point x="401" y="205"/>
      <point x="342" y="163"/>
      <point x="290" y="163" type="curve" smooth="yes"/>
      <point x="277" y="163"/>
      <point x="260" y="166"/>
      <point x="246" y="172" type="curve"/>
      <point x="263" y="127" type="line"/>
      <point x="285" y="139"/>
      <point x="296" y="154"/>
      <point x="296" y="176" type="curve" smooth="yes"/>
      <point x="296" y="209"/>
      <point x="270" y="232"/>
      <point x="241" y="232" type="curve" smooth="yes"/>
      <point x="209" y="232"/>
      <point x="184" y="206"/>
      <point x="184" y="173" type="curve" smooth="yes"/>
      <point x="184" y="128"/>
      <point x="230" y="86"/>
      <point x="300" y="86" type="curve" smooth="yes"/>
      <point x="381" y="86"/>
      <point x="448" y="142"/>
      <point x="481" y="195" type="curve"/>
      <point x="428" y="201" type="line"/>
      <point x="443" y="181"/>
      <point x="451" y="157"/>
      <point x="451" y="135" type="curve" smooth="yes"/>
      <point x="451" y="70"/>
      <point x="395" y="29"/>
      <point x="322" y="29" type="curve" smooth="yes"/>
      <point x="202" y="29"/>
      <point x="122" y="142"/>
      <point x="47" y="392" type="curve"/>
      <point x="-3" y="378" type="line"/>
      <point x="83" y="73"/>
      <point x="197" y="-73"/>
      <point x="339" y="-73" type="curve" smooth="yes"/>
    </contour>
    <contour>
      <point x="396" y="163" type="line"/>
      <point x="355" y="253"/>
      <point x="295" y="330"/>
      <point x="175" y="347" type="curve"/>
      <point x="205" y="297" type="line"/>
      <point x="258" y="332"/>
      <point x="324" y="357"/>
      <point x="384" y="371" type="curve"/>
      <point x="350" y="442" type="line"/>
      <point x="290" y="430"/>
      <point x="210" y="401"/>
      <point x="136" y="356" type="curve"/>
      <point x="189" y="274" type="line"/>
      <point x="269" y="265"/>
      <point x="323" y="235"/>
      <point x="354" y="163" type="curve"/>
    </contour>
    <contour>
      <point x="402" y="467" type="line"/>
      <point x="344" y="467" type="line"/>
      <point x="344" y="193" type="line"/>
      <point x="402" y="163" type="line"/>
    </contour>
    <contour>
      <point x="545" y="456" type="line"/>
      <point x="545" y="514" type="line"/>
      <point x="-25" y="514" type="line"/>
      <point x="-25" y="456" type="line"/>
    </contour>
  </outline>
</glyph>
<glyph name="bBDRa" format="1">
  <advance width="659"/>
  <outline>
    <contour>
      <point x="575" y="-54" type="line"/>
      <point x="562" y="5"/>
      <point x="557" y="63"/>
      <point x="557" y="107" type="curve" smooth="yes"/>
      <point x="557" y="193"/>
      <point x="577" y="259"/>
      <point x="635" y="335" type="curve"/>
      <point x="548" y="414" type="line"/>
      <point x="454" y="379"/>
      <point x="371" y="300"/>
      <point x="322" y="208" type="curve"/>
      <point x="358" y="161" type="line"/>
      <point x="358" y="467" type="line"/>
      <point x="288" y="467" type="line"/>
      <point x="288" y="151" type="line"/>
      <point x="365" y="112" type="line"/>
      <point x="421" y="210"/>
      <point x="491" y="277"/>
      <point x="560" y="313" type="curve"/>
      <point x="544" y="371" type="line"/>
      <point x="510" y="325"/>
      <point x="493" y="241"/>
      <point x="493" y="161" type="curve" smooth="yes"/>
      <point x="493" y="102"/>
      <point x="502" y="45"/>
      <point x="515" y="-18" type="curve"/>
      <point x="535" y="-11" type="line"/>
      <point x="508" y="44"/>
      <point x="449" y="78"/>
      <point x="386" y="78" type="curve" smooth="yes"/>
      <point x="351" y="78"/>
      <point x="225" y="69"/>
      <point x="181" y="69" type="curve" smooth="yes"/>
      <point x="115" y="69"/>
      <point x="85" y="90"/>
      <point x="85" y="132" type="curve" smooth="yes"/>
      <point x="85" y="148"/>
      <point x="90" y="167"/>
      <point x="95" y="181" type="curve"/>
      <point x="55" y="194" type="line"/>
      <point x="45" y="174"/>
      <point x="39" y="149"/>
      <point x="39" y="125" type="curve" smooth="yes"/>
      <point x="39" y="46"/>
      <point x="108" y="-17"/>
      <point x="215" y="-17" type="curve" smooth="yes"/>
      <point x="270" y="-17"/>
      <point x="386" y="-1"/>
      <point x="439" y="-1" type="curve" smooth="yes"/>
      <point x="487" y="-1"/>
      <point x="515" y="-16"/>
      <point x="525" y="-62" type="curve"/>
    </contour>
    <contour>
      <point x="319" y="171" type="line"/>
      <point x="276" y="256"/>
      <point x="191" y="313"/>
      <point x="86" y="331" type="curve"/>
      <point x="123" y="278" type="line"/>
      <point x="200" y="323"/>
      <point x="260" y="346"/>
      <point x="333" y="360" type="curve"/>
      <point x="313" y="441" type="line"/>
      <point x="246" y="429"/>
      <point x="146" y="395"/>
      <point x="49" y="342" type="curve"/>
      <point x="105" y="250" type="line"/>
      <point x="194" y="233"/>
      <point x="253" y="205"/>
      <point x="289" y="151" type="curve"/>
    </contour>
    <contour>
      <point x="497" y="456" type="line"/>
      <point x="497" y="514" type="line"/>
      <point x="-25" y="514" type="line"/>
      <point x="-25" y="456" type="line"/>
    </contour>
    <contour>
      <point x="685" y="456" type="line"/>
      <point x="685" y="514" type="line"/>
      <point x="221" y="514" type="line"/>
      <point x="221" y="456" type="line"/>
    </contour>
  </outline>
</glyph>
<glyph name="bBDa" format="1">
  <advance width="613"/>
  <outline>
    <contour>
      <point x="522" y="-7" type="line"/>
      <point x="513" y="47"/>
      <point x="509" y="100"/>
      <point x="509" y="136" type="curve" smooth="yes"/>
      <point x="509" y="212"/>
      <point x="529" y="268"/>
      <point x="589" y="333" type="curve"/>
      <point x="502" y="412" type="line"/>
      <point x="408" y="375"/>
      <point x="325" y="292"/>
      <point x="276" y="196" type="curve"/>
      <point x="312" y="158" type="line"/>
      <point x="312" y="467" type="line"/>
      <point x="242" y="467" type="line"/>
      <point x="242" y="138" type="line"/>
      <point x="319" y="86" type="line"/>
      <point x="374" y="196"/>
      <point x="444" y="270"/>
      <point x="514" y="310" type="curve"/>
      <point x="497" y="368" type="line"/>
      <point x="462" y="330"/>
      <point x="445" y="262"/>
      <point x="445" y="187" type="curve" smooth="yes"/>
      <point x="445" y="128"/>
      <point x="456" y="57"/>
      <point x="472" y="-15" type="curve"/>
    </contour>
    <contour>
      <point x="272" y="160" type="line"/>
      <point x="232" y="247"/>
      <point x="144" y="304"/>
      <point x="39" y="322" type="curve"/>
      <point x="76" y="269" type="line"/>
      <point x="153" y="319"/>
      <point x="213" y="344"/>
      <point x="286" y="360" type="curve"/>
      <point x="266" y="441" type="line"/>
      <point x="199" y="428"/>
      <point x="102" y="391"/>
      <point x="2" y="333" type="curve"/>
      <point x="58" y="240" type="line"/>
      <point x="147" y="228"/>
      <point x="209" y="195"/>
      <point x="242" y="138" type="curve"/>
    </contour>
    <contour>
      <point x="465" y="456" type="line"/>
      <point x="465" y="514" type="line"/>
      <point x="-25" y="514" type="line"/>
      <point x="-25" y="456" type="line"/>
    </contour>
    <contour>
      <point x="638" y="456" type="line"/>
      <point x="638" y="514" type="line"/>
      <point x="174" y="514" type="line"/>
      <point x="174" y="456" type="line"/>
    </contour>
  </outline>
</glyph>
<glyph name="bBDda" format="1">
  <advance width="605"/>
  <outline>
    <contour>
      <point x="510" y="-8"/>
      <point x="584" y="68"/>
      <point x="584" y="175" type="curve" smooth="yes"/>
      <point x="584" y="259"/>
      <point x="539" y="320"/>
      <point x="485" y="365" type="curve"/>
      <point x="442" y="288"/>
      <point x="396" y="240"/>
      <point x="372" y="240" type="curve" smooth="yes"/>
      <point x="363" y="240"/>
      <point x="359" y="247"/>
      <point x="359" y="258" type="curve" smooth="yes"/>
      <point x="359" y="466" type="line"/>
      <point x="296" y="466" type="line"/>
      <point x="296" y="281" type="line" smooth="yes"/>
      <point x="296" y="222"/>
      <point x="348" y="163"/>
      <point x="399" y="163" type="curve" smooth="yes"/>
      <point x="443" y="163"/>
      <point x="498" y="207"/>
      <point x="531" y="275" type="curve"/>
      <point x="478" y="297" type="line"/>
      <point x="507" y="277"/>
      <point x="523" y="240"/>
      <point x="523" y="208" type="curve" smooth="yes"/>
      <point x="523" y="147"/>
      <point x="466" y="92"/>
      <point x="373" y="92" type="curve" smooth="yes"/>
      <point x="264" y="92"/>
      <point x="139" y="169"/>
      <point x="41" y="419" type="curve"/>
      <point x="-5" y="399" type="line"/>
      <point x="100" y="108"/>
      <point x="251" y="-8"/>
      <point x="394" y="-8" type="curve" smooth="yes"/>
    </contour>
    <contour>
      <point x="341" y="233" type="line"/>
      <point x="309" y="284"/>
      <point x="252" y="321"/>
      <point x="162" y="339" type="curve"/>
      <point x="186" y="316" type="line"/>
      <point x="237" y="347"/>
      <point x="286" y="366"/>
      <point x="329" y="379" type="curve"/>
      <point x="306" y="447" type="line"/>
      <point x="234" y="427"/>
      <point x="185" y="404"/>
      <point x="111" y="363" type="curve"/>
      <point x="167" y="272" type="line"/>
      <point x="240" y="264"/>
      <point x="294" y="244"/>
      <point x="322" y="208" type="curve"/>
    </contour>
    <contour>
      <point x="630" y="456" type="line"/>
      <point x="630" y="514" type="line"/>
      <point x="-25" y="514" type="line"/>
      <point x="-25" y="456" type="line"/>
    </contour>
  </outline>
</glyph>
<glyph name="bBDdha" format="1">
  <advance width="605"/>
  <outline>
    <contour>
      <point x="449" y="2"/>
      <point x="571" y="155"/>
      <point x="571" y="264" type="curve" smooth="yes"/>
      <point x="571" y="326"/>
      <point x="531" y="379"/>
      <point x="473" y="379" type="curve" smooth="yes"/>
      <point x="425" y="379"/>
      <point x="392" y="344"/>
      <point x="392" y="302" type="curve" smooth="yes"/>
      <point x="392" y="260"/>
      <point x="426" y="227"/>
      <point x="472" y="227" type="curve" smooth="yes"/>
      <point x="490" y="227"/>
      <point x="504" y="232"/>
      <point x="516" y="243" type="curve"/>
      <point x="478" y="287" type="line"/>
      <point x="478" y="210"/>
      <point x="388" y="85"/>
      <point x="334" y="85" type="curve" smooth="yes"/>
      <point x="319" y="85"/>
      <point x="312" y="96"/>
      <point x="312" y="128" type="curve" smooth="yes"/>
      <point x="312" y="475" type="line"/>
      <point x="242" y="475" type="line"/>
      <point x="242" y="160" type="line" smooth="yes"/>
      <point x="242" y="68"/>
      <point x="306" y="2"/>
      <point x="363" y="2" type="curve" smooth="yes"/>
    </contour>
    <contour>
      <point x="272" y="160" type="line"/>
      <point x="230" y="247"/>
      <point x="140" y="304"/>
      <point x="32" y="322" type="curve"/>
      <point x="76" y="269" type="line"/>
      <point x="153" y="319"/>
      <point x="213" y="344"/>
      <point x="286" y="360" type="curve"/>
      <point x="266" y="441" type="line"/>
      <point x="199" y="428"/>
      <point x="102" y="391"/>
      <point x="2" y="333" type="curve"/>
      <point x="58" y="240" type="line"/>
      <point x="151" y="227"/>
      <point x="216" y="191"/>
      <point x="246" y="131" type="curve"/>
    </contour>
    <contour>
      <point x="630" y="456" type="line"/>
      <point x="630" y="514" type="line"/>
      <point x="-25" y="514" type="line"/>
      <point x="-25" y="456" type="line"/>
    </contour>
  </outline>
</glyph>
<glyph name="bBDha" format="1">
  <advance width="544"/>
  <outline>
    <contour>
      <point x="355" y="-58" type="line"/>
      <point x="355" y="468" type="line"/>
      <point x="285" y="467" type="line"/>
      <point x="285" y="20" type="line"/>
      <point x="325" y="-21" type="line"/>
      <point x="294" y="64"/>
      <point x="205" y="135"/>
      <point x="103" y="143" type="curve"/>
      <point x="138" y="90" type="line"/>
      <point x="220" y="152"/>
      <point x="276" y="183"/>
      <point x="343" y="213" type="curve"/>
      <point x="320" y="294" type="line"/>
      <point x="259" y="270"/>
      <point x="170" y="222"/>
      <point x="62" y="143" type="curve"/>
      <point x="121" y="62" type="line"/>
      <point x="214" y="59"/>
      <point x="286" y="16"/>
      <point x="305" y="-58" type="curve"/>
    </contour>
    <contour>
      <point x="222" y="192" type="line"/>
      <point x="171" y="244"/>
      <point x="122" y="275"/>
      <point x="61" y="284" type="curve"/>
      <point x="88" y="239" type="line"/>
      <point x="172" y="303"/>
      <point x="258" y="342"/>
      <point x="336" y="362" type="curve"/>
      <point x="310" y="443" type="line"/>
      <point x="215" y="420"/>
      <point x="109" y="369"/>
      <point x="7" y="293" type="curve"/>
      <point x="66" y="211" type="line"/>
      <point x="119" y="210"/>
      <point x="164" y="195"/>
      <point x="194" y="165" type="curve"/>
    </contour>
    <contour>
      <point x="529" y="-12" type="line"/>
      <point x="510" y="4"/>
      <point x="499" y="25"/>
      <point x="499" y="49" type="curve" smooth="yes"/>
      <point x="499" y="205" type="line" smooth="yes"/>
      <point x="499" y="257"/>
      <point x="446" y="325"/>
      <point x="405" y="325" type="curve" smooth="yes"/>
      <point x="388" y="325"/>
      <point x="352" y="313"/>
      <point x="314" y="292" type="curve"/>
      <point x="346" y="215" type="line"/>
      <point x="374" y="233"/>
      <point x="407" y="248"/>
      <point x="421" y="248" type="curve" smooth="yes"/>
      <point x="428" y="248"/>
      <point x="431" y="244"/>
      <point x="431" y="233" type="curve" smooth="yes"/>
      <point x="431" y="69" type="line" smooth="yes"/>
      <point x="431" y="10"/>
      <point x="461" y="-20"/>
      <point x="505" y="-46" type="curve"/>
    </contour>
    <contour>
      <point x="569" y="456" type="line"/>
      <point x="569" y="514" type="line"/>
      <point x="-25" y="514" type="line"/>
      <point x="-25" y="456" type="line"/>
    </contour>
  </outline>
</glyph>
<glyph name="bBJa" format="1">
  <advance width="712"/>
  <outline>
    <contour>
      <point x="467" y="-8"/>
      <point x="529" y="59"/>
      <point x="529" y="150" type="curve" smooth="yes"/>
      <point x="529" y="222"/>
      <point x="490" y="276"/>
      <point x="444" y="314" type="curve"/>
      <point x="413" y="260"/>
      <point x="381" y="227"/>
      <point x="362" y="227" type="curve" smooth="yes"/>
      <point x="354" y="227"/>
      <point x="349" y="233"/>
      <point x="349" y="245" type="curve" smooth="yes"/>
      <point x="349" y="466" type="line"/>
      <point x="286" y="466" type="line"/>
      <point x="286" y="263" type="line" smooth="yes"/>
      <point x="286" y="198"/>
      <point x="332" y="147"/>
      <point x="380" y="147" type="curve" smooth="yes"/>
      <point x="426" y="147"/>
      <point x="468" y="197"/>
      <point x="492" y="243" type="curve"/>
      <point x="436" y="249" type="line"/>
      <point x="456" y="230"/>
      <point x="469" y="207"/>
      <point x="469" y="181" type="curve" smooth="yes"/>
      <point x="469" y="129"/>
      <point x="421" y="90"/>
      <point x="348" y="90" type="curve" smooth="yes"/>
      <point x="246" y="90"/>
      <point x="132" y="165"/>
      <point x="41" y="419" type="curve"/>
      <point x="-5" y="399" type="line"/>
      <point x="103" y="83"/>
      <point x="253" y="-8"/>
      <point x="368" y="-8" type="curve" smooth="yes"/>
    </contour>
    <contour>
      <point x="322" y="229" type="line"/>
      <point x="292" y="278"/>
      <point x="239" y="317"/>
      <point x="154" y="335" type="curve"/>
      <point x="178" y="308" type="line"/>
      <point x="229" y="342"/>
      <point x="277" y="365"/>
      <point x="319" y="379" type="curve"/>
      <point x="297" y="447" type="line"/>
      <point x="225" y="424"/>
      <point x="176" y="399"/>
      <point x="103" y="353" type="curve"/>
      <point x="159" y="266" type="line"/>
      <point x="228" y="261"/>
      <point x="278" y="241"/>
      <point x="301" y="204" type="curve"/>
    </contour>
    <contour>
      <point x="633" y="-27" type="line"/>
      <point x="622" y="37"/>
      <point x="619" y="105"/>
      <point x="619" y="141" type="curve" smooth="yes"/>
      <point x="619" y="214"/>
      <point x="634" y="268"/>
      <point x="684" y="325" type="curve"/>
      <point x="605" y="418" type="line"/>
      <point x="575" y="399"/>
      <point x="540" y="390"/>
      <point x="506" y="390" type="curve" smooth="yes"/>
      <point x="447" y="390"/>
      <point x="384" y="415"/>
      <point x="335" y="481" type="curve"/>
      <point x="309" y="454" type="line"/>
      <point x="388" y="353"/>
      <point x="466" y="317"/>
      <point x="542" y="317" type="curve" smooth="yes"/>
      <point x="581" y="317"/>
      <point x="613" y="326"/>
      <point x="647" y="346" type="curve"/>
      <point x="607" y="379" type="line"/>
      <point x="574" y="336"/>
      <point x="556" y="264"/>
      <point x="556" y="188" type="curve" smooth="yes"/>
      <point x="556" y="136"/>
      <point x="564" y="58"/>
      <point x="583" y="-35" type="curve"/>
    </contour>
    <contour>
      <point x="737" y="456" type="line"/>
      <point x="737" y="514" type="line"/>
      <point x="-25" y="514" type="line"/>
      <point x="-25" y="456" type="line"/>
    </contour>
  </outline>
</glyph>
<glyph name="bBJha" format="1">
  <advance width="546"/>
  <outline>
    <contour>
      <point x="355" y="-58" type="line"/>
      <point x="355" y="468" type="line"/>
      <point x="285" y="467" type="line"/>
      <point x="285" y="20" type="line"/>
      <point x="325" y="-21" type="line"/>
      <point x="294" y="64"/>
      <point x="205" y="135"/>
      <point x="103" y="143" type="curve"/>
      <point x="138" y="90" type="line"/>
      <point x="220" y="153"/>
      <point x="275" y="183"/>
      <point x="343" y="209" type="curve"/>
      <point x="320" y="293" type="line"/>
      <point x="259" y="270"/>
      <point x="170" y="223"/>
      <point x="62" y="143" type="curve"/>
      <point x="121" y="62" type="line"/>
      <point x="214" y="59"/>
      <point x="286" y="16"/>
      <point x="305" y="-58" type="curve"/>
    </contour>
    <contour>
      <point x="222" y="192" type="line"/>
      <point x="171" y="244"/>
      <point x="122" y="275"/>
      <point x="61" y="284" type="curve"/>
      <point x="88" y="239" type="line"/>
      <point x="172" y="303"/>
      <point x="258" y="342"/>
      <point x="336" y="362" type="curve"/>
      <point x="310" y="443" type="line"/>
      <point x="215" y="420"/>
      <point x="109" y="369"/>
      <point x="7" y="293" type="curve"/>
      <point x="66" y="211" type="line"/>
      <point x="119" y="210"/>
      <point x="164" y="195"/>
      <point x="194" y="165" type="curve"/>
    </contour>
    <contour>
      <point x="355" y="456" type="line"/>
      <point x="355" y="514" type="line"/>
      <point x="-25" y="514" type="line"/>
      <point x="-25" y="456" type="line"/>
    </contour>
    <contour>
      <point x="491" y="-19" type="line"/>
      <point x="491" y="456" type="line"/>
      <point x="571" y="456" type="line"/>
      <point x="571" y="514" type="line"/>
      <point x="421" y="514" type="line"/>
      <point x="421" y="57" type="line"/>
      <point x="461" y="24" type="line"/>
      <point x="440" y="92"/>
      <point x="400" y="146"/>
      <point x="340" y="184" type="curve"/>
      <point x="345" y="95" type="line"/>
      <point x="406" y="77"/>
      <point x="434" y="38"/>
      <point x="440" y="-19" type="curve"/>
    </contour>
  </outline>
</glyph>
<glyph name="bBLa" format="1">
  <advance width="439"/>
  <outline>
    <contour>
      <point x="384" y="40" type="line"/>
      <point x="384" y="466" type="line"/>
      <point x="314" y="466" type="line"/>
      <point x="314" y="109" type="line"/>
      <point x="346" y="86" type="line"/>
      <point x="316" y="191"/>
      <point x="218" y="263"/>
      <point x="96" y="284" type="curve"/>
      <point x="102" y="231" type="line"/>
      <point x="177" y="284"/>
      <point x="272" y="325"/>
      <point x="368" y="350" type="curve"/>
      <point x="340" y="442" type="line"/>
      <point x="245" y="423"/>
      <point x="113" y="366"/>
      <point x="17" y="299" type="curve"/>
      <point x="89" y="190" type="line"/>
      <point x="226" y="182"/>
      <point x="328" y="114"/>
      <point x="328" y="40" type="curve"/>
    </contour>
    <contour>
      <point x="173" y="-96"/>
      <point x="195" y="-71"/>
      <point x="195" y="-43" type="curve" smooth="yes"/>
      <point x="195" y="-17"/>
      <point x="176" y="4"/>
      <point x="151" y="4" type="curve" smooth="yes"/>
      <point x="127" y="4"/>
      <point x="110" y="-13"/>
      <point x="110" y="-35" type="curve" smooth="yes"/>
      <point x="110" y="-55"/>
      <point x="125" y="-73"/>
      <point x="148" y="-75" type="curve"/>
      <point x="152" y="-38" type="line"/>
      <point x="142" y="-47"/>
      <point x="130" y="-51"/>
      <point x="122" y="-51" type="curve" smooth="yes"/>
      <point x="106" y="-51"/>
      <point x="96" y="-32"/>
      <point x="96" y="-15" type="curve" smooth="yes"/>
      <point x="96" y="14"/>
      <point x="122" y="35"/>
      <point x="153" y="35" type="curve" smooth="yes"/>
      <point x="188" y="35"/>
      <point x="209" y="12"/>
      <point x="219" y="-29" type="curve"/>
      <point x="249" y="-29" type="line"/>
      <point x="249" y="2"/>
      <point x="262" y="20"/>
      <point x="282" y="20" type="curve" smooth="yes"/>
      <point x="308" y="20"/>
      <point x="330" y="-7"/>
      <point x="333" y="-56" type="curve"/>
      <point x="384" y="-56" type="line"/>
      <point x="384" y="50" type="line"/>
      <point x="328" y="50" type="line"/>
      <point x="328" y="-1" type="line"/>
      <point x="353" y="-37" type="line"/>
      <point x="342" y="34"/>
      <point x="297" y="92"/>
      <point x="255" y="92" type="curve" smooth="yes"/>
      <point x="228" y="92"/>
      <point x="200" y="67"/>
      <point x="200" y="32" type="curve"/>
      <point x="234" y="8" type="line"/>
      <point x="222" y="67"/>
      <point x="184" y="112"/>
      <point x="127" y="112" type="curve" smooth="yes"/>
      <point x="74" y="112"/>
      <point x="30" y="71"/>
      <point x="30" y="16" type="curve" smooth="yes"/>
      <point x="30" y="-44"/>
      <point x="79" y="-96"/>
      <point x="135" y="-96" type="curve" smooth="yes"/>
    </contour>
    <contour>
      <point x="464" y="456" type="line"/>
      <point x="464" y="514" type="line"/>
      <point x="-25" y="514" type="line"/>
      <point x="-25" y="456" type="line"/>
    </contour>
  </outline>
</glyph>
<glyph name="bBRa" format="1">
  <advance width="479"/>
  <outline>
    <contour>
      <point x="423" y="49" type="line"/>
      <point x="423" y="466" type="line"/>
      <point x="353" y="466" type="line"/>
      <point x="353" y="113" type="line"/>
      <point x="385" y="90" type="line"/>
      <point x="357" y="195"/>
      <point x="255" y="266"/>
      <point x="135" y="287" type="curve"/>
      <point x="141" y="234" type="line"/>
      <point x="216" y="285"/>
      <point x="311" y="326"/>
      <point x="407" y="350" type="curve"/>
      <point x="379" y="442" type="line"/>
      <point x="284" y="423"/>
      <point x="152" y="367"/>
      <point x="56" y="301" type="curve"/>
      <point x="128" y="193" type="line"/>
      <point x="260" y="181"/>
      <point x="359" y="131"/>
      <point x="364" y="49" type="curve"/>
    </contour>
    <contour>
      <point x="424" y="-31" type="line"/>
      <point x="424" y="141" type="line"/>
      <point x="365" y="141" type="line"/>
      <point x="365" y="38" type="line"/>
      <point x="390" y="3" type="line"/>
      <point x="369" y="73"/>
      <point x="319" y="115"/>
      <point x="251" y="115" type="curve" smooth="yes"/>
      <point x="226" y="115"/>
      <point x="169" y="109"/>
      <point x="140" y="109" type="curve" smooth="yes"/>
      <point x="93" y="109"/>
      <point x="69" y="127"/>
      <point x="69" y="163" type="curve" smooth="yes"/>
      <point x="69" y="178"/>
      <point x="74" y="198"/>
      <point x="79" y="214" type="curve"/>
      <point x="39" y="229" type="line"/>
      <point x="28" y="206"/>
      <point x="23" y="178"/>
      <point x="23" y="157" type="curve" smooth="yes"/>
      <point x="23" y="81"/>
      <point x="83" y="25"/>
      <point x="169" y="25" type="curve" smooth="yes"/>
      <point x="206" y="25"/>
      <point x="266" y="35"/>
      <point x="299" y="35" type="curve" smooth="yes"/>
      <point x="349" y="35"/>
      <point x="370" y="10"/>
      <point x="372" y="-31" type="curve"/>
    </contour>
    <contour>
      <point x="504" y="456" type="line"/>
      <point x="504" y="514" type="line"/>
      <point x="-25" y="514" type="line"/>
      <point x="-25" y="456" type="line"/>
    </contour>
  </outline>
</glyph>
<glyph name="bBRa_bSignU" format="1">
  <advance width="656"/>
  <outline>
    <contour>
      <point x="423" y="49" type="line"/>
      <point x="423" y="466" type="line"/>
      <point x="353" y="466" type="line"/>
      <point x="353" y="113" type="line"/>
      <point x="385" y="90" type="line"/>
      <point x="357" y="195"/>
      <point x="255" y="266"/>
      <point x="135" y="287" type="curve"/>
      <point x="141" y="234" type="line"/>
      <point x="216" y="285"/>
      <point x="311" y="326"/>
      <point x="407" y="350" type="curve"/>
      <point x="379" y="442" type="line"/>
      <point x="284" y="423"/>
      <point x="152" y="367"/>
      <point x="56" y="301" type="curve"/>
      <point x="128" y="193" type="line"/>
      <point x="260" y="181"/>
      <point x="359" y="131"/>
      <point x="364" y="49" type="curve"/>
    </contour>
    <contour>
      <point x="424" y="-31" type="line"/>
      <point x="424" y="141" type="line"/>
      <point x="365" y="141" type="line"/>
      <point x="365" y="38" type="line"/>
      <point x="390" y="3" type="line"/>
      <point x="369" y="73"/>
      <point x="319" y="115"/>
      <point x="251" y="115" type="curve" smooth="yes"/>
      <point x="226" y="115"/>
      <point x="169" y="109"/>
      <point x="140" y="109" type="curve" smooth="yes"/>
      <point x="93" y="109"/>
      <point x="69" y="127"/>
      <point x="69" y="163" type="curve" smooth="yes"/>
      <point x="69" y="178"/>
      <point x="74" y="199"/>
      <point x="79" y="214" type="curve"/>
      <point x="39" y="229" type="line"/>
      <point x="28" y="206"/>
      <point x="23" y="178"/>
      <point x="23" y="157" type="curve" smooth="yes"/>
      <point x="23" y="81"/>
      <point x="83" y="25"/>
      <point x="169" y="25" type="curve" smooth="yes"/>
      <point x="206" y="25"/>
      <point x="266" y="35"/>
      <point x="299" y="35" type="curve" smooth="yes"/>
      <point x="349" y="35"/>
      <point x="370" y="10"/>
      <point x="372" y="-31" type="curve"/>
    </contour>
    <contour>
      <point x="586" y="158"/>
      <point x="630" y="205"/>
      <point x="630" y="270" type="curve" smooth="yes"/>
      <point x="630" y="339"/>
      <point x="581" y="399"/>
      <point x="524" y="399" type="curve" smooth="yes"/>
      <point x="486" y="399"/>
      <point x="459" y="373"/>
      <point x="459" y="340" type="curve" smooth="yes"/>
      <point x="459" y="307"/>
      <point x="486" y="283"/>
      <point x="517" y="283" type="curve" smooth="yes"/>
      <point x="547" y="283"/>
      <point x="568" y="305"/>
      <point x="568" y="331" type="curve" smooth="yes"/>
      <point x="568" y="342"/>
      <point x="564" y="353"/>
      <point x="557" y="359" type="curve"/>
      <point x="533" y="331" type="line"/>
      <point x="540" y="333"/>
      <point x="547" y="334"/>
      <point x="552" y="334" type="curve" smooth="yes"/>
      <point x="570" y="334"/>
      <point x="582" y="317"/>
      <point x="582" y="296" type="curve" smooth="yes"/>
      <point x="582" y="264"/>
      <point x="555" y="239"/>
      <point x="517" y="239" type="curve" smooth="yes"/>
      <point x="482" y="239"/>
      <point x="440" y="262"/>
      <point x="417" y="320" type="curve"/>
      <point x="394" y="294" type="line"/>
      <point x="424" y="207"/>
      <point x="472" y="158"/>
      <point x="530" y="158" type="curve" smooth="yes"/>
    </contour>
    <contour>
      <point x="681" y="456" type="line"/>
      <point x="681" y="514" type="line"/>
      <point x="-25" y="514" type="line"/>
      <point x="-25" y="456" type="line"/>
    </contour>
  </outline>
</glyph>
<glyph name="bBRa_bSignUu" format="1">
  <advance width="628"/>
  <outline>
    <contour>
      <point x="423" y="49" type="line"/>
      <point x="423" y="466" type="line"/>
      <point x="353" y="466" type="line"/>
      <point x="353" y="113" type="line"/>
      <point x="385" y="90" type="line"/>
      <point x="357" y="195"/>
      <point x="255" y="266"/>
      <point x="135" y="287" type="curve"/>
      <point x="141" y="234" type="line"/>
      <point x="216" y="285"/>
      <point x="311" y="326"/>
      <point x="407" y="350" type="curve"/>
      <point x="379" y="442" type="line"/>
      <point x="284" y="423"/>
      <point x="152" y="367"/>
      <point x="56" y="301" type="curve"/>
      <point x="128" y="193" type="line"/>
      <point x="260" y="181"/>
      <point x="359" y="131"/>
      <point x="364" y="49" type="curve"/>
    </contour>
    <contour>
      <point x="424" y="-31" type="line"/>
      <point x="424" y="141" type="line"/>
      <point x="365" y="141" type="line"/>
      <point x="365" y="38" type="line"/>
      <point x="390" y="3" type="line"/>
      <point x="369" y="73"/>
      <point x="319" y="115"/>
      <point x="251" y="115" type="curve" smooth="yes"/>
      <point x="226" y="115"/>
      <point x="169" y="109"/>
      <point x="140" y="109" type="curve" smooth="yes"/>
      <point x="93" y="109"/>
      <point x="69" y="127"/>
      <point x="69" y="163" type="curve" smooth="yes"/>
      <point x="69" y="178"/>
      <point x="74" y="198"/>
      <point x="79" y="214" type="curve"/>
      <point x="39" y="229" type="line"/>
      <point x="28" y="206"/>
      <point x="23" y="178"/>
      <point x="23" y="157" type="curve" smooth="yes"/>
      <point x="23" y="81"/>
      <point x="83" y="25"/>
      <point x="169" y="25" type="curve" smooth="yes"/>
      <point x="206" y="25"/>
      <point x="266" y="35"/>
      <point x="299" y="35" type="curve" smooth="yes"/>
      <point x="349" y="35"/>
      <point x="370" y="10"/>
      <point x="372" y="-31" type="curve"/>
    </contour>
    <contour>
      <point x="596" y="26" type="line"/>
      <point x="578" y="42"/>
      <point x="567" y="63"/>
      <point x="567" y="87" type="curve" smooth="yes"/>
      <point x="567" y="285" type="line" smooth="yes"/>
      <point x="567" y="335"/>
      <point x="515" y="400"/>
      <point x="475" y="400" type="curve" smooth="yes"/>
      <point x="455" y="400"/>
      <point x="419" y="384"/>
      <point x="385" y="352" type="curve"/>
      <point x="415" y="278" type="line"/>
      <point x="440" y="303"/>
      <point x="475" y="324"/>
      <point x="490" y="324" type="curve" smooth="yes"/>
      <point x="496" y="324"/>
      <point x="499" y="319"/>
      <point x="499" y="308" type="curve" smooth="yes"/>
      <point x="499" y="107" type="line" smooth="yes"/>
      <point x="499" y="48"/>
      <point x="529" y="18"/>
      <point x="573" y="-8" type="curve"/>
    </contour>
    <contour>
      <point x="638" y="456" type="line"/>
      <point x="638" y="514" type="line"/>
      <point x="-25" y="514" type="line"/>
      <point x="-25" y="456" type="line"/>
    </contour>
  </outline>
</glyph>
<glyph name="bBaphala" format="1">
  <advance width="0"/>
  <outline>
    <contour>
      <point x="-56" y="-121" type="line"/>
      <point x="-56" y="112" type="line"/>
      <point x="-101" y="154" type="line"/>
      <point x="-186" y="122"/>
      <point x="-240" y="96"/>
      <point x="-326" y="43" type="curve"/>
      <point x="-265" y="-46" type="line"/>
      <point x="-185" y="-57"/>
      <point x="-127" y="-76"/>
      <point x="-106" y="-121" type="curve"/>
    </contour>
    <contour>
      <point x="-88" y="-87" type="line"/>
      <point x="-119" y="-30"/>
      <point x="-178" y="11"/>
      <point x="-269" y="32" type="curve"/>
      <point x="-242" y="-6" type="line"/>
      <point x="-181" y="35"/>
      <point x="-124" y="60"/>
      <point x="-74" y="76" type="curve"/>
      <point x="-118" y="89" type="line"/>
      <point x="-118" y="-65" type="line"/>
    </contour>
  </outline>
</glyph>
<glyph name="bBhBa" format="1">
  <advance width="406"/>
  <outline>
    <contour>
      <point x="431" y="456" type="line"/>
      <point x="431" y="514" type="line"/>
      <point x="-25" y="514" type="line"/>
      <point x="-25" y="456" type="line"/>
    </contour>
    <contour>
      <point x="361" y="179" type="line"/>
      <point x="361" y="250" type="line" smooth="yes"/>
      <point x="361" y="319"/>
      <point x="328" y="379"/>
      <point x="283" y="409" type="curve"/>
      <point x="239" y="357"/>
      <point x="185" y="319"/>
      <point x="136" y="319" type="curve" smooth="yes"/>
      <point x="124" y="319"/>
      <point x="112" y="322"/>
      <point x="102" y="327" type="curve"/>
      <point x="133" y="276" type="line"/>
      <point x="153" y="290"/>
      <point x="166" y="311"/>
      <point x="166" y="338" type="curve" smooth="yes"/>
      <point x="166" y="385"/>
      <point x="131" y="411"/>
      <point x="94" y="411" type="curve" smooth="yes"/>
      <point x="53" y="411"/>
      <point x="17" y="378"/>
      <point x="17" y="333" type="curve" smooth="yes"/>
      <point x="17" y="281"/>
      <point x="63" y="231"/>
      <point x="138" y="231" type="curve" smooth="yes"/>
      <point x="214" y="231"/>
      <point x="294" y="281"/>
      <point x="331" y="332" type="curve"/>
      <point x="268" y="332" type="line"/>
      <point x="279" y="322"/>
      <point x="291" y="299"/>
      <point x="291" y="268" type="curve" smooth="yes"/>
      <point x="291" y="179" type="line"/>
    </contour>
    <contour>
      <point x="361" y="-108" type="line"/>
      <point x="361" y="222" type="line"/>
      <point x="291" y="221" type="line"/>
      <point x="291" y="-48" type="line"/>
      <point x="331" y="-78" type="line"/>
      <point x="298" y="15"/>
      <point x="203" y="91"/>
      <point x="95" y="109" type="curve"/>
      <point x="130" y="60" type="line"/>
      <point x="198" y="103"/>
      <point x="276" y="139"/>
      <point x="349" y="165" type="curve"/>
      <point x="322" y="247" type="line"/>
      <point x="257" y="224"/>
      <point x="158" y="182"/>
      <point x="53" y="118" type="curve"/>
      <point x="112" y="28" type="line"/>
      <point x="213" y="16"/>
      <point x="284" y="-31"/>
      <point x="309" y="-108" type="curve"/>
    </contour>
  </outline>
</glyph>
<glyph name="bBhLa" format="1">
  <advance width="516"/>
  <outline>
    <contour>
      <point x="413" y="63"/>
      <point x="480" y="133"/>
      <point x="480" y="233" type="curve" smooth="yes"/>
      <point x="480" y="304"/>
      <point x="446" y="373"/>
      <point x="394" y="415" type="curve"/>
      <point x="362" y="363"/>
      <point x="319" y="326"/>
      <point x="277" y="326" type="curve" smooth="yes"/>
      <point x="267" y="326"/>
      <point x="255" y="328"/>
      <point x="245" y="333" type="curve"/>
      <point x="274" y="282" type="line"/>
      <point x="293" y="296"/>
      <point x="306" y="318"/>
      <point x="306" y="345" type="curve" smooth="yes"/>
      <point x="306" y="389"/>
      <point x="272" y="415"/>
      <point x="235" y="415" type="curve" smooth="yes"/>
      <point x="192" y="415"/>
      <point x="159" y="380"/>
      <point x="159" y="337" type="curve" smooth="yes"/>
      <point x="159" y="285"/>
      <point x="207" y="236"/>
      <point x="280" y="236" type="curve" smooth="yes"/>
      <point x="351" y="236"/>
      <point x="413" y="286"/>
      <point x="443" y="339" type="curve"/>
      <point x="381" y="343" type="line"/>
      <point x="403" y="325"/>
      <point x="416" y="298"/>
      <point x="416" y="268" type="curve" smooth="yes"/>
      <point x="416" y="207"/>
      <point x="365" y="164"/>
      <point x="292" y="164" type="curve" smooth="yes"/>
      <point x="183" y="164"/>
      <point x="106" y="258"/>
      <point x="47" y="422" type="curve"/>
      <point x="-2" y="405" type="line"/>
      <point x="75" y="179"/>
      <point x="187" y="63"/>
      <point x="314" y="63" type="curve" smooth="yes"/>
    </contour>
    <contour>
      <point x="201" y="-157"/>
      <point x="225" y="-133"/>
      <point x="225" y="-104" type="curve" smooth="yes"/>
      <point x="225" y="-78"/>
      <point x="206" y="-57"/>
      <point x="181" y="-57" type="curve" smooth="yes"/>
      <point x="156" y="-57"/>
      <point x="137" y="-75"/>
      <point x="137" y="-98" type="curve" smooth="yes"/>
      <point x="137" y="-119"/>
      <point x="152" y="-137"/>
      <point x="175" y="-139" type="curve"/>
      <point x="179" y="-102" type="line"/>
      <point x="169" y="-108"/>
      <point x="159" y="-110"/>
      <point x="152" y="-110" type="curve" smooth="yes"/>
      <point x="133" y="-110"/>
      <point x="119" y="-92"/>
      <point x="119" y="-71" type="curve" smooth="yes"/>
      <point x="119" y="-43"/>
      <point x="143" y="-19"/>
      <point x="178" y="-19" type="curve" smooth="yes"/>
      <point x="215" y="-19"/>
      <point x="242" y="-45"/>
      <point x="254" y="-89" type="curve"/>
      <point x="285" y="-89" type="line"/>
      <point x="285" y="-51"/>
      <point x="297" y="-30"/>
      <point x="320" y="-30" type="curve" smooth="yes"/>
      <point x="351" y="-30"/>
      <point x="373" y="-71"/>
      <point x="378" y="-138" type="curve"/>
      <point x="429" y="-138" type="line"/>
      <point x="429" y="-7" type="line"/>
      <point x="372" y="-7" type="line"/>
      <point x="372" y="-68" type="line"/>
      <point x="400" y="-106" type="line"/>
      <point x="386" y="-30"/>
      <point x="350" y="40"/>
      <point x="293" y="40" type="curve" smooth="yes"/>
      <point x="256" y="40"/>
      <point x="231" y="8"/>
      <point x="231" y="-37" type="curve"/>
      <point x="262" y="-49" type="line"/>
      <point x="251" y="10"/>
      <point x="209" y="58"/>
      <point x="150" y="58" type="curve" smooth="yes"/>
      <point x="94" y="58"/>
      <point x="51" y="14"/>
      <point x="51" y="-43" type="curve" smooth="yes"/>
      <point x="51" y="-105"/>
      <point x="103" y="-157"/>
      <point x="161" y="-157" type="curve" smooth="yes"/>
    </contour>
    <contour>
      <point x="429" y="186" type="line"/>
      <point x="366" y="149" type="line"/>
      <point x="366" y="-44" type="line"/>
      <point x="429" y="-115" type="line"/>
    </contour>
    <contour>
      <point x="541" y="456" type="line"/>
      <point x="541" y="514" type="line"/>
      <point x="-25" y="514" type="line"/>
      <point x="-25" y="456" type="line"/>
    </contour>
  </outline>
</glyph>
<glyph name="bBhRa" format="1">
  <advance width="518"/>
  <outline>
    <contour>
      <point x="473" y="-31" type="line"/>
      <point x="473" y="250" type="line" smooth="yes"/>
      <point x="473" y="319"/>
      <point x="440" y="379"/>
      <point x="395" y="409" type="curve"/>
      <point x="353" y="357"/>
      <point x="302" y="319"/>
      <point x="254" y="319" type="curve" smooth="yes"/>
      <point x="243" y="319"/>
      <point x="231" y="322"/>
      <point x="222" y="327" type="curve"/>
      <point x="252" y="276" type="line"/>
      <point x="273" y="290"/>
      <point x="285" y="311"/>
      <point x="285" y="338" type="curve" smooth="yes"/>
      <point x="285" y="385"/>
      <point x="250" y="411"/>
      <point x="214" y="411" type="curve" smooth="yes"/>
      <point x="173" y="411"/>
      <point x="137" y="378"/>
      <point x="137" y="333" type="curve" smooth="yes"/>
      <point x="137" y="281"/>
      <point x="182" y="231"/>
      <point x="259" y="231" type="curve" smooth="yes"/>
      <point x="335" y="231"/>
      <point x="407" y="281"/>
      <point x="443" y="332" type="curve"/>
      <point x="380" y="332" type="line"/>
      <point x="391" y="322"/>
      <point x="403" y="299"/>
      <point x="403" y="268" type="curve" smooth="yes"/>
      <point x="403" y="50" type="line"/>
      <point x="436" y="12" type="line"/>
      <point x="416" y="82"/>
      <point x="369" y="126"/>
      <point x="302" y="126" type="curve" smooth="yes"/>
      <point x="275" y="126"/>
      <point x="190" y="119"/>
      <point x="159" y="119" type="curve" smooth="yes"/>
      <point x="100" y="119"/>
      <point x="66" y="146"/>
      <point x="66" y="200" type="curve" smooth="yes"/>
      <point x="66" y="230"/>
      <point x="77" y="264"/>
      <point x="91" y="290" type="curve"/>
      <point x="52" y="311" type="line"/>
      <point x="27" y="273"/>
      <point x="14" y="233"/>
      <point x="14" y="193" type="curve" smooth="yes"/>
      <point x="14" y="98"/>
      <point x="85" y="29"/>
      <point x="190" y="29" type="curve" smooth="yes"/>
      <point x="231" y="29"/>
      <point x="307" y="39"/>
      <point x="343" y="39" type="curve" smooth="yes"/>
      <point x="398" y="39"/>
      <point x="419" y="15"/>
      <point x="422" y="-31" type="curve"/>
    </contour>
    <contour>
      <point x="543" y="456" type="line"/>
      <point x="543" y="514" type="line"/>
      <point x="-25" y="514" type="line"/>
      <point x="-25" y="456" type="line"/>
    </contour>
  </outline>
</glyph>
<glyph name="bBhRa_bSignU" format="1">
  <advance width="705"/>
  <outline>
    <contour>
      <point x="473" y="-31" type="line"/>
      <point x="473" y="250" type="line" smooth="yes"/>
      <point x="473" y="320"/>
      <point x="440" y="380"/>
      <point x="395" y="411" type="curve"/>
      <point x="353" y="358"/>
      <point x="302" y="319"/>
      <point x="254" y="319" type="curve" smooth="yes"/>
      <point x="243" y="319"/>
      <point x="231" y="322"/>
      <point x="222" y="327" type="curve"/>
      <point x="252" y="276" type="line"/>
      <point x="273" y="290"/>
      <point x="285" y="311"/>
      <point x="285" y="338" type="curve" smooth="yes"/>
      <point x="285" y="385"/>
      <point x="250" y="411"/>
      <point x="214" y="411" type="curve" smooth="yes"/>
      <point x="173" y="411"/>
      <point x="137" y="378"/>
      <point x="137" y="333" type="curve" smooth="yes"/>
      <point x="137" y="281"/>
      <point x="182" y="231"/>
      <point x="259" y="231" type="curve" smooth="yes"/>
      <point x="335" y="231"/>
      <point x="407" y="281"/>
      <point x="443" y="332" type="curve"/>
      <point x="380" y="332" type="line"/>
      <point x="391" y="322"/>
      <point x="403" y="299"/>
      <point x="403" y="268" type="curve" smooth="yes"/>
      <point x="403" y="50" type="line"/>
      <point x="436" y="12" type="line"/>
      <point x="416" y="82"/>
      <point x="369" y="126"/>
      <point x="302" y="126" type="curve" smooth="yes"/>
      <point x="275" y="126"/>
      <point x="190" y="119"/>
      <point x="159" y="119" type="curve" smooth="yes"/>
      <point x="100" y="119"/>
      <point x="66" y="145"/>
      <point x="66" y="199" type="curve" smooth="yes"/>
      <point x="66" y="230"/>
      <point x="77" y="264"/>
      <point x="91" y="290" type="curve"/>
      <point x="52" y="311" type="line"/>
      <point x="27" y="273"/>
      <point x="14" y="233"/>
      <point x="14" y="193" type="curve" smooth="yes"/>
      <point x="14" y="98"/>
      <point x="85" y="29"/>
      <point x="190" y="29" type="curve" smooth="yes"/>
      <point x="231" y="29"/>
      <point x="307" y="39"/>
      <point x="343" y="39" type="curve" smooth="yes"/>
      <point x="398" y="39"/>
      <point x="419" y="15"/>
      <point x="422" y="-31" type="curve"/>
    </contour>
    <contour>
      <point x="635" y="128"/>
      <point x="679" y="175"/>
      <point x="679" y="240" type="curve" smooth="yes"/>
      <point x="679" y="309"/>
      <point x="630" y="369"/>
      <point x="573" y="369" type="curve" smooth="yes"/>
      <point x="535" y="369"/>
      <point x="508" y="343"/>
      <point x="508" y="310" type="curve" smooth="yes"/>
      <point x="508" y="277"/>
      <point x="535" y="253"/>
      <point x="566" y="253" type="curve" smooth="yes"/>
      <point x="596" y="253"/>
      <point x="617" y="275"/>
      <point x="617" y="301" type="curve" smooth="yes"/>
      <point x="617" y="312"/>
      <point x="613" y="323"/>
      <point x="606" y="329" type="curve"/>
      <point x="582" y="301" type="line"/>
      <point x="589" y="303"/>
      <point x="596" y="304"/>
      <point x="601" y="304" type="curve" smooth="yes"/>
      <point x="619" y="304"/>
      <point x="631" y="287"/>
      <point x="631" y="266" type="curve" smooth="yes"/>
      <point x="631" y="234"/>
      <point x="604" y="209"/>
      <point x="566" y="209" type="curve" smooth="yes"/>
      <point x="531" y="209"/>
      <point x="489" y="232"/>
      <point x="466" y="290" type="curve"/>
      <point x="443" y="264" type="line"/>
      <point x="473" y="177"/>
      <point x="521" y="128"/>
      <point x="579" y="128" type="curve" smooth="yes"/>
    </contour>
    <contour>
      <point x="730" y="456" type="line"/>
      <point x="730" y="514" type="line"/>
      <point x="-25" y="514" type="line"/>
      <point x="-25" y="456" type="line"/>
    </contour>
  </outline>
</glyph>
<glyph name="bBhRa_bSignUu" format="1">
  <advance width="662"/>
  <outline>
    <contour>
      <point x="473" y="-31" type="line"/>
      <point x="473" y="250" type="line" smooth="yes"/>
      <point x="473" y="319"/>
      <point x="440" y="379"/>
      <point x="395" y="409" type="curve"/>
      <point x="353" y="357"/>
      <point x="302" y="319"/>
      <point x="254" y="319" type="curve" smooth="yes"/>
      <point x="243" y="319"/>
      <point x="231" y="322"/>
      <point x="222" y="327" type="curve"/>
      <point x="252" y="276" type="line"/>
      <point x="273" y="290"/>
      <point x="285" y="311"/>
      <point x="285" y="338" type="curve" smooth="yes"/>
      <point x="285" y="385"/>
      <point x="250" y="411"/>
      <point x="214" y="411" type="curve" smooth="yes"/>
      <point x="173" y="411"/>
      <point x="137" y="378"/>
      <point x="137" y="333" type="curve" smooth="yes"/>
      <point x="137" y="281"/>
      <point x="182" y="231"/>
      <point x="259" y="231" type="curve" smooth="yes"/>
      <point x="335" y="231"/>
      <point x="407" y="281"/>
      <point x="443" y="332" type="curve"/>
      <point x="380" y="332" type="line"/>
      <point x="391" y="322"/>
      <point x="403" y="299"/>
      <point x="403" y="268" type="curve" smooth="yes"/>
      <point x="403" y="50" type="line"/>
      <point x="436" y="12" type="line"/>
      <point x="416" y="82"/>
      <point x="369" y="126"/>
      <point x="302" y="126" type="curve" smooth="yes"/>
      <point x="275" y="126"/>
      <point x="190" y="119"/>
      <point x="159" y="119" type="curve" smooth="yes"/>
      <point x="100" y="119"/>
      <point x="66" y="145"/>
      <point x="66" y="199" type="curve" smooth="yes"/>
      <point x="66" y="230"/>
      <point x="77" y="265"/>
      <point x="91" y="290" type="curve"/>
      <point x="52" y="311" type="line"/>
      <point x="27" y="273"/>
      <point x="14" y="233"/>
      <point x="14" y="193" type="curve" smooth="yes"/>
      <point x="14" y="98"/>
      <point x="85" y="29"/>
      <point x="190" y="29" type="curve" smooth="yes"/>
      <point x="231" y="29"/>
      <point x="307" y="39"/>
      <point x="343" y="39" type="curve" smooth="yes"/>
      <point x="398" y="39"/>
      <point x="419" y="15"/>
      <point x="422" y="-31" type="curve"/>
    </contour>
    <contour>
      <point x="645" y="14" type="line"/>
      <point x="627" y="29"/>
      <point x="616" y="50"/>
      <point x="616" y="75" type="curve" smooth="yes"/>
      <point x="616" y="230" type="line" smooth="yes"/>
      <point x="616" y="280"/>
      <point x="564" y="345"/>
      <point x="524" y="345" type="curve" smooth="yes"/>
      <point x="504" y="345"/>
      <point x="468" y="329"/>
      <point x="434" y="297" type="curve"/>
      <point x="464" y="223" type="line"/>
      <point x="489" y="248"/>
      <point x="524" y="269"/>
      <point x="539" y="269" type="curve" smooth="yes"/>
      <point x="545" y="269"/>
      <point x="548" y="264"/>
      <point x="548" y="253" type="curve" smooth="yes"/>
      <point x="548" y="95" type="line" smooth="yes"/>
      <point x="548" y="36"/>
      <point x="578" y="6"/>
      <point x="622" y="-20" type="curve"/>
    </contour>
    <contour>
      <point x="687" y="456" type="line"/>
      <point x="687" y="514" type="line"/>
      <point x="-25" y="514" type="line"/>
      <point x="-25" y="456" type="line"/>
    </contour>
  </outline>
</glyph>
<glyph name="bBha" format="1">
  <advance width="526"/>
  <outline>
    <contour>
      <point x="420" y="35"/>
      <point x="491" y="113"/>
      <point x="491" y="220" type="curve" smooth="yes"/>
      <point x="491" y="301"/>
      <point x="451" y="376"/>
      <point x="394" y="416" type="curve"/>
      <point x="362" y="362"/>
      <point x="314" y="325"/>
      <point x="270" y="325" type="curve" smooth="yes"/>
      <point x="259" y="325"/>
      <point x="247" y="327"/>
      <point x="237" y="332" type="curve"/>
      <point x="271" y="281" type="line"/>
      <point x="290" y="295"/>
      <point x="303" y="316"/>
      <point x="303" y="344" type="curve" smooth="yes"/>
      <point x="303" y="392"/>
      <point x="266" y="418"/>
      <point x="229" y="418" type="curve" smooth="yes"/>
      <point x="186" y="418"/>
      <point x="150" y="384"/>
      <point x="150" y="338" type="curve" smooth="yes"/>
      <point x="150" y="284"/>
      <point x="198" y="232"/>
      <point x="273" y="232" type="curve" smooth="yes"/>
      <point x="347" y="232"/>
      <point x="413" y="282"/>
      <point x="446" y="337" type="curve"/>
      <point x="383" y="337" type="line"/>
      <point x="405" y="326"/>
      <point x="426" y="298"/>
      <point x="426" y="256" type="curve"/>
      <point x="426" y="191"/>
      <point x="375" y="139"/>
      <point x="296" y="139" type="curve" smooth="yes"/>
      <point x="188" y="139"/>
      <point x="108" y="237"/>
      <point x="47" y="422" type="curve"/>
      <point x="-2" y="405" type="line"/>
      <point x="75" y="162"/>
      <point x="188" y="35"/>
      <point x="318" y="35" type="curve" smooth="yes"/>
    </contour>
    <contour>
      <point x="551" y="456" type="line"/>
      <point x="551" y="514" type="line"/>
      <point x="-25" y="514" type="line"/>
      <point x="-25" y="456" type="line"/>
    </contour>
  </outline>
</glyph>
<glyph name="bCBa" format="1">
  <advance width="389"/>
  <outline>
    <contour>
      <point x="246" y="46"/>
      <point x="368" y="154"/>
      <point x="368" y="231" type="curve" smooth="yes"/>
      <point x="368" y="268"/>
      <point x="345" y="301"/>
      <point x="327" y="322" type="curve" smooth="yes"/>
      <point x="280" y="378"/>
      <point x="246" y="378"/>
      <point x="207" y="388" type="curve" smooth="yes"/>
      <point x="167" y="398"/>
      <point x="126" y="419"/>
      <point x="126" y="470" type="curve"/>
      <point x="56" y="470" type="line"/>
      <point x="56" y="195" type="line" smooth="yes"/>
      <point x="56" y="106"/>
      <point x="122" y="46"/>
      <point x="174" y="46" type="curve" smooth="yes"/>
    </contour>
    <contour>
      <point x="136" y="127"/>
      <point x="126" y="134"/>
      <point x="126" y="165" type="curve" smooth="yes"/>
      <point x="126" y="423" type="line"/>
      <point x="91" y="443" type="line"/>
      <point x="118" y="344"/>
      <point x="163" y="307"/>
      <point x="240" y="290" type="curve" smooth="yes"/>
      <point x="273" y="283"/>
      <point x="280" y="279"/>
      <point x="280" y="263" type="curve" smooth="yes"/>
      <point x="280" y="216"/>
      <point x="193" y="127"/>
      <point x="148" y="127" type="curve" smooth="yes"/>
    </contour>
    <contour>
      <point x="305" y="-119" type="line"/>
      <point x="305" y="128" type="line"/>
      <point x="259" y="165" type="line"/>
      <point x="174" y="124"/>
      <point x="121" y="97"/>
      <point x="34" y="45" type="curve"/>
      <point x="96" y="-44" type="line"/>
      <point x="175" y="-56"/>
      <point x="234" y="-74"/>
      <point x="253" y="-119" type="curve"/>
    </contour>
    <contour>
      <point x="272" y="-84" type="line"/>
      <point x="241" y="-29"/>
      <point x="182" y="12"/>
      <point x="91" y="33" type="curve"/>
      <point x="119" y="-4" type="line"/>
      <point x="180" y="36"/>
      <point x="237" y="65"/>
      <point x="286" y="89" type="curve"/>
      <point x="242" y="100" type="line"/>
      <point x="242" y="-63" type="line"/>
    </contour>
    <contour>
      <point x="414" y="456" type="line"/>
      <point x="414" y="514" type="line"/>
      <point x="-25" y="514" type="line"/>
      <point x="-25" y="456" type="line"/>
    </contour>
  </outline>
</glyph>
<glyph name="bCCa" format="1">
  <advance width="639"/>
  <outline>
    <contour>
      <point x="500" y="3"/>
      <point x="617" y="136"/>
      <point x="617" y="215" type="curve" smooth="yes"/>
      <point x="617" y="254"/>
      <point x="596" y="286"/>
      <point x="575" y="310" type="curve" smooth="yes"/>
      <point x="543" y="347"/>
      <point x="521" y="362"/>
      <point x="455" y="376" type="curve" smooth="yes"/>
      <point x="394" y="388"/>
      <point x="367" y="427"/>
      <point x="367" y="467" type="curve"/>
      <point x="297" y="467" type="line"/>
      <point x="297" y="160" type="line" smooth="yes"/>
      <point x="297" y="67"/>
      <point x="367" y="3"/>
      <point x="416" y="3" type="curve" smooth="yes"/>
    </contour>
    <contour>
      <point x="377" y="87"/>
      <point x="367" y="96"/>
      <point x="367" y="130" type="curve" smooth="yes"/>
      <point x="367" y="421" type="line"/>
      <point x="332" y="440" type="line"/>
      <point x="358" y="341"/>
      <point x="406" y="293"/>
      <point x="489" y="277" type="curve" smooth="yes"/>
      <point x="519" y="271"/>
      <point x="529" y="268"/>
      <point x="529" y="248" type="curve" smooth="yes"/>
      <point x="529" y="199"/>
      <point x="438" y="87"/>
      <point x="389" y="87" type="curve" smooth="yes"/>
    </contour>
    <contour>
      <point x="232" y="53"/>
      <point x="335" y="165"/>
      <point x="335" y="239" type="curve" smooth="yes"/>
      <point x="335" y="273"/>
      <point x="315" y="305"/>
      <point x="296" y="330" type="curve" smooth="yes"/>
      <point x="252" y="383"/>
      <point x="220" y="384"/>
      <point x="183" y="394" type="curve" smooth="yes"/>
      <point x="137" y="407"/>
      <point x="115" y="431"/>
      <point x="115" y="467" type="curve"/>
      <point x="45" y="467" type="line"/>
      <point x="45" y="206" type="line" smooth="yes"/>
      <point x="45" y="116"/>
      <point x="113" y="53"/>
      <point x="166" y="53" type="curve" smooth="yes"/>
    </contour>
    <contour>
      <point x="125" y="133"/>
      <point x="115" y="141"/>
      <point x="115" y="176" type="curve" smooth="yes"/>
      <point x="115" y="438" type="line"/>
      <point x="80" y="443" type="line"/>
      <point x="105" y="358"/>
      <point x="146" y="315"/>
      <point x="217" y="300" type="curve" smooth="yes"/>
      <point x="247" y="292"/>
      <point x="255" y="288"/>
      <point x="255" y="271" type="curve" smooth="yes"/>
      <point x="255" y="226"/>
      <point x="179" y="133"/>
      <point x="137" y="133" type="curve" smooth="yes"/>
    </contour>
    <contour>
      <point x="411" y="456" type="line"/>
      <point x="411" y="514" type="line"/>
      <point x="-25" y="514" type="line"/>
      <point x="-25" y="456" type="line"/>
    </contour>
    <contour>
      <point x="663" y="456" type="line"/>
      <point x="663" y="514" type="line"/>
      <point x="225" y="514" type="line"/>
      <point x="225" y="456" type="line"/>
    </contour>
  </outline>
</glyph>
<glyph name="bCChBa" format="1">
  <advance width="695"/>
  <outline>
    <contour>
      <point x="222" y="97"/>
      <point x="312" y="194"/>
      <point x="312" y="265" type="curve" smooth="yes"/>
      <point x="312" y="292"/>
      <point x="298" y="321"/>
      <point x="276" y="346" type="curve" smooth="yes"/>
      <point x="239" y="387"/>
      <point x="201" y="391"/>
      <point x="178" y="398" type="curve" smooth="yes"/>
      <point x="132" y="410"/>
      <point x="114" y="435"/>
      <point x="114" y="467" type="curve"/>
      <point x="44" y="467" type="line"/>
      <point x="44" y="248" type="line" smooth="yes"/>
      <point x="44" y="158"/>
      <point x="112" y="97"/>
      <point x="161" y="97" type="curve" smooth="yes"/>
    </contour>
    <contour>
      <point x="121" y="177"/>
      <point x="113" y="185"/>
      <point x="113" y="218" type="curve" smooth="yes"/>
      <point x="113" y="438" type="line"/>
      <point x="78" y="443" type="line"/>
      <point x="103" y="361"/>
      <point x="138" y="329"/>
      <point x="200" y="314" type="curve" smooth="yes"/>
      <point x="223" y="308"/>
      <point x="233" y="307"/>
      <point x="233" y="292" type="curve" smooth="yes"/>
      <point x="233" y="255"/>
      <point x="167" y="177"/>
      <point x="132" y="177" type="curve" smooth="yes"/>
    </contour>
    <contour>
      <point x="701" y="9" type="line"/>
      <point x="613" y="74"/>
      <point x="544" y="114"/>
      <point x="459" y="139" type="curve"/>
      <point x="459" y="89" type="line"/>
      <point x="592" y="108"/>
      <point x="662" y="185"/>
      <point x="662" y="261" type="curve" smooth="yes"/>
      <point x="662" y="338"/>
      <point x="591" y="407"/>
      <point x="510" y="407" type="curve" smooth="yes"/>
      <point x="495" y="407"/>
      <point x="467" y="405"/>
      <point x="454" y="405" type="curve" smooth="yes"/>
      <point x="409" y="405"/>
      <point x="369" y="429"/>
      <point x="366" y="467" type="curve"/>
      <point x="297" y="467" type="line"/>
      <point x="297" y="329" type="line" smooth="yes"/>
      <point x="297" y="275"/>
      <point x="344" y="211"/>
      <point x="406" y="211" type="curve" smooth="yes"/>
      <point x="461" y="211"/>
      <point x="527" y="263"/>
      <point x="527" y="308" type="curve" smooth="yes"/>
      <point x="527" y="337"/>
      <point x="500" y="368"/>
      <point x="459" y="378" type="curve"/>
      <point x="429" y="344" type="line"/>
      <point x="441" y="340"/>
      <point x="443" y="335"/>
      <point x="443" y="330" type="curve" smooth="yes"/>
      <point x="443" y="311"/>
      <point x="403" y="283"/>
      <point x="382" y="283" type="curve" smooth="yes"/>
      <point x="372" y="283"/>
      <point x="367" y="290"/>
      <point x="367" y="307" type="curve" smooth="yes"/>
      <point x="367" y="458" type="line"/>
      <point x="345" y="437" type="line"/>
      <point x="360" y="371"/>
      <point x="416" y="337"/>
      <point x="470" y="337" type="curve" smooth="yes"/>
      <point x="519" y="337"/>
      <point x="523" y="338"/>
      <point x="534" y="338" type="curve" smooth="yes"/>
      <point x="569" y="338"/>
      <point x="582" y="322"/>
      <point x="582" y="297" type="curve" smooth="yes"/>
      <point x="582" y="235"/>
      <point x="508" y="173"/>
      <point x="412" y="173" type="curve" smooth="yes"/>
      <point x="387" y="173"/>
      <point x="353" y="178"/>
      <point x="320" y="186" type="curve"/>
      <point x="373" y="83" type="line"/>
      <point x="489" y="70"/>
      <point x="570" y="35"/>
      <point x="669" y="-32" type="curve"/>
    </contour>
    <contour>
      <point x="611" y="-150" type="line"/>
      <point x="611" y="61" type="line"/>
      <point x="542" y="103" type="line"/>
      <point x="475" y="80"/>
      <point x="428" y="59"/>
      <point x="355" y="14" type="curve"/>
      <point x="417" y="-74" type="line"/>
      <point x="489" y="-86"/>
      <point x="542" y="-105"/>
      <point x="559" y="-150" type="curve"/>
    </contour>
    <contour>
      <point x="578" y="-115" type="line"/>
      <point x="550" y="-59"/>
      <point x="496" y="-18"/>
      <point x="412" y="3" type="curve"/>
      <point x="432" y="-34" type="line"/>
      <point x="498" y="8"/>
      <point x="552" y="35"/>
      <point x="600" y="52" type="curve"/>
      <point x="548" y="51" type="line"/>
      <point x="548" y="-94" type="line"/>
    </contour>
    <contour>
      <point x="411" y="456" type="line"/>
      <point x="411" y="514" type="line"/>
      <point x="-25" y="514" type="line"/>
      <point x="-25" y="456" type="line"/>
    </contour>
    <contour>
      <point x="720" y="456" type="line"/>
      <point x="720" y="514" type="line"/>
      <point x="236" y="514" type="line"/>
      <point x="236" y="456" type="line"/>
    </contour>
  </outline>
</glyph>
<glyph name="bCChRa" format="1">
  <advance width="695"/>
  <outline>
    <contour>
      <point x="701" y="9" type="line"/>
      <point x="613" y="73"/>
      <point x="544" y="114"/>
      <point x="459" y="139" type="curve"/>
      <point x="459" y="85" type="line"/>
      <point x="588" y="102"/>
      <point x="662" y="181"/>
      <point x="662" y="260" type="curve" smooth="yes"/>
      <point x="662" y="338"/>
      <point x="591" y="407"/>
      <point x="510" y="407" type="curve" smooth="yes"/>
      <point x="495" y="407"/>
      <point x="467" y="405"/>
      <point x="454" y="405" type="curve" smooth="yes"/>
      <point x="409" y="405"/>
      <point x="369" y="429"/>
      <point x="366" y="467" type="curve"/>
      <point x="297" y="467" type="line"/>
      <point x="297" y="325" type="line" smooth="yes"/>
      <point x="297" y="271"/>
      <point x="345" y="208"/>
      <point x="405" y="208" type="curve" smooth="yes"/>
      <point x="461" y="208"/>
      <point x="527" y="261"/>
      <point x="527" y="307" type="curve" smooth="yes"/>
      <point x="527" y="337"/>
      <point x="500" y="368"/>
      <point x="459" y="378" type="curve"/>
      <point x="429" y="344" type="line"/>
      <point x="441" y="340"/>
      <point x="443" y="335"/>
      <point x="443" y="330" type="curve" smooth="yes"/>
      <point x="443" y="309"/>
      <point x="403" y="279"/>
      <point x="382" y="279" type="curve" smooth="yes"/>
      <point x="372" y="279"/>
      <point x="367" y="286"/>
      <point x="367" y="303" type="curve" smooth="yes"/>
      <point x="367" y="458" type="line"/>
      <point x="345" y="437" type="line"/>
      <point x="360" y="371"/>
      <point x="416" y="337"/>
      <point x="470" y="337" type="curve" smooth="yes"/>
      <point x="519" y="337"/>
      <point x="523" y="338"/>
      <point x="534" y="338" type="curve" smooth="yes"/>
      <point x="568" y="338"/>
      <point x="582" y="322"/>
      <point x="582" y="298" type="curve" smooth="yes"/>
      <point x="582" y="241"/>
      <point x="507" y="169"/>
      <point x="413" y="169" type="curve" smooth="yes"/>
      <point x="388" y="169"/>
      <point x="357" y="174"/>
      <point x="328" y="182" type="curve"/>
      <point x="381" y="72" type="line"/>
      <point x="493" y="67"/>
      <point x="573" y="35"/>
      <point x="669" y="-32" type="curve"/>
    </contour>
    <contour>
      <point x="609" y="-116" type="line"/>
      <point x="609" y="60" type="line"/>
      <point x="547" y="60" type="line"/>
      <point x="547" y="-62" type="line"/>
      <point x="574" y="-87" type="line"/>
      <point x="556" y="-24"/>
      <point x="511" y="19"/>
      <point x="445" y="19" type="curve" smooth="yes"/>
      <point x="429" y="19"/>
      <point x="384" y="16"/>
      <point x="368" y="16" type="curve" smooth="yes"/>
      <point x="328" y="16"/>
      <point x="305" y="33"/>
      <point x="305" y="64" type="curve" smooth="yes"/>
      <point x="305" y="80"/>
      <point x="311" y="102"/>
      <point x="318" y="116" type="curve"/>
      <point x="277" y="132" type="line"/>
      <point x="267" y="113"/>
      <point x="259" y="86"/>
      <point x="259" y="61" type="curve" smooth="yes"/>
      <point x="259" y="-13"/>
      <point x="319" y="-70"/>
      <point x="394" y="-70" type="curve" smooth="yes"/>
      <point x="422" y="-70"/>
      <point x="467" y="-61"/>
      <point x="493" y="-61" type="curve" smooth="yes"/>
      <point x="528" y="-61"/>
      <point x="552" y="-79"/>
      <point x="557" y="-116" type="curve"/>
    </contour>
    <contour>
      <point x="222" y="97"/>
      <point x="312" y="194"/>
      <point x="312" y="265" type="curve" smooth="yes"/>
      <point x="312" y="292"/>
      <point x="298" y="321"/>
      <point x="276" y="346" type="curve" smooth="yes"/>
      <point x="238" y="388"/>
      <point x="199" y="392"/>
      <point x="178" y="398" type="curve" smooth="yes"/>
      <point x="132" y="410"/>
      <point x="114" y="435"/>
      <point x="114" y="467" type="curve"/>
      <point x="44" y="467" type="line"/>
      <point x="44" y="248" type="line" smooth="yes"/>
      <point x="44" y="158"/>
      <point x="112" y="97"/>
      <point x="161" y="97" type="curve" smooth="yes"/>
    </contour>
    <contour>
      <point x="121" y="177"/>
      <point x="113" y="185"/>
      <point x="113" y="218" type="curve" smooth="yes"/>
      <point x="113" y="438" type="line"/>
      <point x="78" y="443" type="line"/>
      <point x="103" y="361"/>
      <point x="138" y="329"/>
      <point x="200" y="314" type="curve" smooth="yes"/>
      <point x="224" y="308"/>
      <point x="233" y="307"/>
      <point x="233" y="292" type="curve" smooth="yes"/>
      <point x="233" y="255"/>
      <point x="167" y="177"/>
      <point x="132" y="177" type="curve" smooth="yes"/>
    </contour>
    <contour>
      <point x="411" y="456" type="line"/>
      <point x="411" y="514" type="line"/>
      <point x="-25" y="514" type="line"/>
      <point x="-25" y="456" type="line"/>
    </contour>
    <contour>
      <point x="720" y="456" type="line"/>
      <point x="720" y="514" type="line"/>
      <point x="188" y="514" type="line"/>
      <point x="188" y="456" type="line"/>
    </contour>
  </outline>
</glyph>
<glyph name="bCCha" format="1">
  <advance width="695"/>
  <outline>
    <contour>
      <point x="702" y="-15" type="line"/>
      <point x="612" y="52"/>
      <point x="542" y="93"/>
      <point x="456" y="119" type="curve"/>
      <point x="456" y="65" type="line"/>
      <point x="590" y="82"/>
      <point x="665" y="168"/>
      <point x="665" y="250" type="curve" smooth="yes"/>
      <point x="665" y="330"/>
      <point x="593" y="399"/>
      <point x="508" y="399" type="curve" smooth="yes"/>
      <point x="493" y="399"/>
      <point x="465" y="397"/>
      <point x="452" y="397" type="curve" smooth="yes"/>
      <point x="406" y="397"/>
      <point x="366" y="424"/>
      <point x="363" y="467" type="curve"/>
      <point x="294" y="467" type="line"/>
      <point x="294" y="309" type="line" smooth="yes"/>
      <point x="294" y="255"/>
      <point x="342" y="192"/>
      <point x="402" y="192" type="curve" smooth="yes"/>
      <point x="458" y="192"/>
      <point x="525" y="250"/>
      <point x="525" y="298" type="curve" smooth="yes"/>
      <point x="525" y="329"/>
      <point x="498" y="359"/>
      <point x="456" y="369" type="curve"/>
      <point x="426" y="335" type="line"/>
      <point x="439" y="331"/>
      <point x="442" y="326"/>
      <point x="442" y="320" type="curve" smooth="yes"/>
      <point x="442" y="298"/>
      <point x="401" y="263"/>
      <point x="379" y="263" type="curve" smooth="yes"/>
      <point x="369" y="263"/>
      <point x="364" y="270"/>
      <point x="364" y="288" type="curve" smooth="yes"/>
      <point x="364" y="458" type="line"/>
      <point x="342" y="429" type="line"/>
      <point x="357" y="363"/>
      <point x="413" y="328"/>
      <point x="467" y="328" type="curve" smooth="yes"/>
      <point x="516" y="328"/>
      <point x="521" y="330"/>
      <point x="532" y="330" type="curve" smooth="yes"/>
      <point x="571" y="330"/>
      <point x="585" y="313"/>
      <point x="585" y="287" type="curve" smooth="yes"/>
      <point x="585" y="226"/>
      <point x="509" y="149"/>
      <point x="407" y="149" type="curve" smooth="yes"/>
      <point x="382" y="149"/>
      <point x="344" y="154"/>
      <point x="310" y="162" type="curve"/>
      <point x="363" y="52" type="line"/>
      <point x="482" y="46"/>
      <point x="567" y="14"/>
      <point x="669" y="-56" type="curve"/>
    </contour>
    <contour>
      <point x="220" y="87"/>
      <point x="312" y="191"/>
      <point x="312" y="262" type="curve" smooth="yes"/>
      <point x="312" y="293"/>
      <point x="298" y="321"/>
      <point x="276" y="346" type="curve" smooth="yes"/>
      <point x="237" y="387"/>
      <point x="209" y="389"/>
      <point x="178" y="398" type="curve" smooth="yes"/>
      <point x="134" y="411"/>
      <point x="114" y="432"/>
      <point x="114" y="467" type="curve"/>
      <point x="44" y="467" type="line"/>
      <point x="44" y="238" type="line" smooth="yes"/>
      <point x="44" y="149"/>
      <point x="111" y="87"/>
      <point x="163" y="87" type="curve" smooth="yes"/>
    </contour>
    <contour>
      <point x="121" y="167"/>
      <point x="113" y="174"/>
      <point x="113" y="208" type="curve" smooth="yes"/>
      <point x="113" y="438" type="line"/>
      <point x="78" y="443" type="line"/>
      <point x="101" y="365"/>
      <point x="136" y="329"/>
      <point x="200" y="314" type="curve" smooth="yes"/>
      <point x="224" y="308"/>
      <point x="233" y="307"/>
      <point x="233" y="291" type="curve" smooth="yes"/>
      <point x="233" y="253"/>
      <point x="167" y="167"/>
      <point x="133" y="167" type="curve" smooth="yes"/>
    </contour>
    <contour>
      <point x="411" y="456" type="line"/>
      <point x="411" y="514" type="line"/>
      <point x="-25" y="514" type="line"/>
      <point x="-25" y="456" type="line"/>
    </contour>
    <contour>
      <point x="720" y="456" type="line"/>
      <point x="720" y="514" type="line"/>
      <point x="233" y="514" type="line"/>
      <point x="233" y="456" type="line"/>
    </contour>
  </outline>
</glyph>
<glyph name="bCNa" format="1">
  <advance width="387"/>
  <outline>
    <contour>
      <point x="244" y="77"/>
      <point x="365" y="173"/>
      <point x="365" y="244" type="curve" smooth="yes"/>
      <point x="365" y="276"/>
      <point x="341" y="311"/>
      <point x="325" y="331" type="curve" smooth="yes"/>
      <point x="280" y="385"/>
      <point x="244" y="387"/>
      <point x="205" y="397" type="curve" smooth="yes"/>
      <point x="165" y="408"/>
      <point x="124" y="422"/>
      <point x="124" y="470" type="curve"/>
      <point x="54" y="470" type="line"/>
      <point x="54" y="225" type="line" smooth="yes"/>
      <point x="54" y="136"/>
      <point x="118" y="77"/>
      <point x="174" y="77" type="curve" smooth="yes"/>
    </contour>
    <contour>
      <point x="133" y="157"/>
      <point x="124" y="163"/>
      <point x="124" y="194" type="curve" smooth="yes"/>
      <point x="124" y="423" type="line"/>
      <point x="89" y="443" type="line"/>
      <point x="118" y="346"/>
      <point x="160" y="316"/>
      <point x="238" y="299" type="curve" smooth="yes"/>
      <point x="266" y="292"/>
      <point x="278" y="289"/>
      <point x="278" y="275" type="curve" smooth="yes"/>
      <point x="278" y="234"/>
      <point x="191" y="157"/>
      <point x="146" y="157" type="curve" smooth="yes"/>
    </contour>
    <contour>
      <point x="412" y="456" type="line"/>
      <point x="412" y="514" type="line"/>
      <point x="-25" y="514" type="line"/>
      <point x="-25" y="456" type="line"/>
    </contour>
    <contour>
      <point x="306" y="-114" type="line"/>
      <point x="306" y="173" type="line"/>
      <point x="245" y="168" type="line"/>
      <point x="245" y="-69" type="line"/>
      <point x="273" y="-70" type="line"/>
      <point x="246" y="13"/>
      <point x="179" y="61"/>
      <point x="117" y="61" type="curve" smooth="yes"/>
      <point x="66" y="61"/>
      <point x="29" y="27"/>
      <point x="29" y="-18" type="curve" smooth="yes"/>
      <point x="29" y="-60"/>
      <point x="62" y="-91"/>
      <point x="102" y="-91" type="curve" smooth="yes"/>
      <point x="138" y="-91"/>
      <point x="167" y="-63"/>
      <point x="167" y="-26" type="curve" smooth="yes"/>
      <point x="167" y="-6"/>
      <point x="158" y="16"/>
      <point x="136" y="29" type="curve"/>
      <point x="129" y="-25" type="line"/>
      <point x="138" y="-20"/>
      <point x="146" y="-18"/>
      <point x="158" y="-18" type="curve" smooth="yes"/>
      <point x="202" y="-18"/>
      <point x="248" y="-51"/>
      <point x="255" y="-114" type="curve"/>
    </contour>
  </outline>
</glyph>
<glyph name="bCNya" format="1">
  <advance width="782"/>
  <outline>
    <contour>
      <point x="521" y="-79" type="line"/>
      <point x="521" y="271" type="line" smooth="yes"/>
      <point x="521" y="334"/>
      <point x="466" y="407"/>
      <point x="408" y="407" type="curve" smooth="yes"/>
      <point x="339" y="407"/>
      <point x="244" y="305"/>
      <point x="244" y="214" type="curve" smooth="yes"/>
      <point x="244" y="156"/>
      <point x="283" y="110"/>
      <point x="335" y="110" type="curve" smooth="yes"/>
      <point x="376" y="110"/>
      <point x="406" y="138"/>
      <point x="406" y="174" type="curve" smooth="yes"/>
      <point x="406" y="208"/>
      <point x="377" y="237"/>
      <point x="344" y="237" type="curve" smooth="yes"/>
      <point x="317" y="237"/>
      <point x="293" y="218"/>
      <point x="284" y="195" type="curve"/>
      <point x="323" y="162" type="line"/>
      <point x="318" y="171"/>
      <point x="316" y="186"/>
      <point x="316" y="196" type="curve" smooth="yes"/>
      <point x="316" y="252"/>
      <point x="402" y="335"/>
      <point x="434" y="335" type="curve" smooth="yes"/>
      <point x="445" y="335"/>
      <point x="451" y="324"/>
      <point x="451" y="308" type="curve" smooth="yes"/>
      <point x="451" y="2" type="line"/>
      <point x="484" y="-36" type="line"/>
      <point x="464" y="35"/>
      <point x="417" y="80"/>
      <point x="350" y="80" type="curve" smooth="yes"/>
      <point x="319" y="80"/>
      <point x="236" y="70"/>
      <point x="196" y="70" type="curve" smooth="yes"/>
      <point x="122" y="70"/>
      <point x="79" y="104"/>
      <point x="79" y="168" type="curve" smooth="yes"/>
      <point x="79" y="193"/>
      <point x="85" y="229"/>
      <point x="98" y="254" type="curve"/>
      <point x="58" y="273" type="line"/>
      <point x="38" y="239"/>
      <point x="27" y="197"/>
      <point x="27" y="159" type="curve" smooth="yes"/>
      <point x="27" y="55"/>
      <point x="112" y="-20"/>
      <point x="228" y="-20" type="curve" smooth="yes"/>
      <point x="277" y="-20"/>
      <point x="352" y="-7"/>
      <point x="391" y="-7" type="curve" smooth="yes"/>
      <point x="445" y="-7"/>
      <point x="466" y="-31"/>
      <point x="469" y="-79" type="curve"/>
    </contour>
    <contour>
      <point x="263" y="170"/>
      <point x="340" y="239"/>
      <point x="340" y="296" type="curve" smooth="yes"/>
      <point x="340" y="318"/>
      <point x="329" y="347"/>
      <point x="308" y="372" type="curve" smooth="yes"/>
      <point x="280" y="407"/>
      <point x="254" y="411"/>
      <point x="228" y="418" type="curve" smooth="yes"/>
      <point x="196" y="427"/>
      <point x="179" y="440"/>
      <point x="179" y="467" type="curve"/>
      <point x="116" y="467" type="line"/>
      <point x="116" y="296" type="line" smooth="yes"/>
      <point x="116" y="222"/>
      <point x="173" y="170"/>
      <point x="216" y="170" type="curve" smooth="yes"/>
    </contour>
    <contour>
      <point x="185" y="236"/>
      <point x="178" y="243"/>
      <point x="178" y="267" type="curve" smooth="yes"/>
      <point x="178" y="438" type="line"/>
      <point x="143" y="450" type="line"/>
      <point x="167" y="384"/>
      <point x="200" y="360"/>
      <point x="253" y="340" type="curve" smooth="yes"/>
      <point x="266" y="336"/>
      <point x="270" y="333"/>
      <point x="270" y="324" type="curve" smooth="yes"/>
      <point x="270" y="294"/>
      <point x="221" y="236"/>
      <point x="194" y="236" type="curve" smooth="yes"/>
    </contour>
    <contour>
      <point x="711" y="-19"/>
      <point x="753" y="22"/>
      <point x="753" y="78" type="curve" smooth="yes"/>
      <point x="753" y="132"/>
      <point x="713" y="183"/>
      <point x="676" y="201" type="curve"/>
      <point x="669" y="123" type="line"/>
      <point x="730" y="162"/>
      <point x="753" y="199"/>
      <point x="753" y="243" type="curve" smooth="yes"/>
      <point x="753" y="313"/>
      <point x="694" y="378"/>
      <point x="633" y="378" type="curve" smooth="yes"/>
      <point x="582" y="378"/>
      <point x="528" y="334"/>
      <point x="476" y="239" type="curve"/>
      <point x="489" y="137" type="line"/>
      <point x="532" y="35"/>
      <point x="588" y="-19"/>
      <point x="654" y="-19" type="curve" smooth="yes"/>
    </contour>
    <contour>
      <point x="583" y="61"/>
      <point x="534" y="118"/>
      <point x="515" y="191" type="curve"/>
      <point x="510" y="152" type="line"/>
      <point x="551" y="254"/>
      <point x="609" y="299"/>
      <point x="654" y="299" type="curve" smooth="yes"/>
      <point x="680" y="299"/>
      <point x="691" y="285"/>
      <point x="691" y="267" type="curve" smooth="yes"/>
      <point x="691" y="245"/>
      <point x="675" y="217"/>
      <point x="623" y="186" type="curve"/>
      <point x="688" y="193" type="line"/>
      <point x="676" y="211"/>
      <point x="651" y="229"/>
      <point x="624" y="229" type="curve" smooth="yes"/>
      <point x="592" y="229"/>
      <point x="565" y="203"/>
      <point x="565" y="170" type="curve" smooth="yes"/>
      <point x="565" y="137"/>
      <point x="592" y="110"/>
      <point x="627" y="110" type="curve" smooth="yes"/>
      <point x="653" y="110"/>
      <point x="682" y="125"/>
      <point x="696" y="149" type="curve"/>
      <point x="650" y="158" type="line"/>
      <point x="675" y="148"/>
      <point x="693" y="127"/>
      <point x="693" y="105" type="curve" smooth="yes"/>
      <point x="693" y="80"/>
      <point x="671" y="61"/>
      <point x="639" y="61" type="curve" smooth="yes"/>
    </contour>
    <contour>
      <point x="807" y="456" type="line"/>
      <point x="807" y="514" type="line"/>
      <point x="-25" y="514" type="line"/>
      <point x="-25" y="456" type="line"/>
    </contour>
  </outline>
</glyph>
<glyph name="bCRa" format="1">
  <advance width="437"/>
  <outline>
    <contour>
      <point x="296" y="44"/>
      <point x="416" y="154"/>
      <point x="416" y="229" type="curve" smooth="yes"/>
      <point x="416" y="265"/>
      <point x="393" y="299"/>
      <point x="375" y="320" type="curve" smooth="yes"/>
      <point x="328" y="375"/>
      <point x="294" y="375"/>
      <point x="255" y="386" type="curve" smooth="yes"/>
      <point x="215" y="396"/>
      <point x="174" y="418"/>
      <point x="174" y="470" type="curve"/>
      <point x="104" y="470" type="line"/>
      <point x="104" y="193" type="line" smooth="yes"/>
      <point x="104" y="104"/>
      <point x="170" y="44"/>
      <point x="222" y="44" type="curve" smooth="yes"/>
    </contour>
    <contour>
      <point x="184" y="125"/>
      <point x="174" y="132"/>
      <point x="174" y="163" type="curve" smooth="yes"/>
      <point x="174" y="423" type="line"/>
      <point x="139" y="443" type="line"/>
      <point x="166" y="343"/>
      <point x="211" y="304"/>
      <point x="288" y="287" type="curve" smooth="yes"/>
      <point x="321" y="280"/>
      <point x="328" y="277"/>
      <point x="328" y="261" type="curve" smooth="yes"/>
      <point x="328" y="217"/>
      <point x="242" y="125"/>
      <point x="197" y="125" type="curve" smooth="yes"/>
    </contour>
    <contour>
      <point x="363" y="-119" type="line"/>
      <point x="363" y="167" type="line"/>
      <point x="302" y="167" type="line"/>
      <point x="302" y="-65" type="line"/>
      <point x="328" y="-89" type="line"/>
      <point x="311" y="-26"/>
      <point x="267" y="15"/>
      <point x="203" y="15" type="curve" smooth="yes"/>
      <point x="187" y="15"/>
      <point x="134" y="13"/>
      <point x="121" y="13" type="curve" smooth="yes"/>
      <point x="87" y="13"/>
      <point x="67" y="33"/>
      <point x="67" y="69" type="curve" smooth="yes"/>
      <point x="67" y="89"/>
      <point x="74" y="114"/>
      <point x="80" y="131" type="curve"/>
      <point x="40" y="147" type="line"/>
      <point x="29" y="125"/>
      <point x="21" y="95"/>
      <point x="21" y="65" type="curve" smooth="yes"/>
      <point x="21" y="-12"/>
      <point x="76" y="-70"/>
      <point x="149" y="-70" type="curve" smooth="yes"/>
      <point x="171" y="-70"/>
      <point x="228" y="-65"/>
      <point x="249" y="-65" type="curve" smooth="yes"/>
      <point x="285" y="-65"/>
      <point x="307" y="-82"/>
      <point x="312" y="-119" type="curve"/>
    </contour>
    <contour>
      <point x="462" y="456" type="line"/>
      <point x="462" y="514" type="line"/>
      <point x="-25" y="514" type="line"/>
      <point x="-25" y="456" type="line"/>
    </contour>
  </outline>
</glyph>
<glyph name="bCa" format="1">
  <advance width="388"/>
  <outline>
    <contour>
      <point x="250" y="3"/>
      <point x="367" y="136"/>
      <point x="367" y="214" type="curve" smooth="yes"/>
      <point x="367" y="254"/>
      <point x="346" y="286"/>
      <point x="325" y="310" type="curve" smooth="yes"/>
      <point x="293" y="347"/>
      <point x="270" y="362"/>
      <point x="205" y="376" type="curve" smooth="yes"/>
      <point x="145" y="388"/>
      <point x="117" y="427"/>
      <point x="117" y="467" type="curve"/>
      <point x="47" y="467" type="line"/>
      <point x="47" y="160" type="line" smooth="yes"/>
      <point x="47" y="67"/>
      <point x="117" y="3"/>
      <point x="166" y="3" type="curve" smooth="yes"/>
    </contour>
    <contour>
      <point x="127" y="87"/>
      <point x="117" y="96"/>
      <point x="117" y="130" type="curve" smooth="yes"/>
      <point x="117" y="421" type="line"/>
      <point x="82" y="440" type="line"/>
      <point x="108" y="342"/>
      <point x="157" y="293"/>
      <point x="239" y="277" type="curve" smooth="yes"/>
      <point x="272" y="270"/>
      <point x="279" y="267"/>
      <point x="279" y="248" type="curve" smooth="yes"/>
      <point x="279" y="199"/>
      <point x="188" y="87"/>
      <point x="139" y="87" type="curve" smooth="yes"/>
    </contour>
    <contour>
      <point x="413" y="456" type="line"/>
      <point x="413" y="514" type="line"/>
      <point x="-25" y="514" type="line"/>
      <point x="-25" y="456" type="line"/>
    </contour>
  </outline>
</glyph>
<glyph name="bCandrabindu" format="1">
  <advance width="0"/>
  <outline>
    <contour>
      <point x="-20" y="672"/>
      <point x="-52" y="647"/>
      <point x="-94" y="647" type="curve" smooth="yes"/>
      <point x="-133" y="647"/>
      <point x="-168" y="669"/>
      <point x="-195" y="725" type="curve"/>
      <point x="-233" y="703" type="line"/>
      <point x="-193" y="614"/>
      <point x="-149" y="575"/>
      <point x="-88" y="575" type="curve" smooth="yes"/>
      <point x="-22" y="575"/>
      <point x="15" y="619"/>
      <point x="46" y="698" type="curve"/>
      <point x="2" y="721" type="line"/>
    </contour>
    <contour>
      <point x="-68" y="686"/>
      <point x="-49" y="706"/>
      <point x="-49" y="730" type="curve" smooth="yes"/>
      <point x="-49" y="754"/>
      <point x="-68" y="774"/>
      <point x="-93" y="774" type="curve" smooth="yes"/>
      <point x="-118" y="774"/>
      <point x="-138" y="754"/>
      <point x="-138" y="730" type="curve" smooth="yes"/>
      <point x="-138" y="706"/>
      <point x="-118" y="686"/>
      <point x="-93" y="686" type="curve" smooth="yes"/>
    </contour>
  </outline>
</glyph>
<glyph name="bChBa" format="1">
  <advance width="434"/>
  <outline>
    <contour>
      <point x="440" y="9" type="line"/>
      <point x="352" y="73"/>
      <point x="283" y="114"/>
      <point x="198" y="139" type="curve"/>
      <point x="198" y="89" type="line"/>
      <point x="331" y="108"/>
      <point x="401" y="185"/>
      <point x="401" y="261" type="curve" smooth="yes"/>
      <point x="401" y="338"/>
      <point x="330" y="407"/>
      <point x="249" y="407" type="curve" smooth="yes"/>
      <point x="234" y="407"/>
      <point x="206" y="405"/>
      <point x="193" y="405" type="curve" smooth="yes"/>
      <point x="148" y="405"/>
      <point x="108" y="429"/>
      <point x="105" y="467" type="curve"/>
      <point x="36" y="467" type="line"/>
      <point x="36" y="329" type="line" smooth="yes"/>
      <point x="36" y="275"/>
      <point x="83" y="211"/>
      <point x="145" y="211" type="curve" smooth="yes"/>
      <point x="200" y="211"/>
      <point x="266" y="263"/>
      <point x="266" y="308" type="curve" smooth="yes"/>
      <point x="266" y="337"/>
      <point x="239" y="368"/>
      <point x="198" y="378" type="curve"/>
      <point x="168" y="344" type="line"/>
      <point x="180" y="340"/>
      <point x="182" y="335"/>
      <point x="182" y="330" type="curve" smooth="yes"/>
      <point x="182" y="311"/>
      <point x="142" y="283"/>
      <point x="121" y="283" type="curve" smooth="yes"/>
      <point x="111" y="283"/>
      <point x="106" y="290"/>
      <point x="106" y="307" type="curve" smooth="yes"/>
      <point x="106" y="458" type="line"/>
      <point x="84" y="437" type="line"/>
      <point x="99" y="371"/>
      <point x="155" y="337"/>
      <point x="209" y="337" type="curve" smooth="yes"/>
      <point x="258" y="337"/>
      <point x="262" y="338"/>
      <point x="273" y="338" type="curve" smooth="yes"/>
      <point x="308" y="338"/>
      <point x="321" y="322"/>
      <point x="321" y="297" type="curve" smooth="yes"/>
      <point x="321" y="235"/>
      <point x="247" y="173"/>
      <point x="151" y="173" type="curve" smooth="yes"/>
      <point x="124" y="173"/>
      <point x="86" y="178"/>
      <point x="52" y="186" type="curve"/>
      <point x="105" y="83" type="line"/>
      <point x="223" y="70"/>
      <point x="307" y="35"/>
      <point x="408" y="-32" type="curve"/>
    </contour>
    <contour>
      <point x="350" y="-150" type="line"/>
      <point x="350" y="61" type="line"/>
      <point x="281" y="103" type="line"/>
      <point x="214" y="80"/>
      <point x="167" y="59"/>
      <point x="94" y="14" type="curve"/>
      <point x="156" y="-74" type="line"/>
      <point x="228" y="-86"/>
      <point x="281" y="-105"/>
      <point x="298" y="-150" type="curve"/>
    </contour>
    <contour>
      <point x="317" y="-115" type="line"/>
      <point x="289" y="-59"/>
      <point x="235" y="-18"/>
      <point x="151" y="3" type="curve"/>
      <point x="171" y="-34" type="line"/>
      <point x="237" y="8"/>
      <point x="291" y="35"/>
      <point x="339" y="52" type="curve"/>
      <point x="288" y="54" type="line"/>
      <point x="288" y="-94" type="line"/>
    </contour>
    <contour>
      <point x="459" y="456" type="line"/>
      <point x="459" y="514" type="line"/>
      <point x="-25" y="514" type="line"/>
      <point x="-25" y="456" type="line"/>
    </contour>
  </outline>
</glyph>
<glyph name="bChRa" format="1">
  <advance width="481"/>
  <outline>
    <contour>
      <point x="488" y="9" type="line"/>
      <point x="400" y="74"/>
      <point x="331" y="114"/>
      <point x="246" y="139" type="curve"/>
      <point x="246" y="85" type="line"/>
      <point x="375" y="102"/>
      <point x="449" y="181"/>
      <point x="449" y="260" type="curve" smooth="yes"/>
      <point x="449" y="338"/>
      <point x="378" y="407"/>
      <point x="297" y="407" type="curve" smooth="yes"/>
      <point x="282" y="407"/>
      <point x="254" y="405"/>
      <point x="241" y="405" type="curve" smooth="yes"/>
      <point x="196" y="405"/>
      <point x="156" y="429"/>
      <point x="153" y="467" type="curve"/>
      <point x="84" y="467" type="line"/>
      <point x="84" y="325" type="line" smooth="yes"/>
      <point x="84" y="271"/>
      <point x="132" y="208"/>
      <point x="192" y="208" type="curve" smooth="yes"/>
      <point x="248" y="208"/>
      <point x="314" y="261"/>
      <point x="314" y="307" type="curve" smooth="yes"/>
      <point x="314" y="337"/>
      <point x="287" y="368"/>
      <point x="246" y="378" type="curve"/>
      <point x="216" y="344" type="line"/>
      <point x="228" y="340"/>
      <point x="230" y="335"/>
      <point x="230" y="330" type="curve" smooth="yes"/>
      <point x="230" y="309"/>
      <point x="190" y="279"/>
      <point x="169" y="279" type="curve" smooth="yes"/>
      <point x="159" y="279"/>
      <point x="154" y="286"/>
      <point x="154" y="303" type="curve" smooth="yes"/>
      <point x="154" y="458" type="line"/>
      <point x="132" y="437" type="line"/>
      <point x="147" y="371"/>
      <point x="203" y="337"/>
      <point x="257" y="337" type="curve" smooth="yes"/>
      <point x="306" y="337"/>
      <point x="310" y="338"/>
      <point x="321" y="338" type="curve" smooth="yes"/>
      <point x="355" y="338"/>
      <point x="369" y="322"/>
      <point x="369" y="298" type="curve" smooth="yes"/>
      <point x="369" y="241"/>
      <point x="295" y="169"/>
      <point x="198" y="169" type="curve" smooth="yes"/>
      <point x="172" y="169"/>
      <point x="134" y="174"/>
      <point x="100" y="182" type="curve"/>
      <point x="153" y="72" type="line"/>
      <point x="271" y="67"/>
      <point x="355" y="35"/>
      <point x="456" y="-32" type="curve"/>
    </contour>
    <contour>
      <point x="395" y="-116" type="line"/>
      <point x="395" y="67" type="line"/>
      <point x="334" y="67" type="line"/>
      <point x="334" y="-62" type="line"/>
      <point x="360" y="-87" type="line"/>
      <point x="341" y="-21"/>
      <point x="295" y="19"/>
      <point x="231" y="19" type="curve" smooth="yes"/>
      <point x="214" y="19"/>
      <point x="158" y="16"/>
      <point x="141" y="16" type="curve" smooth="yes"/>
      <point x="94" y="16"/>
      <point x="66" y="36"/>
      <point x="66" y="77" type="curve" smooth="yes"/>
      <point x="66" y="96"/>
      <point x="72" y="118"/>
      <point x="79" y="136" type="curve"/>
      <point x="38" y="152" type="line"/>
      <point x="27" y="129"/>
      <point x="20" y="99"/>
      <point x="20" y="72" type="curve" smooth="yes"/>
      <point x="20" y="-9"/>
      <point x="84" y="-70"/>
      <point x="166" y="-70" type="curve" smooth="yes"/>
      <point x="196" y="-70"/>
      <point x="251" y="-61"/>
      <point x="278" y="-61" type="curve" smooth="yes"/>
      <point x="316" y="-61"/>
      <point x="339" y="-80"/>
      <point x="344" y="-116" type="curve"/>
    </contour>
    <contour>
      <point x="507" y="456" type="line"/>
      <point x="507" y="514" type="line"/>
      <point x="-25" y="514" type="line"/>
      <point x="-25" y="456" type="line"/>
    </contour>
  </outline>
</glyph>
<glyph name="bCha" format="1">
  <advance width="437"/>
  <outline>
    <contour>
      <point x="444" y="-15" type="line"/>
      <point x="354" y="52"/>
      <point x="284" y="93"/>
      <point x="198" y="119" type="curve"/>
      <point x="198" y="65" type="line"/>
      <point x="332" y="82"/>
      <point x="407" y="168"/>
      <point x="407" y="250" type="curve" smooth="yes"/>
      <point x="407" y="330"/>
      <point x="335" y="399"/>
      <point x="250" y="399" type="curve" smooth="yes"/>
      <point x="235" y="399"/>
      <point x="207" y="397"/>
      <point x="194" y="397" type="curve" smooth="yes"/>
      <point x="148" y="397"/>
      <point x="108" y="424"/>
      <point x="105" y="467" type="curve"/>
      <point x="36" y="467" type="line"/>
      <point x="36" y="309" type="line" smooth="yes"/>
      <point x="36" y="255"/>
      <point x="84" y="192"/>
      <point x="144" y="192" type="curve" smooth="yes"/>
      <point x="200" y="192"/>
      <point x="267" y="250"/>
      <point x="267" y="298" type="curve" smooth="yes"/>
      <point x="267" y="329"/>
      <point x="240" y="359"/>
      <point x="198" y="369" type="curve"/>
      <point x="168" y="335" type="line"/>
      <point x="181" y="331"/>
      <point x="184" y="326"/>
      <point x="184" y="320" type="curve" smooth="yes"/>
      <point x="184" y="298"/>
      <point x="143" y="263"/>
      <point x="121" y="263" type="curve" smooth="yes"/>
      <point x="111" y="263"/>
      <point x="106" y="270"/>
      <point x="106" y="288" type="curve" smooth="yes"/>
      <point x="106" y="458" type="line"/>
      <point x="84" y="429" type="line"/>
      <point x="99" y="363"/>
      <point x="155" y="328"/>
      <point x="209" y="328" type="curve" smooth="yes"/>
      <point x="258" y="328"/>
      <point x="263" y="330"/>
      <point x="274" y="330" type="curve" smooth="yes"/>
      <point x="313" y="330"/>
      <point x="327" y="313"/>
      <point x="327" y="287" type="curve" smooth="yes"/>
      <point x="327" y="226"/>
      <point x="251" y="149"/>
      <point x="149" y="149" type="curve" smooth="yes"/>
      <point x="124" y="149"/>
      <point x="86" y="154"/>
      <point x="52" y="162" type="curve"/>
      <point x="105" y="52" type="line"/>
      <point x="224" y="46"/>
      <point x="309" y="14"/>
      <point x="411" y="-56" type="curve"/>
    </contour>
    <contour>
      <point x="462" y="456" type="line"/>
      <point x="462" y="514" type="line"/>
      <point x="-25" y="514" type="line"/>
      <point x="-25" y="456" type="line"/>
    </contour>
  </outline>
</glyph>
<glyph name="bDBa" format="1">
  <advance width="433"/>
  <outline>
    <contour>
      <point x="389" y="-45" type="line"/>
      <point x="389" y="287" type="line" smooth="yes"/>
      <point x="389" y="349"/>
      <point x="327" y="418"/>
      <point x="269" y="418" type="curve" smooth="yes"/>
      <point x="215" y="418"/>
      <point x="136" y="369"/>
      <point x="73" y="286" type="curve"/>
      <point x="114" y="255" type="line"/>
      <point x="114" y="467" type="line"/>
      <point x="44" y="467" type="line"/>
      <point x="44" y="274" type="line"/>
      <point x="123" y="209" type="line"/>
      <point x="173" y="277"/>
      <point x="251" y="334"/>
      <point x="292" y="334" type="curve" smooth="yes"/>
      <point x="308" y="334"/>
      <point x="319" y="325"/>
      <point x="319" y="299" type="curve" smooth="yes"/>
      <point x="319" y="15" type="line"/>
      <point x="359" y="-16" type="line"/>
      <point x="330" y="69"/>
      <point x="245" y="138"/>
      <point x="147" y="152" type="curve"/>
      <point x="182" y="102" type="line"/>
      <point x="258" y="159"/>
      <point x="312" y="191"/>
      <point x="377" y="220" type="curve"/>
      <point x="353" y="299" type="line"/>
      <point x="293" y="276"/>
      <point x="203" y="226"/>
      <point x="106" y="154" type="curve"/>
      <point x="165" y="72" type="line"/>
      <point x="253" y="60"/>
      <point x="320" y="22"/>
      <point x="337" y="-45" type="curve"/>
    </contour>
    <contour>
      <point x="458" y="456" type="line"/>
      <point x="458" y="514" type="line"/>
      <point x="-25" y="514" type="line"/>
      <point x="-25" y="456" type="line"/>
    </contour>
  </outline>
</glyph>
<glyph name="bDBhRa" format="1">
  <advance width="476"/>
  <outline>
    <contour>
      <point x="460" y="-149" type="line"/>
      <point x="460" y="61" type="line" smooth="yes"/>
      <point x="460" y="124"/>
      <point x="425" y="183"/>
      <point x="386" y="215" type="curve"/>
      <point x="346" y="159"/>
      <point x="297" y="124"/>
      <point x="253" y="124" type="curve" smooth="yes"/>
      <point x="242" y="124"/>
      <point x="226" y="126"/>
      <point x="214" y="131" type="curve"/>
      <point x="224" y="89" type="line"/>
      <point x="252" y="102"/>
      <point x="265" y="120"/>
      <point x="265" y="145" type="curve" smooth="yes"/>
      <point x="265" y="182"/>
      <point x="236" y="207"/>
      <point x="203" y="207" type="curve" smooth="yes"/>
      <point x="167" y="207"/>
      <point x="140" y="176"/>
      <point x="140" y="139" type="curve" smooth="yes"/>
      <point x="140" y="89"/>
      <point x="188" y="42"/>
      <point x="262" y="42" type="curve" smooth="yes"/>
      <point x="337" y="42"/>
      <point x="397" y="93"/>
      <point x="426" y="142" type="curve"/>
      <point x="365" y="147" type="line"/>
      <point x="378" y="136"/>
      <point x="390" y="113"/>
      <point x="390" y="85" type="curve" smooth="yes"/>
      <point x="390" y="-73" type="line"/>
      <point x="423" y="-111" type="line"/>
      <point x="405" y="-46"/>
      <point x="364" y="1"/>
      <point x="299" y="1" type="curve" smooth="yes"/>
      <point x="273" y="1"/>
      <point x="197" y="-6"/>
      <point x="165" y="-6" type="curve" smooth="yes"/>
      <point x="105" y="-6"/>
      <point x="70" y="21"/>
      <point x="70" y="75" type="curve" smooth="yes"/>
      <point x="70" y="105"/>
      <point x="81" y="139"/>
      <point x="95" y="164" type="curve"/>
      <point x="56" y="185" type="line"/>
      <point x="31" y="148"/>
      <point x="18" y="108"/>
      <point x="18" y="67" type="curve" smooth="yes"/>
      <point x="18" y="-27"/>
      <point x="90" y="-97"/>
      <point x="196" y="-97" type="curve" smooth="yes"/>
      <point x="237" y="-97"/>
      <point x="305" y="-86"/>
      <point x="341" y="-86" type="curve" smooth="yes"/>
      <point x="389" y="-86"/>
      <point x="406" y="-110"/>
      <point x="408" y="-149" type="curve"/>
    </contour>
    <contour>
      <point x="352" y="138"/>
      <point x="348" y="164"/>
      <point x="348" y="200" type="curve" smooth="yes"/>
      <point x="348" y="269"/>
      <point x="364" y="310"/>
      <point x="413" y="363" type="curve"/>
      <point x="328" y="434" type="line"/>
      <point x="247" y="411"/>
      <point x="183" y="368"/>
      <point x="130" y="309" type="curve"/>
      <point x="166" y="279" type="line"/>
      <point x="166" y="467" type="line"/>
      <point x="96" y="467" type="line"/>
      <point x="96" y="290" type="line"/>
      <point x="175" y="224" type="line"/>
      <point x="229" y="287"/>
      <point x="281" y="320"/>
      <point x="342" y="343" type="curve"/>
      <point x="327" y="385" type="line"/>
      <point x="301" y="356"/>
      <point x="288" y="301"/>
      <point x="288" y="245" type="curve" smooth="yes"/>
      <point x="288" y="204"/>
      <point x="295" y="159"/>
      <point x="309" y="114" type="curve"/>
      <point x="360" y="102" type="line"/>
    </contour>
    <contour>
      <point x="501" y="456" type="line"/>
      <point x="501" y="514" type="line"/>
      <point x="-25" y="514" type="line"/>
      <point x="-25" y="456" type="line"/>
    </contour>
  </outline>
</glyph>
<glyph name="bDBha" format="1">
  <advance width="534"/>
  <outline>
    <contour>
      <point x="454" y="-115"/>
      <point x="528" y="-46"/>
      <point x="528" y="51" type="curve" smooth="yes"/>
      <point x="528" y="119"/>
      <point x="493" y="183"/>
      <point x="453" y="220" type="curve"/>
      <point x="409" y="160"/>
      <point x="357" y="124"/>
      <point x="308" y="124" type="curve" smooth="yes"/>
      <point x="298" y="124"/>
      <point x="282" y="126"/>
      <point x="270" y="131" type="curve"/>
      <point x="279" y="89" type="line"/>
      <point x="307" y="102"/>
      <point x="320" y="120"/>
      <point x="320" y="145" type="curve" smooth="yes"/>
      <point x="320" y="182"/>
      <point x="292" y="207"/>
      <point x="259" y="207" type="curve" smooth="yes"/>
      <point x="223" y="207"/>
      <point x="196" y="176"/>
      <point x="196" y="139" type="curve" smooth="yes"/>
      <point x="196" y="89"/>
      <point x="244" y="42"/>
      <point x="318" y="42" type="curve" smooth="yes"/>
      <point x="396" y="42"/>
      <point x="460" y="95"/>
      <point x="491" y="147" type="curve"/>
      <point x="436" y="147" type="line"/>
      <point x="450" y="136"/>
      <point x="463" y="113"/>
      <point x="463" y="85" type="curve" smooth="yes"/>
      <point x="463" y="27"/>
      <point x="407" y="-11"/>
      <point x="336" y="-11" type="curve" smooth="yes"/>
      <point x="210" y="-11"/>
      <point x="120" y="116"/>
      <point x="47" y="392" type="curve"/>
      <point x="-3" y="378" type="line"/>
      <point x="83" y="47"/>
      <point x="207" y="-115"/>
      <point x="355" y="-115" type="curve" smooth="yes"/>
    </contour>
    <contour>
      <point x="407" y="138"/>
      <point x="403" y="164"/>
      <point x="403" y="200" type="curve" smooth="yes"/>
      <point x="403" y="269"/>
      <point x="419" y="310"/>
      <point x="468" y="363" type="curve"/>
      <point x="383" y="434" type="line"/>
      <point x="302" y="411"/>
      <point x="238" y="368"/>
      <point x="185" y="309" type="curve"/>
      <point x="221" y="279" type="line"/>
      <point x="221" y="467" type="line"/>
      <point x="151" y="467" type="line"/>
      <point x="151" y="290" type="line"/>
      <point x="230" y="224" type="line"/>
      <point x="284" y="287"/>
      <point x="336" y="320"/>
      <point x="397" y="343" type="curve"/>
      <point x="382" y="385" type="line"/>
      <point x="356" y="356"/>
      <point x="343" y="301"/>
      <point x="343" y="245" type="curve" smooth="yes"/>
      <point x="343" y="204"/>
      <point x="350" y="159"/>
      <point x="364" y="114" type="curve"/>
      <point x="415" y="102" type="line"/>
    </contour>
    <contour>
      <point x="559" y="456" type="line"/>
      <point x="559" y="514" type="line"/>
      <point x="-25" y="514" type="line"/>
      <point x="-25" y="456" type="line"/>
    </contour>
  </outline>
</glyph>
<glyph name="bDDBa" format="1">
  <advance width="577"/>
  <outline>
    <contour>
      <point x="504" y="-120" type="line"/>
      <point x="490" y="-47"/>
      <point x="485" y="26"/>
      <point x="485" y="67" type="curve" smooth="yes"/>
      <point x="485" y="148"/>
      <point x="506" y="196"/>
      <point x="561" y="261" type="curve"/>
      <point x="476" y="335" type="line"/>
      <point x="388" y="298"/>
      <point x="311" y="223"/>
      <point x="266" y="138" type="curve"/>
      <point x="297" y="144" type="line"/>
      <point x="297" y="225"/>
      <point x="316" y="281"/>
      <point x="372" y="351" type="curve"/>
      <point x="286" y="424" type="line"/>
      <point x="201" y="387"/>
      <point x="125" y="318"/>
      <point x="78" y="238" type="curve"/>
      <point x="114" y="200" type="line"/>
      <point x="114" y="467" type="line"/>
      <point x="44" y="467" type="line"/>
      <point x="44" y="212" type="line"/>
      <point x="123" y="138" type="line"/>
      <point x="172" y="227"/>
      <point x="236" y="289"/>
      <point x="300" y="322" type="curve"/>
      <point x="287" y="373" type="line"/>
      <point x="251" y="337"/>
      <point x="234" y="274"/>
      <point x="234" y="203" type="curve" smooth="yes"/>
      <point x="234" y="179"/>
      <point x="236" y="153"/>
      <point x="239" y="125" type="curve"/>
      <point x="311" y="68" type="line"/>
      <point x="359" y="144"/>
      <point x="423" y="204"/>
      <point x="489" y="236" type="curve"/>
      <point x="476" y="287" type="line"/>
      <point x="440" y="243"/>
      <point x="424" y="188"/>
      <point x="424" y="120" type="curve" smooth="yes"/>
      <point x="424" y="58"/>
      <point x="436" y="-32"/>
      <point x="456" y="-128" type="curve"/>
    </contour>
    <contour>
      <point x="477" y="-100" type="line"/>
      <point x="450" y="-57"/>
      <point x="397" y="-24"/>
      <point x="316" y="-8" type="curve"/>
      <point x="344" y="-37" type="line"/>
      <point x="393" y="-4"/>
      <point x="439" y="20"/>
      <point x="480" y="35" type="curve"/>
      <point x="447" y="111" type="line"/>
      <point x="379" y="78"/>
      <point x="332" y="51"/>
      <point x="259" y="4" type="curve"/>
      <point x="321" y="-77" type="line"/>
      <point x="387" y="-80"/>
      <point x="435" y="-95"/>
      <point x="455" y="-128" type="curve"/>
    </contour>
    <contour>
      <point x="602" y="456" type="line"/>
      <point x="602" y="514" type="line"/>
      <point x="-25" y="514" type="line"/>
      <point x="-25" y="456" type="line"/>
    </contour>
  </outline>
</glyph>
<glyph name="bDDRa" format="1">
  <advance width="628"/>
  <outline>
    <contour>
      <point x="553" y="-85" type="line"/>
      <point x="541" y="-29"/>
      <point x="536" y="27"/>
      <point x="536" y="65" type="curve" smooth="yes"/>
      <point x="536" y="141"/>
      <point x="557" y="196"/>
      <point x="611" y="263" type="curve"/>
      <point x="526" y="338" type="line"/>
      <point x="438" y="301"/>
      <point x="362" y="226"/>
      <point x="317" y="142" type="curve"/>
      <point x="346" y="143" type="line"/>
      <point x="346" y="225"/>
      <point x="366" y="281"/>
      <point x="423" y="351" type="curve"/>
      <point x="336" y="424" type="line"/>
      <point x="252" y="387"/>
      <point x="177" y="318"/>
      <point x="130" y="238" type="curve"/>
      <point x="167" y="200" type="line"/>
      <point x="167" y="467" type="line"/>
      <point x="97" y="467" type="line"/>
      <point x="97" y="212" type="line"/>
      <point x="175" y="138" type="line"/>
      <point x="224" y="227"/>
      <point x="287" y="289"/>
      <point x="350" y="322" type="curve"/>
      <point x="337" y="373" type="line"/>
      <point x="301" y="337"/>
      <point x="284" y="272"/>
      <point x="284" y="201" type="curve" smooth="yes"/>
      <point x="284" y="177"/>
      <point x="286" y="152"/>
      <point x="290" y="125" type="curve"/>
      <point x="370" y="71" type="line"/>
      <point x="416" y="152"/>
      <point x="477" y="209"/>
      <point x="539" y="239" type="curve"/>
      <point x="526" y="289" type="line"/>
      <point x="490" y="242"/>
      <point x="473" y="171"/>
      <point x="473" y="105" type="curve" smooth="yes"/>
      <point x="473" y="63"/>
      <point x="480" y="18"/>
      <point x="491" y="-33" type="curve"/>
      <point x="509" y="-40" type="line"/>
      <point x="485" y="8"/>
      <point x="428" y="41"/>
      <point x="363" y="41" type="curve" smooth="yes"/>
      <point x="332" y="41"/>
      <point x="213" y="34"/>
      <point x="174" y="34" type="curve" smooth="yes"/>
      <point x="103" y="34"/>
      <point x="69" y="58"/>
      <point x="69" y="107" type="curve" smooth="yes"/>
      <point x="69" y="125"/>
      <point x="74" y="144"/>
      <point x="80" y="160" type="curve"/>
      <point x="41" y="176" type="line"/>
      <point x="30" y="153"/>
      <point x="23" y="125"/>
      <point x="23" y="99" type="curve" smooth="yes"/>
      <point x="23" y="16"/>
      <point x="95" y="-52"/>
      <point x="207" y="-52" type="curve" smooth="yes"/>
      <point x="259" y="-52"/>
      <point x="373" y="-37"/>
      <point x="422" y="-37" type="curve" smooth="yes"/>
      <point x="471" y="-37"/>
      <point x="493" y="-54"/>
      <point x="503" y="-93" type="curve"/>
    </contour>
    <contour>
      <point x="653" y="456" type="line"/>
      <point x="653" y="514" type="line"/>
      <point x="-25" y="514" type="line"/>
      <point x="-25" y="456" type="line"/>
    </contour>
  </outline>
</glyph>
<glyph name="bDDa" format="1">
  <advance width="577"/>
  <outline>
    <contour>
      <point x="496" y="-59" type="line"/>
      <point x="488" y="-13"/>
      <point x="486" y="34"/>
      <point x="486" y="61" type="curve" smooth="yes"/>
      <point x="486" y="140"/>
      <point x="507" y="188"/>
      <point x="561" y="253" type="curve"/>
      <point x="476" y="328" type="line"/>
      <point x="388" y="291"/>
      <point x="311" y="217"/>
      <point x="266" y="133" type="curve"/>
      <point x="297" y="138" type="line"/>
      <point x="297" y="222"/>
      <point x="316" y="279"/>
      <point x="372" y="351" type="curve"/>
      <point x="286" y="424" type="line"/>
      <point x="201" y="387"/>
      <point x="125" y="318"/>
      <point x="78" y="238" type="curve"/>
      <point x="114" y="200" type="line"/>
      <point x="114" y="467" type="line"/>
      <point x="44" y="467" type="line"/>
      <point x="44" y="212" type="line"/>
      <point x="123" y="138" type="line"/>
      <point x="172" y="227"/>
      <point x="236" y="289"/>
      <point x="300" y="322" type="curve"/>
      <point x="287" y="373" type="line"/>
      <point x="251" y="335"/>
      <point x="234" y="267"/>
      <point x="234" y="192" type="curve" smooth="yes"/>
      <point x="234" y="167"/>
      <point x="236" y="140"/>
      <point x="239" y="112" type="curve"/>
      <point x="311" y="40" type="line"/>
      <point x="359" y="131"/>
      <point x="423" y="194"/>
      <point x="489" y="228" type="curve"/>
      <point x="476" y="279" type="line"/>
      <point x="440" y="236"/>
      <point x="422" y="174"/>
      <point x="422" y="109" type="curve" smooth="yes"/>
      <point x="422" y="61"/>
      <point x="431" y="-3"/>
      <point x="446" y="-67" type="curve"/>
    </contour>
    <contour>
      <point x="602" y="456" type="line"/>
      <point x="602" y="514" type="line"/>
      <point x="-25" y="514" type="line"/>
      <point x="-25" y="456" type="line"/>
    </contour>
  </outline>
</glyph>
<glyph name="bDDhBa" format="1">
  <advance width="573"/>
  <outline>
    <contour>
      <point x="389" y="70" type="line"/>
      <point x="389" y="297" type="line" smooth="yes"/>
      <point x="389" y="359"/>
      <point x="327" y="428"/>
      <point x="268" y="428" type="curve" smooth="yes"/>
      <point x="215" y="428"/>
      <point x="136" y="375"/>
      <point x="73" y="286" type="curve"/>
      <point x="114" y="255" type="line"/>
      <point x="114" y="467" type="line"/>
      <point x="44" y="467" type="line"/>
      <point x="44" y="274" type="line"/>
      <point x="123" y="209" type="line"/>
      <point x="173" y="283"/>
      <point x="251" y="344"/>
      <point x="291" y="344" type="curve" smooth="yes"/>
      <point x="308" y="344"/>
      <point x="319" y="335"/>
      <point x="319" y="309" type="curve" smooth="yes"/>
      <point x="319" y="70" type="line"/>
    </contour>
    <contour>
      <point x="389" y="-113" type="line"/>
      <point x="389" y="102" type="line"/>
      <point x="344" y="144" type="line"/>
      <point x="275" y="111"/>
      <point x="230" y="86"/>
      <point x="156" y="36" type="curve"/>
      <point x="209" y="-43" type="line"/>
      <point x="266" y="-47"/>
      <point x="323" y="-71"/>
      <point x="338" y="-113" type="curve"/>
    </contour>
    <contour>
      <point x="352" y="-79" type="line"/>
      <point x="330" y="-30"/>
      <point x="283" y="8"/>
      <point x="211" y="24" type="curve"/>
      <point x="231" y="-5" type="line"/>
      <point x="282" y="33"/>
      <point x="328" y="58"/>
      <point x="369" y="74" type="curve"/>
      <point x="326" y="79" type="line"/>
      <point x="326" y="-57" type="line"/>
    </contour>
    <contour>
      <point x="292" y="86" type="line"/>
      <point x="251" y="125"/>
      <point x="197" y="152"/>
      <point x="139" y="162" type="curve"/>
      <point x="171" y="115" type="line"/>
      <point x="249" y="167"/>
      <point x="309" y="199"/>
      <point x="377" y="229" type="curve"/>
      <point x="351" y="307" type="line"/>
      <point x="290" y="281"/>
      <point x="195" y="230"/>
      <point x="97" y="163" type="curve"/>
      <point x="156" y="83" type="line"/>
      <point x="197" y="78"/>
      <point x="232" y="68"/>
      <point x="262" y="52" type="curve"/>
    </contour>
    <contour>
      <point x="561" y="-19" type="line"/>
      <point x="543" y="-3"/>
      <point x="532" y="18"/>
      <point x="532" y="42" type="curve" smooth="yes"/>
      <point x="532" y="221" type="line" smooth="yes"/>
      <point x="532" y="273"/>
      <point x="478" y="341"/>
      <point x="438" y="341" type="curve" smooth="yes"/>
      <point x="420" y="341"/>
      <point x="383" y="329"/>
      <point x="349" y="306" type="curve"/>
      <point x="379" y="231" type="line"/>
      <point x="406" y="249"/>
      <point x="440" y="264"/>
      <point x="454" y="264" type="curve" smooth="yes"/>
      <point x="461" y="264"/>
      <point x="464" y="260"/>
      <point x="464" y="248" type="curve" smooth="yes"/>
      <point x="464" y="62" type="line" smooth="yes"/>
      <point x="464" y="3"/>
      <point x="494" y="-27"/>
      <point x="538" y="-53" type="curve"/>
    </contour>
    <contour>
      <point x="598" y="456" type="line"/>
      <point x="598" y="514" type="line"/>
      <point x="-25" y="514" type="line"/>
      <point x="-25" y="456" type="line"/>
    </contour>
  </outline>
</glyph>
<glyph name="bDDha" format="1">
  <advance width="573"/>
  <outline>
    <contour>
      <point x="389" y="-45" type="line"/>
      <point x="389" y="287" type="line" smooth="yes"/>
      <point x="389" y="349"/>
      <point x="327" y="418"/>
      <point x="268" y="418" type="curve" smooth="yes"/>
      <point x="215" y="418"/>
      <point x="136" y="369"/>
      <point x="73" y="286" type="curve"/>
      <point x="114" y="255" type="line"/>
      <point x="114" y="467" type="line"/>
      <point x="44" y="467" type="line"/>
      <point x="44" y="274" type="line"/>
      <point x="123" y="209" type="line"/>
      <point x="173" y="277"/>
      <point x="251" y="334"/>
      <point x="291" y="334" type="curve" smooth="yes"/>
      <point x="308" y="334"/>
      <point x="319" y="325"/>
      <point x="319" y="299" type="curve" smooth="yes"/>
      <point x="319" y="15" type="line"/>
      <point x="359" y="-16" type="line"/>
      <point x="330" y="69"/>
      <point x="245" y="138"/>
      <point x="147" y="152" type="curve"/>
      <point x="182" y="102" type="line"/>
      <point x="258" y="158"/>
      <point x="312" y="192"/>
      <point x="377" y="224" type="curve"/>
      <point x="353" y="303" type="line"/>
      <point x="293" y="277"/>
      <point x="203" y="225"/>
      <point x="106" y="154" type="curve"/>
      <point x="165" y="72" type="line"/>
      <point x="253" y="60"/>
      <point x="320" y="22"/>
      <point x="339" y="-45" type="curve"/>
    </contour>
    <contour>
      <point x="561" y="1" type="line"/>
      <point x="543" y="17"/>
      <point x="532" y="38"/>
      <point x="532" y="62" type="curve" smooth="yes"/>
      <point x="532" y="214" type="line" smooth="yes"/>
      <point x="532" y="266"/>
      <point x="479" y="334"/>
      <point x="438" y="334" type="curve" smooth="yes"/>
      <point x="421" y="334"/>
      <point x="383" y="323"/>
      <point x="349" y="301" type="curve"/>
      <point x="379" y="226" type="line"/>
      <point x="406" y="243"/>
      <point x="440" y="257"/>
      <point x="453" y="257" type="curve" smooth="yes"/>
      <point x="461" y="257"/>
      <point x="464" y="253"/>
      <point x="464" y="241" type="curve" smooth="yes"/>
      <point x="464" y="82" type="line" smooth="yes"/>
      <point x="464" y="23"/>
      <point x="494" y="-7"/>
      <point x="538" y="-33" type="curve"/>
    </contour>
    <contour>
      <point x="598" y="456" type="line"/>
      <point x="598" y="514" type="line"/>
      <point x="-25" y="514" type="line"/>
      <point x="-25" y="456" type="line"/>
    </contour>
  </outline>
</glyph>
<glyph name="bDGa" format="1">
  <advance width="844"/>
  <outline>
    <contour>
      <point x="790" y="0" type="line"/>
      <point x="790" y="456" type="line"/>
      <point x="870" y="456" type="line"/>
      <point x="870" y="514" type="line"/>
      <point x="720" y="514" type="line"/>
      <point x="720" y="304" type="line"/>
      <point x="761" y="306" type="line"/>
      <point x="729" y="431"/>
      <point x="654" y="523"/>
      <point x="546" y="523" type="curve" smooth="yes"/>
      <point x="448" y="523"/>
      <point x="374" y="445"/>
      <point x="374" y="352" type="curve" smooth="yes"/>
      <point x="374" y="295"/>
      <point x="412" y="253"/>
      <point x="449" y="253" type="curve" smooth="yes"/>
      <point x="494" y="253"/>
      <point x="534" y="302"/>
      <point x="571" y="302" type="curve" smooth="yes"/>
      <point x="585" y="302"/>
      <point x="593" y="294"/>
      <point x="593" y="280" type="curve" smooth="yes"/>
      <point x="593" y="249"/>
      <point x="552" y="195"/>
      <point x="473" y="141" type="curve"/>
      <point x="559" y="71" type="line"/>
      <point x="626" y="126"/>
      <point x="660" y="187"/>
      <point x="660" y="244" type="curve" smooth="yes"/>
      <point x="660" y="308"/>
      <point x="616" y="376"/>
      <point x="540" y="376" type="curve" smooth="yes"/>
      <point x="506" y="376"/>
      <point x="474" y="361"/>
      <point x="431" y="329" type="curve"/>
      <point x="471" y="290" type="line"/>
      <point x="464" y="302"/>
      <point x="462" y="319"/>
      <point x="462" y="330" type="curve" smooth="yes"/>
      <point x="462" y="391"/>
      <point x="512" y="440"/>
      <point x="576" y="440" type="curve" smooth="yes"/>
      <point x="659" y="440"/>
      <point x="720" y="357"/>
      <point x="720" y="254" type="curve" smooth="yes"/>
      <point x="720" y="0" type="line"/>
    </contour>
    <contour>
      <point x="334" y="-4" type="line"/>
      <point x="325" y="50"/>
      <point x="321" y="103"/>
      <point x="321" y="138" type="curve" smooth="yes"/>
      <point x="321" y="215"/>
      <point x="341" y="271"/>
      <point x="402" y="335" type="curve"/>
      <point x="315" y="414" type="line"/>
      <point x="216" y="383"/>
      <point x="129" y="315"/>
      <point x="78" y="236" type="curve"/>
      <point x="114" y="198" type="line"/>
      <point x="114" y="467" type="line"/>
      <point x="44" y="467" type="line"/>
      <point x="44" y="209" type="line"/>
      <point x="121" y="126" type="line"/>
      <point x="180" y="218"/>
      <point x="253" y="280"/>
      <point x="327" y="313" type="curve"/>
      <point x="311" y="371" type="line"/>
      <point x="275" y="332"/>
      <point x="257" y="264"/>
      <point x="257" y="189" type="curve" smooth="yes"/>
      <point x="257" y="131"/>
      <point x="268" y="60"/>
      <point x="284" y="-12" type="curve"/>
    </contour>
    <contour>
      <point x="383" y="456" type="line"/>
      <point x="383" y="514" type="line"/>
      <point x="-25" y="514" type="line"/>
      <point x="-25" y="456" type="line"/>
    </contour>
  </outline>
</glyph>
<glyph name="bDGha" format="1">
  <advance width="785"/>
  <outline>
    <contour>
      <point x="334" y="-4" type="line"/>
      <point x="325" y="50"/>
      <point x="321" y="103"/>
      <point x="321" y="138" type="curve" smooth="yes"/>
      <point x="321" y="215"/>
      <point x="341" y="271"/>
      <point x="402" y="335" type="curve"/>
      <point x="315" y="414" type="line"/>
      <point x="216" y="383"/>
      <point x="129" y="315"/>
      <point x="78" y="236" type="curve"/>
      <point x="114" y="198" type="line"/>
      <point x="114" y="467" type="line"/>
      <point x="44" y="467" type="line"/>
      <point x="44" y="209" type="line"/>
      <point x="121" y="126" type="line"/>
      <point x="180" y="218"/>
      <point x="253" y="280"/>
      <point x="327" y="313" type="curve"/>
      <point x="311" y="371" type="line"/>
      <point x="275" y="332"/>
      <point x="257" y="264"/>
      <point x="257" y="189" type="curve" smooth="yes"/>
      <point x="257" y="131"/>
      <point x="268" y="60"/>
      <point x="284" y="-12" type="curve"/>
    </contour>
    <contour>
      <point x="383" y="456" type="line"/>
      <point x="383" y="514" type="line"/>
      <point x="-25" y="514" type="line"/>
      <point x="-25" y="456" type="line"/>
    </contour>
    <contour>
      <point x="730" y="0" type="line"/>
      <point x="730" y="467" type="line"/>
      <point x="660" y="467" type="line"/>
      <point x="660" y="59" type="line"/>
      <point x="710" y="25" type="line"/>
      <point x="663" y="143"/>
      <point x="564" y="219"/>
      <point x="446" y="246" type="curve"/>
      <point x="472" y="183" type="line"/>
      <point x="632" y="308" type="line"/>
      <point x="565" y="384" type="line"/>
      <point x="382" y="238" type="line"/>
      <point x="453" y="153" type="line"/>
      <point x="577" y="143"/>
      <point x="659" y="74"/>
      <point x="679" y="0" type="curve"/>
    </contour>
    <contour>
      <point x="525" y="292"/>
      <point x="553" y="298"/>
      <point x="577" y="312" type="curve"/>
      <point x="537" y="360" type="line"/>
      <point x="523" y="349"/>
      <point x="507" y="342"/>
      <point x="491" y="342" type="curve" smooth="yes"/>
      <point x="467" y="342"/>
      <point x="449" y="357"/>
      <point x="449" y="381" type="curve" smooth="yes"/>
      <point x="449" y="414"/>
      <point x="483" y="456"/>
      <point x="538" y="456" type="curve"/>
      <point x="407" y="493" type="line"/>
      <point x="380" y="476"/>
      <point x="361" y="442"/>
      <point x="361" y="406" type="curve" smooth="yes"/>
      <point x="361" y="341"/>
      <point x="425" y="292"/>
      <point x="499" y="292" type="curve" smooth="yes"/>
    </contour>
    <contour>
      <point x="810" y="456" type="line"/>
      <point x="810" y="514" type="line"/>
      <point x="257" y="514" type="line"/>
      <point x="283" y="456" type="line"/>
    </contour>
  </outline>
</glyph>
<glyph name="bDMa" format="1">
  <advance width="523"/>
  <outline>
    <contour>
      <point x="468" y="-40" type="line"/>
      <point x="468" y="467" type="line"/>
      <point x="398" y="467" type="line"/>
      <point x="398" y="25" type="line"/>
      <point x="447" y="-14" type="line"/>
      <point x="421" y="82"/>
      <point x="337" y="152"/>
      <point x="265" y="152" type="curve" smooth="yes"/>
      <point x="215" y="152"/>
      <point x="171" y="119"/>
      <point x="171" y="69" type="curve" smooth="yes"/>
      <point x="171" y="25"/>
      <point x="206" y="-7"/>
      <point x="249" y="-7" type="curve" smooth="yes"/>
      <point x="291" y="-7"/>
      <point x="323" y="26"/>
      <point x="323" y="67" type="curve" smooth="yes"/>
      <point x="323" y="86"/>
      <point x="317" y="109"/>
      <point x="294" y="127" type="curve"/>
      <point x="284" y="54" type="line"/>
      <point x="295" y="61"/>
      <point x="308" y="63"/>
      <point x="320" y="63" type="curve" smooth="yes"/>
      <point x="371" y="63"/>
      <point x="406" y="19"/>
      <point x="417" y="-40" type="curve"/>
    </contour>
    <contour>
      <point x="308" y="117"/>
      <point x="303" y="156"/>
      <point x="303" y="191" type="curve" smooth="yes"/>
      <point x="303" y="255"/>
      <point x="320" y="296"/>
      <point x="364" y="352" type="curve"/>
      <point x="279" y="424" type="line"/>
      <point x="196" y="387"/>
      <point x="123" y="318"/>
      <point x="78" y="238" type="curve"/>
      <point x="114" y="208" type="line"/>
      <point x="114" y="467" type="line"/>
      <point x="44" y="467" type="line"/>
      <point x="44" y="212" type="line"/>
      <point x="123" y="145" type="line"/>
      <point x="170" y="231"/>
      <point x="232" y="290"/>
      <point x="293" y="326" type="curve"/>
      <point x="278" y="374" type="line"/>
      <point x="253" y="337"/>
      <point x="239" y="284"/>
      <point x="239" y="233" type="curve" smooth="yes"/>
      <point x="239" y="192"/>
      <point x="248" y="140"/>
      <point x="261" y="90" type="curve"/>
      <point x="321" y="75" type="line"/>
    </contour>
    <contour>
      <point x="548" y="456" type="line"/>
      <point x="548" y="514" type="line"/>
      <point x="-25" y="514" type="line"/>
      <point x="-25" y="456" type="line"/>
    </contour>
  </outline>
</glyph>
<glyph name="bDNa" format="1">
  <advance width="430"/>
  <outline>
    <contour>
      <point x="167" y="-50"/>
      <point x="198" y="-20"/>
      <point x="198" y="18" type="curve" smooth="yes"/>
      <point x="198" y="44"/>
      <point x="183" y="71"/>
      <point x="154" y="84" type="curve"/>
      <point x="152" y="29" type="line"/>
      <point x="162" y="38"/>
      <point x="176" y="43"/>
      <point x="193" y="43" type="curve" smooth="yes"/>
      <point x="237" y="43"/>
      <point x="281" y="14"/>
      <point x="296" y="-49" type="curve"/>
      <point x="345" y="-41" type="line"/>
      <point x="334" y="23"/>
      <point x="329" y="87"/>
      <point x="329" y="128" type="curve" smooth="yes"/>
      <point x="329" y="214"/>
      <point x="349" y="275"/>
      <point x="406" y="345" type="curve"/>
      <point x="319" y="424" type="line"/>
      <point x="220" y="393"/>
      <point x="133" y="325"/>
      <point x="82" y="246" type="curve"/>
      <point x="118" y="208" type="line"/>
      <point x="118" y="467" type="line"/>
      <point x="48" y="467" type="line"/>
      <point x="48" y="219" type="line"/>
      <point x="125" y="144" type="line"/>
      <point x="184" y="231"/>
      <point x="257" y="291"/>
      <point x="331" y="323" type="curve"/>
      <point x="315" y="381" type="line"/>
      <point x="281" y="337"/>
      <point x="266" y="262"/>
      <point x="266" y="177" type="curve" smooth="yes"/>
      <point x="266" y="124"/>
      <point x="272" y="71"/>
      <point x="287" y="1" type="curve"/>
      <point x="317" y="-4" type="line"/>
      <point x="286" y="68"/>
      <point x="224" y="120"/>
      <point x="153" y="120" type="curve" smooth="yes"/>
      <point x="91" y="120"/>
      <point x="49" y="80"/>
      <point x="49" y="31" type="curve" smooth="yes"/>
      <point x="49" y="-14"/>
      <point x="84" y="-50"/>
      <point x="127" y="-50" type="curve" smooth="yes"/>
    </contour>
    <contour>
      <point x="455" y="456" type="line"/>
      <point x="455" y="514" type="line"/>
      <point x="-25" y="514" type="line"/>
      <point x="-25" y="456" type="line"/>
    </contour>
  </outline>
</glyph>
<glyph name="bDRa" format="1">
  <advance width="500"/>
  <outline>
    <contour>
      <point x="424" y="-18" type="line"/>
      <point x="410" y="46"/>
      <point x="404" y="109"/>
      <point x="404" y="152" type="curve" smooth="yes"/>
      <point x="404" y="227"/>
      <point x="423" y="282"/>
      <point x="476" y="345" type="curve"/>
      <point x="389" y="424" type="line"/>
      <point x="291" y="393"/>
      <point x="203" y="325"/>
      <point x="152" y="246" type="curve"/>
      <point x="188" y="208" type="line"/>
      <point x="188" y="467" type="line"/>
      <point x="118" y="467" type="line"/>
      <point x="118" y="219" type="line"/>
      <point x="195" y="144" type="line"/>
      <point x="254" y="231"/>
      <point x="328" y="291"/>
      <point x="401" y="323" type="curve"/>
      <point x="385" y="381" type="line"/>
      <point x="355" y="343"/>
      <point x="340" y="274"/>
      <point x="340" y="205" type="curve" smooth="yes"/>
      <point x="340" y="145"/>
      <point x="352" y="77"/>
      <point x="368" y="8" type="curve"/>
      <point x="390" y="1" type="line"/>
      <point x="368" y="72"/>
      <point x="313" y="111"/>
      <point x="247" y="111" type="curve" smooth="yes"/>
      <point x="220" y="111"/>
      <point x="172" y="104"/>
      <point x="145" y="104" type="curve" smooth="yes"/>
      <point x="93" y="104"/>
      <point x="65" y="128"/>
      <point x="65" y="176" type="curve" smooth="yes"/>
      <point x="65" y="197"/>
      <point x="70" y="222"/>
      <point x="78" y="240" type="curve"/>
      <point x="39" y="257" type="line"/>
      <point x="25" y="231"/>
      <point x="18" y="197"/>
      <point x="18" y="169" type="curve" smooth="yes"/>
      <point x="18" y="84"/>
      <point x="83" y="20"/>
      <point x="174" y="20" type="curve" smooth="yes"/>
      <point x="210" y="20"/>
      <point x="264" y="31"/>
      <point x="298" y="31" type="curve" smooth="yes"/>
      <point x="347" y="31"/>
      <point x="365" y="9"/>
      <point x="374" y="-26" type="curve"/>
    </contour>
    <contour>
      <point x="525" y="456" type="line"/>
      <point x="525" y="514" type="line"/>
      <point x="-25" y="514" type="line"/>
      <point x="-25" y="456" type="line"/>
    </contour>
  </outline>
</glyph>
<glyph name="bDRa_bSignU" format="1">
  <advance width="676"/>
  <outline>
    <contour>
      <point x="424" y="-18" type="line"/>
      <point x="410" y="46"/>
      <point x="404" y="109"/>
      <point x="404" y="152" type="curve" smooth="yes"/>
      <point x="404" y="227"/>
      <point x="423" y="282"/>
      <point x="476" y="345" type="curve"/>
      <point x="389" y="424" type="line"/>
      <point x="291" y="393"/>
      <point x="203" y="325"/>
      <point x="152" y="246" type="curve"/>
      <point x="188" y="208" type="line"/>
      <point x="188" y="467" type="line"/>
      <point x="118" y="467" type="line"/>
      <point x="118" y="219" type="line"/>
      <point x="195" y="144" type="line"/>
      <point x="254" y="231"/>
      <point x="328" y="291"/>
      <point x="401" y="323" type="curve"/>
      <point x="385" y="381" type="line"/>
      <point x="355" y="343"/>
      <point x="340" y="274"/>
      <point x="340" y="205" type="curve" smooth="yes"/>
      <point x="340" y="145"/>
      <point x="352" y="77"/>
      <point x="368" y="8" type="curve"/>
      <point x="390" y="1" type="line"/>
      <point x="368" y="72"/>
      <point x="313" y="111"/>
      <point x="247" y="111" type="curve" smooth="yes"/>
      <point x="220" y="111"/>
      <point x="172" y="104"/>
      <point x="145" y="104" type="curve" smooth="yes"/>
      <point x="93" y="104"/>
      <point x="65" y="128"/>
      <point x="65" y="176" type="curve" smooth="yes"/>
      <point x="65" y="197"/>
      <point x="70" y="222"/>
      <point x="78" y="240" type="curve"/>
      <point x="39" y="257" type="line"/>
      <point x="25" y="231"/>
      <point x="18" y="197"/>
      <point x="18" y="169" type="curve" smooth="yes"/>
      <point x="18" y="84"/>
      <point x="83" y="20"/>
      <point x="174" y="20" type="curve" smooth="yes"/>
      <point x="210" y="20"/>
      <point x="264" y="31"/>
      <point x="298" y="31" type="curve" smooth="yes"/>
      <point x="347" y="31"/>
      <point x="365" y="9"/>
      <point x="374" y="-26" type="curve"/>
    </contour>
    <contour>
      <point x="606" y="106"/>
      <point x="651" y="153"/>
      <point x="651" y="218" type="curve" smooth="yes"/>
      <point x="651" y="287"/>
      <point x="602" y="347"/>
      <point x="544" y="347" type="curve" smooth="yes"/>
      <point x="507" y="347"/>
      <point x="480" y="321"/>
      <point x="480" y="288" type="curve" smooth="yes"/>
      <point x="480" y="255"/>
      <point x="506" y="231"/>
      <point x="538" y="231" type="curve" smooth="yes"/>
      <point x="567" y="231"/>
      <point x="588" y="253"/>
      <point x="588" y="279" type="curve" smooth="yes"/>
      <point x="588" y="290"/>
      <point x="584" y="301"/>
      <point x="578" y="307" type="curve"/>
      <point x="554" y="279" type="line"/>
      <point x="560" y="281"/>
      <point x="567" y="282"/>
      <point x="572" y="282" type="curve" smooth="yes"/>
      <point x="591" y="282"/>
      <point x="603" y="265"/>
      <point x="603" y="245" type="curve" smooth="yes"/>
      <point x="603" y="212"/>
      <point x="573" y="187"/>
      <point x="534" y="187" type="curve" smooth="yes"/>
      <point x="492" y="187"/>
      <point x="445" y="215"/>
      <point x="419" y="286" type="curve"/>
      <point x="395" y="260" type="line"/>
      <point x="429" y="161"/>
      <point x="482" y="106"/>
      <point x="547" y="106" type="curve" smooth="yes"/>
    </contour>
    <contour>
      <point x="701" y="456" type="line"/>
      <point x="701" y="514" type="line"/>
      <point x="-25" y="514" type="line"/>
      <point x="-25" y="456" type="line"/>
    </contour>
  </outline>
</glyph>
<glyph name="bDRa_bSignUu" format="1">
  <advance width="597"/>
  <outline>
    <contour>
      <point x="424" y="-18" type="line"/>
      <point x="410" y="46"/>
      <point x="404" y="109"/>
      <point x="404" y="152" type="curve" smooth="yes"/>
      <point x="404" y="230"/>
      <point x="422" y="295"/>
      <point x="473" y="353" type="curve"/>
      <point x="389" y="424" type="line"/>
      <point x="291" y="393"/>
      <point x="203" y="325"/>
      <point x="152" y="246" type="curve"/>
      <point x="188" y="208" type="line"/>
      <point x="188" y="467" type="line"/>
      <point x="118" y="467" type="line"/>
      <point x="118" y="219" type="line"/>
      <point x="195" y="144" type="line"/>
      <point x="254" y="231"/>
      <point x="328" y="291"/>
      <point x="401" y="323" type="curve"/>
      <point x="385" y="381" type="line"/>
      <point x="355" y="343"/>
      <point x="340" y="274"/>
      <point x="340" y="205" type="curve" smooth="yes"/>
      <point x="340" y="145"/>
      <point x="352" y="77"/>
      <point x="368" y="8" type="curve"/>
      <point x="390" y="1" type="line"/>
      <point x="368" y="72"/>
      <point x="313" y="111"/>
      <point x="247" y="111" type="curve" smooth="yes"/>
      <point x="220" y="111"/>
      <point x="172" y="104"/>
      <point x="145" y="104" type="curve" smooth="yes"/>
      <point x="93" y="104"/>
      <point x="65" y="128"/>
      <point x="65" y="176" type="curve" smooth="yes"/>
      <point x="65" y="197"/>
      <point x="70" y="222"/>
      <point x="78" y="240" type="curve"/>
      <point x="39" y="257" type="line"/>
      <point x="25" y="231"/>
      <point x="18" y="197"/>
      <point x="18" y="169" type="curve" smooth="yes"/>
      <point x="18" y="84"/>
      <point x="83" y="20"/>
      <point x="174" y="20" type="curve" smooth="yes"/>
      <point x="210" y="20"/>
      <point x="264" y="31"/>
      <point x="298" y="31" type="curve" smooth="yes"/>
      <point x="347" y="31"/>
      <point x="365" y="9"/>
      <point x="374" y="-26" type="curve"/>
    </contour>
    <contour>
      <point x="572" y="15" type="line"/>
      <point x="555" y="30"/>
      <point x="547" y="48"/>
      <point x="547" y="71" type="curve" smooth="yes"/>
      <point x="547" y="193" type="line" smooth="yes"/>
      <point x="547" y="237"/>
      <point x="498" y="293"/>
      <point x="461" y="293" type="curve" smooth="yes"/>
      <point x="440" y="293"/>
      <point x="409" y="274"/>
      <point x="372" y="224" type="curve"/>
      <point x="394" y="165" type="line"/>
      <point x="423" y="205"/>
      <point x="455" y="226"/>
      <point x="470" y="226" type="curve" smooth="yes"/>
      <point x="476" y="226"/>
      <point x="480" y="223"/>
      <point x="480" y="214" type="curve" smooth="yes"/>
      <point x="480" y="90" type="line" smooth="yes"/>
      <point x="480" y="35"/>
      <point x="506" y="7"/>
      <point x="544" y="-18" type="curve"/>
    </contour>
    <contour>
      <point x="622" y="456" type="line"/>
      <point x="622" y="514" type="line"/>
      <point x="-25" y="514" type="line"/>
      <point x="-25" y="456" type="line"/>
    </contour>
  </outline>
</glyph>
<glyph name="bDa" format="1">
  <advance width="426"/>
  <outline>
    <contour>
      <point x="334" y="-4" type="line"/>
      <point x="325" y="50"/>
      <point x="321" y="103"/>
      <point x="321" y="138" type="curve" smooth="yes"/>
      <point x="321" y="215"/>
      <point x="341" y="271"/>
      <point x="402" y="335" type="curve"/>
      <point x="315" y="414" type="line"/>
      <point x="216" y="383"/>
      <point x="129" y="315"/>
      <point x="78" y="236" type="curve"/>
      <point x="114" y="198" type="line"/>
      <point x="114" y="467" type="line"/>
      <point x="44" y="467" type="line"/>
      <point x="44" y="209" type="line"/>
      <point x="121" y="126" type="line"/>
      <point x="180" y="218"/>
      <point x="253" y="280"/>
      <point x="327" y="313" type="curve"/>
      <point x="311" y="371" type="line"/>
      <point x="275" y="332"/>
      <point x="257" y="264"/>
      <point x="257" y="189" type="curve" smooth="yes"/>
      <point x="257" y="131"/>
      <point x="268" y="60"/>
      <point x="284" y="-12" type="curve"/>
    </contour>
    <contour>
      <point x="451" y="456" type="line"/>
      <point x="451" y="514" type="line"/>
      <point x="-25" y="514" type="line"/>
      <point x="-25" y="456" type="line"/>
    </contour>
  </outline>
</glyph>
<glyph name="bDandaPoetic" format="1">
  <advance width="307"/>
  <outline>
    <contour>
      <point x="236" y="427" type="line"/>
      <point x="236" y="482"/>
      <point x="207" y="521"/>
      <point x="165" y="521" type="curve" smooth="yes"/>
      <point x="134" y="521"/>
      <point x="107" y="498"/>
      <point x="107" y="464" type="curve" smooth="yes"/>
      <point x="107" y="431"/>
      <point x="133" y="405"/>
      <point x="167" y="405" type="curve" smooth="yes"/>
      <point x="186" y="405"/>
      <point x="206" y="413"/>
      <point x="221" y="434" type="curve"/>
      <point x="166" y="454" type="line"/>
      <point x="166" y="67" type="line"/>
      <point x="166" y="12"/>
      <point x="194" y="-27"/>
      <point x="236" y="-27" type="curve" smooth="yes"/>
      <point x="267" y="-27"/>
      <point x="294" y="-4"/>
      <point x="294" y="30" type="curve" smooth="yes"/>
      <point x="294" y="63"/>
      <point x="268" y="89"/>
      <point x="234" y="89" type="curve" smooth="yes"/>
      <point x="215" y="89"/>
      <point x="195" y="81"/>
      <point x="180" y="60" type="curve"/>
      <point x="236" y="40" type="line"/>
    </contour>
  </outline>
</glyph>
<glyph name="bDdBa" format="1">
  <advance width="496"/>
  <outline>
    <contour>
      <point x="396" y="48"/>
      <point x="464" y="120"/>
      <point x="464" y="220" type="curve" smooth="yes"/>
      <point x="464" y="306"/>
      <point x="415" y="368"/>
      <point x="368" y="408" type="curve"/>
      <point x="325" y="338"/>
      <point x="278" y="295"/>
      <point x="254" y="295" type="curve" smooth="yes"/>
      <point x="244" y="295"/>
      <point x="241" y="303"/>
      <point x="241" y="314" type="curve" smooth="yes"/>
      <point x="241" y="466" type="line"/>
      <point x="171" y="466" type="line"/>
      <point x="171" y="348" type="line" smooth="yes"/>
      <point x="171" y="281"/>
      <point x="223" y="210"/>
      <point x="280" y="210" type="curve" smooth="yes"/>
      <point x="324" y="210"/>
      <point x="383" y="252"/>
      <point x="416" y="312" type="curve"/>
      <point x="355" y="335" type="line"/>
      <point x="387" y="316"/>
      <point x="404" y="283"/>
      <point x="404" y="249" type="curve" smooth="yes"/>
      <point x="404" y="189"/>
      <point x="349" y="144"/>
      <point x="274" y="144" type="curve" smooth="yes"/>
      <point x="189" y="144"/>
      <point x="103" y="203"/>
      <point x="45" y="419" type="curve"/>
      <point x="-5" y="404" type="line"/>
      <point x="67" y="140"/>
      <point x="174" y="48"/>
      <point x="292" y="48" type="curve" smooth="yes"/>
    </contour>
    <contour>
      <point x="416" y="-124" type="line"/>
      <point x="416" y="111" type="line"/>
      <point x="371" y="153" type="line"/>
      <point x="286" y="114"/>
      <point x="233" y="89"/>
      <point x="146" y="37" type="curve"/>
      <point x="208" y="-51" type="line"/>
      <point x="287" y="-63"/>
      <point x="346" y="-81"/>
      <point x="365" y="-124" type="curve"/>
    </contour>
    <contour>
      <point x="383" y="-90" type="line"/>
      <point x="353" y="-35"/>
      <point x="294" y="5"/>
      <point x="203" y="26" type="curve"/>
      <point x="231" y="-11" type="line"/>
      <point x="292" y="28"/>
      <point x="349" y="55"/>
      <point x="398" y="76" type="curve"/>
      <point x="354" y="91" type="line"/>
      <point x="354" y="-68" type="line"/>
    </contour>
    <contour>
      <point x="521" y="456" type="line"/>
      <point x="521" y="514" type="line"/>
      <point x="-25" y="514" type="line"/>
      <point x="-25" y="456" type="line"/>
    </contour>
  </outline>
</glyph>
<glyph name="bDdDda" format="1">
  <advance width="809"/>
  <outline>
    <contour>
      <point x="365" y="63"/>
      <point x="427" y="130"/>
      <point x="427" y="227" type="curve" smooth="yes"/>
      <point x="427" y="310"/>
      <point x="381" y="371"/>
      <point x="333" y="413" type="curve"/>
      <point x="298" y="348"/>
      <point x="260" y="307"/>
      <point x="238" y="307" type="curve" smooth="yes"/>
      <point x="229" y="307"/>
      <point x="226" y="316"/>
      <point x="226" y="327" type="curve" smooth="yes"/>
      <point x="226" y="466" type="line"/>
      <point x="156" y="466" type="line"/>
      <point x="156" y="361" type="line" smooth="yes"/>
      <point x="156" y="295"/>
      <point x="209" y="225"/>
      <point x="263" y="225" type="curve" smooth="yes"/>
      <point x="305" y="225"/>
      <point x="353" y="267"/>
      <point x="380" y="323" type="curve"/>
      <point x="320" y="340" type="line"/>
      <point x="352" y="321"/>
      <point x="367" y="289"/>
      <point x="367" y="258" type="curve" smooth="yes"/>
      <point x="367" y="204"/>
      <point x="320" y="163"/>
      <point x="252" y="163" type="curve" smooth="yes"/>
      <point x="177" y="163"/>
      <point x="99" y="213"/>
      <point x="45" y="419" type="curve"/>
      <point x="-5" y="404" type="line"/>
      <point x="61" y="157"/>
      <point x="157" y="63"/>
      <point x="269" y="63" type="curve" smooth="yes"/>
    </contour>
    <contour>
      <point x="716" y="22"/>
      <point x="781" y="96"/>
      <point x="781" y="199" type="curve" smooth="yes"/>
      <point x="781" y="287"/>
      <point x="732" y="354"/>
      <point x="681" y="398" type="curve"/>
      <point x="637" y="328"/>
      <point x="591" y="285"/>
      <point x="567" y="285" type="curve" smooth="yes"/>
      <point x="557" y="285"/>
      <point x="553" y="293"/>
      <point x="553" y="304" type="curve" smooth="yes"/>
      <point x="553" y="466" type="line"/>
      <point x="483" y="466" type="line"/>
      <point x="483" y="338" type="line" smooth="yes"/>
      <point x="483" y="270"/>
      <point x="535" y="198"/>
      <point x="593" y="198" type="curve" smooth="yes"/>
      <point x="637" y="198"/>
      <point x="696" y="241"/>
      <point x="728" y="302" type="curve"/>
      <point x="668" y="325" type="line"/>
      <point x="702" y="304"/>
      <point x="721" y="267"/>
      <point x="721" y="230" type="curve" smooth="yes"/>
      <point x="721" y="169"/>
      <point x="669" y="124"/>
      <point x="595" y="124" type="curve" smooth="yes"/>
      <point x="527" y="124"/>
      <point x="467" y="163"/>
      <point x="422" y="267" type="curve"/>
      <point x="386" y="220" type="line"/>
      <point x="449" y="75"/>
      <point x="526" y="22"/>
      <point x="613" y="22" type="curve" smooth="yes"/>
    </contour>
    <contour>
      <point x="401" y="456" type="line"/>
      <point x="401" y="514" type="line"/>
      <point x="-25" y="514" type="line"/>
      <point x="-25" y="456" type="line"/>
    </contour>
    <contour>
      <point x="834" y="456" type="line"/>
      <point x="834" y="514" type="line"/>
      <point x="277" y="514" type="line"/>
      <point x="277" y="456" type="line"/>
    </contour>
  </outline>
</glyph>
<glyph name="bDdMa" format="1">
  <advance width="584"/>
  <outline>
    <contour>
      <point x="494" y="-110" type="line"/>
      <point x="494" y="467" type="line"/>
      <point x="424" y="467" type="line"/>
      <point x="424" y="-45" type="line"/>
      <point x="477" y="-98" type="line"/>
      <point x="454" y="-4"/>
      <point x="380" y="71"/>
      <point x="307" y="71" type="curve" smooth="yes"/>
      <point x="259" y="71"/>
      <point x="214" y="38"/>
      <point x="214" y="-11" type="curve" smooth="yes"/>
      <point x="214" y="-55"/>
      <point x="249" y="-87"/>
      <point x="292" y="-87" type="curve" smooth="yes"/>
      <point x="336" y="-87"/>
      <point x="368" y="-53"/>
      <point x="368" y="-11" type="curve" smooth="yes"/>
      <point x="368" y="8"/>
      <point x="361" y="31"/>
      <point x="338" y="49" type="curve"/>
      <point x="328" y="-28" type="line"/>
      <point x="339" y="-20"/>
      <point x="350" y="-17"/>
      <point x="362" y="-17" type="curve" smooth="yes"/>
      <point x="404" y="-17"/>
      <point x="434" y="-56"/>
      <point x="443" y="-110" type="curve"/>
    </contour>
    <contour>
      <point x="345" y="77"/>
      <point x="311" y="118"/>
      <point x="275" y="132" type="curve"/>
      <point x="229" y="114" type="line"/>
      <point x="259" y="103"/>
      <point x="283" y="81"/>
      <point x="290" y="47" type="curve"/>
      <point x="356" y="41" type="line"/>
    </contour>
    <contour>
      <point x="325" y="96"/>
      <point x="376" y="161"/>
      <point x="376" y="237" type="curve" smooth="yes"/>
      <point x="376" y="298"/>
      <point x="343" y="348"/>
      <point x="305" y="383" type="curve"/>
      <point x="275" y="339"/>
      <point x="242" y="311"/>
      <point x="224" y="311" type="curve" smooth="yes"/>
      <point x="214" y="311"/>
      <point x="211" y="319"/>
      <point x="211" y="330" type="curve" smooth="yes"/>
      <point x="211" y="466" type="line"/>
      <point x="141" y="466" type="line"/>
      <point x="141" y="357" type="line" smooth="yes"/>
      <point x="141" y="300"/>
      <point x="189" y="236"/>
      <point x="241" y="236" type="curve" smooth="yes"/>
      <point x="281" y="236"/>
      <point x="316" y="272"/>
      <point x="347" y="310" type="curve"/>
      <point x="303" y="312" type="line"/>
      <point x="313" y="299"/>
      <point x="320" y="281"/>
      <point x="320" y="264" type="curve" smooth="yes"/>
      <point x="320" y="216"/>
      <point x="277" y="184"/>
      <point x="226" y="184" type="curve" smooth="yes"/>
      <point x="161" y="184"/>
      <point x="92" y="233"/>
      <point x="45" y="419" type="curve"/>
      <point x="-5" y="404" type="line"/>
      <point x="51" y="182"/>
      <point x="144" y="96"/>
      <point x="241" y="96" type="curve" smooth="yes"/>
    </contour>
    <contour>
      <point x="401" y="456" type="line"/>
      <point x="401" y="514" type="line"/>
      <point x="-25" y="514" type="line"/>
      <point x="-25" y="456" type="line"/>
    </contour>
    <contour>
      <point x="574" y="456" type="line"/>
      <point x="574" y="514" type="line"/>
      <point x="208" y="514" type="line"/>
      <point x="208" y="456" type="line"/>
    </contour>
  </outline>
</glyph>
<glyph name="bDdRa" format="1">
  <advance width="523"/>
  <outline>
    <contour>
      <point x="423" y="48"/>
      <point x="491" y="120"/>
      <point x="491" y="220" type="curve" smooth="yes"/>
      <point x="491" y="306"/>
      <point x="442" y="368"/>
      <point x="395" y="408" type="curve"/>
      <point x="352" y="338"/>
      <point x="305" y="295"/>
      <point x="281" y="295" type="curve" smooth="yes"/>
      <point x="271" y="295"/>
      <point x="268" y="303"/>
      <point x="268" y="314" type="curve" smooth="yes"/>
      <point x="268" y="466" type="line"/>
      <point x="198" y="466" type="line"/>
      <point x="198" y="348" type="line" smooth="yes"/>
      <point x="198" y="281"/>
      <point x="250" y="210"/>
      <point x="307" y="210" type="curve" smooth="yes"/>
      <point x="351" y="210"/>
      <point x="410" y="252"/>
      <point x="443" y="312" type="curve"/>
      <point x="382" y="335" type="line"/>
      <point x="414" y="316"/>
      <point x="431" y="283"/>
      <point x="431" y="249" type="curve" smooth="yes"/>
      <point x="431" y="189"/>
      <point x="376" y="144"/>
      <point x="301" y="144" type="curve" smooth="yes"/>
      <point x="216" y="144"/>
      <point x="130" y="203"/>
      <point x="72" y="419" type="curve"/>
      <point x="22" y="404" type="line"/>
      <point x="94" y="140"/>
      <point x="201" y="48"/>
      <point x="319" y="48" type="curve" smooth="yes"/>
    </contour>
    <contour>
      <point x="442" y="-117" type="line"/>
      <point x="442" y="101" type="line"/>
      <point x="381" y="101" type="line"/>
      <point x="381" y="-63" type="line"/>
      <point x="407" y="-88" type="line"/>
      <point x="391" y="-29"/>
      <point x="348" y="17"/>
      <point x="276" y="17" type="curve" smooth="yes"/>
      <point x="256" y="17"/>
      <point x="182" y="13"/>
      <point x="163" y="13" type="curve" smooth="yes"/>
      <point x="115" y="13"/>
      <point x="87" y="35"/>
      <point x="87" y="77" type="curve" smooth="yes"/>
      <point x="87" y="97"/>
      <point x="93" y="120"/>
      <point x="100" y="137" type="curve"/>
      <point x="59" y="153" type="line"/>
      <point x="48" y="131"/>
      <point x="40" y="100"/>
      <point x="40" y="72" type="curve" smooth="yes"/>
      <point x="40" y="-9"/>
      <point x="104" y="-73"/>
      <point x="189" y="-73" type="curve" smooth="yes"/>
      <point x="222" y="-73"/>
      <point x="297" y="-63"/>
      <point x="327" y="-63" type="curve" smooth="yes"/>
      <point x="369" y="-63"/>
      <point x="386" y="-83"/>
      <point x="391" y="-117" type="curve"/>
    </contour>
    <contour>
      <point x="548" y="456" type="line"/>
      <point x="548" y="514" type="line"/>
      <point x="-25" y="514" type="line"/>
      <point x="-25" y="456" type="line"/>
    </contour>
  </outline>
</glyph>
<glyph name="bDda" format="1">
  <advance width="504"/>
  <outline>
    <contour>
      <point x="408" y="15"/>
      <point x="476" y="92"/>
      <point x="476" y="198" type="curve" smooth="yes"/>
      <point x="476" y="288"/>
      <point x="427" y="354"/>
      <point x="376" y="398" type="curve"/>
      <point x="332" y="328"/>
      <point x="286" y="285"/>
      <point x="262" y="285" type="curve" smooth="yes"/>
      <point x="252" y="285"/>
      <point x="248" y="293"/>
      <point x="248" y="304" type="curve" smooth="yes"/>
      <point x="248" y="466" type="line"/>
      <point x="178" y="466" type="line"/>
      <point x="178" y="338" type="line" smooth="yes"/>
      <point x="178" y="270"/>
      <point x="230" y="198"/>
      <point x="288" y="198" type="curve" smooth="yes"/>
      <point x="332" y="198"/>
      <point x="391" y="241"/>
      <point x="423" y="302" type="curve"/>
      <point x="363" y="325" type="line"/>
      <point x="397" y="304"/>
      <point x="416" y="268"/>
      <point x="416" y="230" type="curve" smooth="yes"/>
      <point x="416" y="165"/>
      <point x="361" y="117"/>
      <point x="281" y="117" type="curve" smooth="yes"/>
      <point x="186" y="117"/>
      <point x="104" y="186"/>
      <point x="45" y="419" type="curve"/>
      <point x="-5" y="404" type="line"/>
      <point x="68" y="117"/>
      <point x="174" y="15"/>
      <point x="299" y="15" type="curve" smooth="yes"/>
    </contour>
    <contour>
      <point x="529" y="456" type="line"/>
      <point x="529" y="514" type="line"/>
      <point x="-25" y="514" type="line"/>
      <point x="-25" y="456" type="line"/>
    </contour>
  </outline>
</glyph>
<glyph name="bDdha" format="1">
  <advance width="410"/>
  <outline>
    <contour>
      <point x="254" y="2"/>
      <point x="376" y="155"/>
      <point x="376" y="264" type="curve" smooth="yes"/>
      <point x="376" y="326"/>
      <point x="336" y="379"/>
      <point x="278" y="379" type="curve" smooth="yes"/>
      <point x="230" y="379"/>
      <point x="197" y="344"/>
      <point x="197" y="302" type="curve" smooth="yes"/>
      <point x="197" y="260"/>
      <point x="231" y="227"/>
      <point x="277" y="227" type="curve" smooth="yes"/>
      <point x="295" y="227"/>
      <point x="309" y="232"/>
      <point x="321" y="243" type="curve"/>
      <point x="283" y="287" type="line"/>
      <point x="283" y="210"/>
      <point x="193" y="85"/>
      <point x="139" y="85" type="curve" smooth="yes"/>
      <point x="124" y="85"/>
      <point x="117" y="96"/>
      <point x="117" y="128" type="curve" smooth="yes"/>
      <point x="117" y="467" type="line"/>
      <point x="47" y="467" type="line"/>
      <point x="47" y="160" type="line" smooth="yes"/>
      <point x="47" y="68"/>
      <point x="111" y="2"/>
      <point x="168" y="2" type="curve" smooth="yes"/>
    </contour>
    <contour>
      <point x="435" y="456" type="line"/>
      <point x="435" y="514" type="line"/>
      <point x="-25" y="514" type="line"/>
      <point x="-25" y="456" type="line"/>
    </contour>
  </outline>
</glyph>
<glyph name="bDhMa" format="1">
  <advance width="509"/>
  <outline>
    <contour>
      <point x="301" y="128" type="line"/>
      <point x="301" y="456" type="line"/>
      <point x="534" y="456" type="line"/>
      <point x="534" y="514" type="line"/>
      <point x="231" y="514" type="line"/>
      <point x="231" y="147" type="line"/>
      <point x="274" y="171" type="line"/>
      <point x="223" y="267"/>
      <point x="142" y="307"/>
      <point x="49" y="326" type="curve"/>
      <point x="69" y="275" type="line"/>
      <point x="128" y="313"/>
      <point x="190" y="342"/>
      <point x="254" y="365" type="curve"/>
      <point x="244" y="443" type="line"/>
      <point x="162" y="413"/>
      <point x="81" y="378"/>
      <point x="8" y="333" type="curve"/>
      <point x="62" y="247" type="line"/>
      <point x="162" y="241"/>
      <point x="242" y="193"/>
      <point x="253" y="128" type="curve"/>
    </contour>
    <contour>
      <point x="454" y="0" type="line"/>
      <point x="454" y="467" type="line"/>
      <point x="384" y="467" type="line"/>
      <point x="384" y="65" type="line"/>
      <point x="434" y="22" type="line"/>
      <point x="408" y="128"/>
      <point x="324" y="206"/>
      <point x="244" y="206" type="curve" smooth="yes"/>
      <point x="191" y="206"/>
      <point x="152" y="171"/>
      <point x="152" y="124" type="curve" smooth="yes"/>
      <point x="152" y="79"/>
      <point x="187" y="45"/>
      <point x="232" y="45" type="curve" smooth="yes"/>
      <point x="275" y="45"/>
      <point x="306" y="76"/>
      <point x="306" y="116" type="curve" smooth="yes"/>
      <point x="306" y="132"/>
      <point x="301" y="151"/>
      <point x="284" y="165" type="curve"/>
      <point x="262" y="103" type="line"/>
      <point x="273" y="111"/>
      <point x="284" y="114"/>
      <point x="298" y="114" type="curve" smooth="yes"/>
      <point x="349" y="114"/>
      <point x="392" y="70"/>
      <point x="404" y="0" type="curve"/>
    </contour>
    <contour>
      <point x="168" y="361"/>
      <point x="177" y="362"/>
      <point x="187" y="364" type="curve"/>
      <point x="177" y="417" type="line"/>
      <point x="164" y="412"/>
      <point x="148" y="406"/>
      <point x="134" y="406" type="curve" smooth="yes"/>
      <point x="112" y="406"/>
      <point x="97" y="420"/>
      <point x="97" y="438" type="curve" smooth="yes"/>
      <point x="97" y="457"/>
      <point x="114" y="471"/>
      <point x="138" y="471" type="curve" smooth="yes"/>
      <point x="145" y="471"/>
      <point x="156" y="470"/>
      <point x="166" y="467" type="curve"/>
      <point x="130" y="512" type="line"/>
      <point x="111" y="504"/>
      <point x="104" y="487"/>
      <point x="104" y="473" type="curve" smooth="yes"/>
      <point x="104" y="448"/>
      <point x="125" y="431"/>
      <point x="148" y="431" type="curve" smooth="yes"/>
      <point x="172" y="431"/>
      <point x="192" y="448"/>
      <point x="192" y="475" type="curve" smooth="yes"/>
      <point x="192" y="504"/>
      <point x="167" y="532"/>
      <point x="125" y="532" type="curve" smooth="yes"/>
      <point x="79" y="532"/>
      <point x="42" y="499"/>
      <point x="42" y="454" type="curve" smooth="yes"/>
      <point x="42" y="399"/>
      <point x="99" y="361"/>
      <point x="158" y="361" type="curve" smooth="yes"/>
    </contour>
  </outline>
</glyph>
<glyph name="bDhNa" format="1">
  <advance width="421"/>
  <outline>
    <contour>
      <point x="366" y="41" type="line"/>
      <point x="366" y="456" type="line"/>
      <point x="446" y="456" type="line"/>
      <point x="446" y="514" type="line"/>
      <point x="296" y="514" type="line"/>
      <point x="296" y="110" type="line"/>
      <point x="336" y="89" type="line"/>
      <point x="282" y="206"/>
      <point x="179" y="258"/>
      <point x="68" y="285" type="curve"/>
      <point x="87" y="219" type="line"/>
      <point x="166" y="269"/>
      <point x="247" y="307"/>
      <point x="334" y="342" type="curve"/>
      <point x="311" y="439" type="line"/>
      <point x="208" y="394"/>
      <point x="112" y="348"/>
      <point x="21" y="290" type="curve"/>
      <point x="94" y="179" type="line"/>
      <point x="224" y="166"/>
      <point x="303" y="124"/>
      <point x="307" y="41" type="curve"/>
    </contour>
    <contour>
      <point x="366" y="-40" type="line"/>
      <point x="366" y="54" type="line"/>
      <point x="311" y="54" type="line"/>
      <point x="311" y="3" type="line"/>
      <point x="330" y="8" type="line"/>
      <point x="301" y="85"/>
      <point x="233" y="129"/>
      <point x="171" y="129" type="curve" smooth="yes"/>
      <point x="115" y="129"/>
      <point x="75" y="93"/>
      <point x="75" y="44" type="curve" smooth="yes"/>
      <point x="75" y="-1"/>
      <point x="109" y="-33"/>
      <point x="149" y="-33" type="curve" smooth="yes"/>
      <point x="187" y="-33"/>
      <point x="216" y="-6"/>
      <point x="216" y="31" type="curve" smooth="yes"/>
      <point x="216" y="51"/>
      <point x="208" y="71"/>
      <point x="185" y="85" type="curve"/>
      <point x="186" y="45" type="line"/>
      <point x="194" y="50"/>
      <point x="202" y="53"/>
      <point x="214" y="53" type="curve" smooth="yes"/>
      <point x="258" y="53"/>
      <point x="306" y="21"/>
      <point x="314" y="-40" type="curve"/>
    </contour>
    <contour>
      <point x="195" y="334"/>
      <point x="214" y="338"/>
      <point x="230" y="344" type="curve"/>
      <point x="222" y="398" type="line"/>
      <point x="198" y="387"/>
      <point x="180" y="381"/>
      <point x="169" y="381" type="curve" smooth="yes"/>
      <point x="133" y="381"/>
      <point x="117" y="404"/>
      <point x="117" y="422" type="curve" smooth="yes"/>
      <point x="117" y="444"/>
      <point x="136" y="463"/>
      <point x="169" y="463" type="curve" smooth="yes"/>
      <point x="180" y="463"/>
      <point x="195" y="461"/>
      <point x="209" y="456" type="curve"/>
      <point x="151" y="499" type="line"/>
      <point x="132" y="491"/>
      <point x="125" y="473"/>
      <point x="125" y="459" type="curve" smooth="yes"/>
      <point x="125" y="433"/>
      <point x="148" y="415"/>
      <point x="174" y="415" type="curve" smooth="yes"/>
      <point x="202" y="415"/>
      <point x="227" y="435"/>
      <point x="227" y="467" type="curve" smooth="yes"/>
      <point x="227" y="502"/>
      <point x="197" y="533"/>
      <point x="147" y="533" type="curve" smooth="yes"/>
      <point x="94" y="533"/>
      <point x="47" y="496"/>
      <point x="47" y="441" type="curve" smooth="yes"/>
      <point x="47" y="380"/>
      <point x="110" y="334"/>
      <point x="182" y="334" type="curve" smooth="yes"/>
    </contour>
  </outline>
</glyph>
<glyph name="bDhRa" format="1">
  <advance width="471"/>
  <outline>
    <contour>
      <point x="416" y="48" type="line"/>
      <point x="416" y="456" type="line"/>
      <point x="496" y="456" type="line"/>
      <point x="496" y="514" type="line"/>
      <point x="346" y="514" type="line"/>
      <point x="346" y="110" type="line"/>
      <point x="386" y="96" type="line"/>
      <point x="332" y="209"/>
      <point x="229" y="259"/>
      <point x="118" y="285" type="curve"/>
      <point x="137" y="219" type="line"/>
      <point x="216" y="269"/>
      <point x="297" y="307"/>
      <point x="384" y="342" type="curve"/>
      <point x="361" y="439" type="line"/>
      <point x="258" y="394"/>
      <point x="162" y="348"/>
      <point x="71" y="290" type="curve"/>
      <point x="144" y="179" type="line"/>
      <point x="274" y="167"/>
      <point x="353" y="127"/>
      <point x="357" y="48" type="curve"/>
    </contour>
    <contour>
      <point x="415" y="-31" type="line"/>
      <point x="415" y="141" type="line"/>
      <point x="356" y="141" type="line"/>
      <point x="356" y="38" type="line"/>
      <point x="381" y="3" type="line"/>
      <point x="361" y="70"/>
      <point x="312" y="115"/>
      <point x="244" y="115" type="curve" smooth="yes"/>
      <point x="218" y="115"/>
      <point x="166" y="109"/>
      <point x="138" y="109" type="curve" smooth="yes"/>
      <point x="92" y="109"/>
      <point x="68" y="127"/>
      <point x="68" y="163" type="curve" smooth="yes"/>
      <point x="68" y="178"/>
      <point x="73" y="198"/>
      <point x="78" y="214" type="curve"/>
      <point x="38" y="229" type="line"/>
      <point x="27" y="206"/>
      <point x="22" y="178"/>
      <point x="22" y="156" type="curve" smooth="yes"/>
      <point x="22" y="81"/>
      <point x="83" y="25"/>
      <point x="167" y="25" type="curve" smooth="yes"/>
      <point x="204" y="25"/>
      <point x="259" y="35"/>
      <point x="291" y="35" type="curve" smooth="yes"/>
      <point x="340" y="35"/>
      <point x="361" y="10"/>
      <point x="364" y="-31" type="curve"/>
    </contour>
    <contour>
      <point x="245" y="334"/>
      <point x="264" y="338"/>
      <point x="280" y="344" type="curve"/>
      <point x="272" y="398" type="line"/>
      <point x="248" y="387"/>
      <point x="230" y="381"/>
      <point x="219" y="381" type="curve" smooth="yes"/>
      <point x="183" y="381"/>
      <point x="167" y="404"/>
      <point x="167" y="422" type="curve" smooth="yes"/>
      <point x="167" y="444"/>
      <point x="186" y="463"/>
      <point x="219" y="463" type="curve" smooth="yes"/>
      <point x="230" y="463"/>
      <point x="245" y="461"/>
      <point x="259" y="456" type="curve"/>
      <point x="201" y="499" type="line"/>
      <point x="182" y="491"/>
      <point x="175" y="473"/>
      <point x="175" y="459" type="curve" smooth="yes"/>
      <point x="175" y="433"/>
      <point x="198" y="415"/>
      <point x="224" y="415" type="curve" smooth="yes"/>
      <point x="252" y="415"/>
      <point x="277" y="435"/>
      <point x="277" y="467" type="curve" smooth="yes"/>
      <point x="277" y="502"/>
      <point x="247" y="533"/>
      <point x="197" y="533" type="curve" smooth="yes"/>
      <point x="144" y="533"/>
      <point x="97" y="496"/>
      <point x="97" y="441" type="curve" smooth="yes"/>
      <point x="97" y="380"/>
      <point x="160" y="334"/>
      <point x="232" y="334" type="curve" smooth="yes"/>
    </contour>
  </outline>
</glyph>
<glyph name="bDhRa_bSignUu" format="1">
  <advance width="605"/>
  <outline>
    <contour>
      <point x="416" y="48" type="line"/>
      <point x="416" y="456" type="line"/>
      <point x="630" y="456" type="line"/>
      <point x="630" y="514" type="line"/>
      <point x="346" y="514" type="line"/>
      <point x="346" y="110" type="line"/>
      <point x="386" y="96" type="line"/>
      <point x="332" y="209"/>
      <point x="229" y="259"/>
      <point x="118" y="285" type="curve"/>
      <point x="137" y="219" type="line"/>
      <point x="216" y="269"/>
      <point x="297" y="307"/>
      <point x="384" y="342" type="curve"/>
      <point x="361" y="439" type="line"/>
      <point x="258" y="394"/>
      <point x="162" y="348"/>
      <point x="71" y="290" type="curve"/>
      <point x="144" y="179" type="line"/>
      <point x="274" y="167"/>
      <point x="353" y="127"/>
      <point x="357" y="48" type="curve"/>
    </contour>
    <contour>
      <point x="415" y="-31" type="line"/>
      <point x="415" y="141" type="line"/>
      <point x="356" y="141" type="line"/>
      <point x="356" y="38" type="line"/>
      <point x="381" y="3" type="line"/>
      <point x="361" y="70"/>
      <point x="312" y="115"/>
      <point x="244" y="115" type="curve" smooth="yes"/>
      <point x="218" y="115"/>
      <point x="166" y="109"/>
      <point x="138" y="109" type="curve" smooth="yes"/>
      <point x="92" y="109"/>
      <point x="68" y="127"/>
      <point x="68" y="163" type="curve" smooth="yes"/>
      <point x="68" y="178"/>
      <point x="73" y="198"/>
      <point x="78" y="214" type="curve"/>
      <point x="38" y="229" type="line"/>
      <point x="28" y="206"/>
      <point x="22" y="178"/>
      <point x="22" y="157" type="curve" smooth="yes"/>
      <point x="22" y="81"/>
      <point x="83" y="25"/>
      <point x="167" y="25" type="curve" smooth="yes"/>
      <point x="204" y="25"/>
      <point x="259" y="35"/>
      <point x="291" y="35" type="curve" smooth="yes"/>
      <point x="340" y="35"/>
      <point x="361" y="10"/>
      <point x="364" y="-31" type="curve"/>
    </contour>
    <contour>
      <point x="245" y="334"/>
      <point x="264" y="338"/>
      <point x="280" y="344" type="curve"/>
      <point x="272" y="398" type="line"/>
      <point x="248" y="387"/>
      <point x="230" y="381"/>
      <point x="219" y="381" type="curve" smooth="yes"/>
      <point x="183" y="381"/>
      <point x="167" y="404"/>
      <point x="167" y="422" type="curve" smooth="yes"/>
      <point x="167" y="444"/>
      <point x="186" y="463"/>
      <point x="219" y="463" type="curve" smooth="yes"/>
      <point x="230" y="463"/>
      <point x="245" y="461"/>
      <point x="259" y="456" type="curve"/>
      <point x="201" y="499" type="line"/>
      <point x="182" y="491"/>
      <point x="175" y="473"/>
      <point x="175" y="459" type="curve" smooth="yes"/>
      <point x="175" y="433"/>
      <point x="198" y="415"/>
      <point x="224" y="415" type="curve" smooth="yes"/>
      <point x="252" y="415"/>
      <point x="277" y="435"/>
      <point x="277" y="467" type="curve" smooth="yes"/>
      <point x="277" y="502"/>
      <point x="247" y="533"/>
      <point x="197" y="533" type="curve" smooth="yes"/>
      <point x="144" y="533"/>
      <point x="97" y="496"/>
      <point x="97" y="441" type="curve" smooth="yes"/>
      <point x="97" y="380"/>
      <point x="160" y="334"/>
      <point x="232" y="334" type="curve" smooth="yes"/>
    </contour>
    <contour>
      <point x="588" y="26" type="line"/>
      <point x="570" y="42"/>
      <point x="559" y="63"/>
      <point x="559" y="87" type="curve" smooth="yes"/>
      <point x="559" y="285" type="line" smooth="yes"/>
      <point x="559" y="335"/>
      <point x="507" y="400"/>
      <point x="467" y="400" type="curve" smooth="yes"/>
      <point x="447" y="400"/>
      <point x="411" y="384"/>
      <point x="377" y="352" type="curve"/>
      <point x="407" y="278" type="line"/>
      <point x="432" y="303"/>
      <point x="467" y="324"/>
      <point x="482" y="324" type="curve" smooth="yes"/>
      <point x="488" y="324"/>
      <point x="491" y="319"/>
      <point x="491" y="308" type="curve" smooth="yes"/>
      <point x="491" y="107" type="line" smooth="yes"/>
      <point x="491" y="48"/>
      <point x="521" y="18"/>
      <point x="565" y="-8" type="curve"/>
    </contour>
  </outline>
</glyph>
<glyph name="bDha" format="1">
  <advance width="420"/>
  <outline>
    <contour>
      <point x="364" y="0" type="line"/>
      <point x="364" y="456" type="line"/>
      <point x="444" y="456" type="line"/>
      <point x="444" y="514" type="line"/>
      <point x="294" y="514" type="line"/>
      <point x="294" y="62" type="line"/>
      <point x="334" y="48" type="line"/>
      <point x="281" y="167"/>
      <point x="177" y="229"/>
      <point x="66" y="261" type="curve"/>
      <point x="84" y="203" type="line"/>
      <point x="164" y="259"/>
      <point x="245" y="303"/>
      <point x="332" y="342" type="curve"/>
      <point x="310" y="439" type="line"/>
      <point x="204" y="390"/>
      <point x="108" y="339"/>
      <point x="15" y="275" type="curve"/>
      <point x="92" y="155" type="line"/>
      <point x="223" y="138"/>
      <point x="299" y="71"/>
      <point x="313" y="0" type="curve"/>
    </contour>
    <contour>
      <point x="199" y="331"/>
      <point x="213" y="334"/>
      <point x="229" y="341" type="curve"/>
      <point x="221" y="395" type="line"/>
      <point x="196" y="384"/>
      <point x="186" y="381"/>
      <point x="171" y="381" type="curve" smooth="yes"/>
      <point x="132" y="381"/>
      <point x="116" y="404"/>
      <point x="116" y="422" type="curve" smooth="yes"/>
      <point x="116" y="444"/>
      <point x="135" y="463"/>
      <point x="168" y="463" type="curve" smooth="yes"/>
      <point x="179" y="463"/>
      <point x="194" y="461"/>
      <point x="208" y="456" type="curve"/>
      <point x="150" y="499" type="line"/>
      <point x="131" y="491"/>
      <point x="124" y="473"/>
      <point x="124" y="459" type="curve" smooth="yes"/>
      <point x="124" y="433"/>
      <point x="147" y="415"/>
      <point x="173" y="415" type="curve" smooth="yes"/>
      <point x="201" y="415"/>
      <point x="226" y="435"/>
      <point x="226" y="467" type="curve" smooth="yes"/>
      <point x="226" y="502"/>
      <point x="196" y="533"/>
      <point x="146" y="533" type="curve" smooth="yes"/>
      <point x="93" y="533"/>
      <point x="46" y="496"/>
      <point x="46" y="441" type="curve" smooth="yes"/>
      <point x="46" y="378"/>
      <point x="109" y="331"/>
      <point x="181" y="331" type="curve" smooth="yes"/>
    </contour>
  </outline>
</glyph>
<glyph name="bDoubleDandaPoetic" format="1">
  <advance width="462"/>
  <outline>
    <contour>
      <point x="236" y="427" type="line"/>
      <point x="236" y="482"/>
      <point x="207" y="521"/>
      <point x="165" y="521" type="curve" smooth="yes"/>
      <point x="134" y="521"/>
      <point x="107" y="498"/>
      <point x="107" y="464" type="curve" smooth="yes"/>
      <point x="107" y="431"/>
      <point x="133" y="405"/>
      <point x="167" y="405" type="curve" smooth="yes"/>
      <point x="186" y="405"/>
      <point x="206" y="413"/>
      <point x="221" y="434" type="curve"/>
      <point x="166" y="454" type="line"/>
      <point x="166" y="67" type="line"/>
      <point x="166" y="12"/>
      <point x="194" y="-27"/>
      <point x="236" y="-27" type="curve" smooth="yes"/>
      <point x="267" y="-27"/>
      <point x="294" y="-4"/>
      <point x="294" y="30" type="curve" smooth="yes"/>
      <point x="294" y="63"/>
      <point x="268" y="89"/>
      <point x="234" y="89" type="curve" smooth="yes"/>
      <point x="215" y="89"/>
      <point x="195" y="81"/>
      <point x="180" y="60" type="curve"/>
      <point x="236" y="40" type="line"/>
    </contour>
    <contour>
      <point x="391" y="427" type="line"/>
      <point x="391" y="482"/>
      <point x="362" y="521"/>
      <point x="320" y="521" type="curve" smooth="yes"/>
      <point x="289" y="521"/>
      <point x="262" y="498"/>
      <point x="262" y="464" type="curve" smooth="yes"/>
      <point x="262" y="431"/>
      <point x="288" y="405"/>
      <point x="322" y="405" type="curve" smooth="yes"/>
      <point x="341" y="405"/>
      <point x="361" y="413"/>
      <point x="376" y="434" type="curve"/>
      <point x="321" y="454" type="line"/>
      <point x="321" y="67" type="line"/>
      <point x="321" y="12"/>
      <point x="349" y="-27"/>
      <point x="391" y="-27" type="curve" smooth="yes"/>
      <point x="422" y="-27"/>
      <point x="449" y="-4"/>
      <point x="449" y="30" type="curve" smooth="yes"/>
      <point x="449" y="63"/>
      <point x="423" y="89"/>
      <point x="389" y="89" type="curve" smooth="yes"/>
      <point x="370" y="89"/>
      <point x="350" y="81"/>
      <point x="335" y="60" type="curve"/>
      <point x="391" y="40" type="line"/>
    </contour>
  </outline>
</glyph>
<glyph name="bE" format="1">
  <advance width="545"/>
  <outline>
    <contour>
      <point x="490" y="0" type="line"/>
      <point x="490" y="388" type="line" smooth="yes"/>
      <point x="490" y="450"/>
      <point x="431" y="523"/>
      <point x="366" y="523" type="curve" smooth="yes"/>
      <point x="283" y="523"/>
      <point x="168" y="408"/>
      <point x="168" y="308" type="curve" smooth="yes"/>
      <point x="168" y="244"/>
      <point x="215" y="197"/>
      <point x="273" y="197" type="curve" smooth="yes"/>
      <point x="321" y="197"/>
      <point x="353" y="227"/>
      <point x="353" y="266" type="curve" smooth="yes"/>
      <point x="353" y="304"/>
      <point x="323" y="333"/>
      <point x="288" y="333" type="curve" smooth="yes"/>
      <point x="261" y="333"/>
      <point x="237" y="314"/>
      <point x="228" y="291" type="curve"/>
      <point x="272" y="259" type="line"/>
      <point x="267" y="268"/>
      <point x="264" y="282"/>
      <point x="264" y="292" type="curve" smooth="yes"/>
      <point x="264" y="356"/>
      <point x="362" y="451"/>
      <point x="400" y="451" type="curve" smooth="yes"/>
      <point x="413" y="451"/>
      <point x="420" y="440"/>
      <point x="420" y="426" type="curve" smooth="yes"/>
      <point x="420" y="81" type="line"/>
      <point x="453" y="43" type="line"/>
      <point x="433" y="114"/>
      <point x="385" y="159"/>
      <point x="321" y="159" type="curve" smooth="yes"/>
      <point x="291" y="159"/>
      <point x="223" y="149"/>
      <point x="188" y="149" type="curve" smooth="yes"/>
      <point x="111" y="149"/>
      <point x="67" y="195"/>
      <point x="67" y="266" type="curve" smooth="yes"/>
      <point x="67" y="305"/>
      <point x="80" y="341"/>
      <point x="97" y="369" type="curve"/>
      <point x="58" y="390" type="line"/>
      <point x="29" y="350"/>
      <point x="15" y="306"/>
      <point x="15" y="259" type="curve" smooth="yes"/>
      <point x="15" y="146"/>
      <point x="101" y="59"/>
      <point x="218" y="59" type="curve" smooth="yes"/>
      <point x="263" y="59"/>
      <point x="324" y="72"/>
      <point x="362" y="72" type="curve" smooth="yes"/>
      <point x="413" y="72"/>
      <point x="435" y="48"/>
      <point x="438" y="0" type="curve"/>
    </contour>
  </outline>
</glyph>
